# Blender 4.1.1
# www.blender.org
o Body.001
v 0.150000 0.050000 -0.050000
v -0.150000 0.050000 -0.050000
v -0.150000 0.050000 0.050000
v 0.150000 0.050000 0.050000
v -0.150000 -0.050000 0.050000
v 0.150000 -0.050000 0.050000
v -0.150000 -0.050000 -0.050000
v 0.150000 -0.050000 -0.050000
v 0.000000 0.050000 -0.050000
v 0.000000 0.050000 0.000000
v 0.000000 0.050000 0.050000
v 0.000000 0.000000 0.050000
v 0.000000 -0.050000 0.050000
v 0.000000 -0.050000 0.000000
v 0.000000 -0.050000 -0.050000
v 0.150000 -0.050000 0.000000
v 0.150000 0.050000 0.000000
v -0.150000 0.050000 0.000000
v -0.150000 0.000000 0.000000
v 0.150000 0.000000 -0.050000
v -0.150000 0.000000 0.050000
v -0.150000 0.000000 -0.050000
v 0.000000 0.000000 -0.050000
v 0.150000 0.000000 0.050000
v 0.150000 0.000000 0.000000
v -0.150000 -0.050000 0.000000
s 0
f 1 9 10
f 3 11 10
f 4 11 12
f 5 13 12
f 6 13 14
f 7 15 14
f 8 15 23
f 2 9 23
f 8 20 25
f 4 24 25
f 5 21 19
f 2 22 19
f 19 26 5
f 19 22 26
f 22 7 26
f 19 18 2
f 19 21 18
f 21 3 18
f 25 16 8
f 25 24 16
f 24 6 16
f 25 17 4
f 25 20 17
f 20 1 17
f 23 20 8
f 23 9 20
f 9 1 20
f 23 22 2
f 23 15 22
f 15 7 22
f 14 16 6
f 14 15 16
f 15 8 16
f 14 26 7
f 14 13 26
f 13 5 26
f 12 24 4
f 12 13 24
f 13 6 24
f 12 21 5
f 12 11 21
f 11 3 21
f 10 17 1
f 10 11 17
f 11 4 17
f 10 18 3
f 10 9 18
f 9 2 18
o wing_bottom.001
v -0.153000 0.045000 0.047000
v -0.153000 0.045000 0.050000
v -0.153000 -0.045000 0.050000
v -0.153000 -0.045000 0.047000
v -0.353000 0.035000 0.047000
v -0.353000 0.035000 0.050000
v -0.353000 -0.035000 0.047000
v -0.353000 -0.035000 0.050000
v -0.153000 0.045000 0.048500
v -0.153000 0.000000 0.048500
v -0.153000 -0.045000 0.048500
v -0.253000 0.040000 0.048500
v -0.353000 0.035000 0.048500
v -0.353000 0.000000 0.048500
v -0.353000 -0.035000 0.048500
v -0.353000 0.000000 0.050000
v -0.153000 0.000000 0.047000
v -0.153000 0.000000 0.050000
v -0.253000 0.040000 0.047000
v -0.253000 0.005000 0.047000
v -0.253000 0.040000 0.050000
v -0.253000 -0.005000 0.050000
v -0.253000 -0.040000 0.050000
v -0.253000 -0.040000 0.047000
v -0.253000 -0.040000 0.048500
v -0.353000 0.000000 0.047000
s 0
f 27 35 36
f 29 37 36
f 31 39 38
f 28 35 38
f 33 41 40
f 32 39 40
f 30 37 51
f 34 41 51
f 27 43 46
f 33 52 46
f 29 44 48
f 32 42 48
f 48 49 29
f 48 42 49
f 42 34 49
f 48 47 32
f 48 44 47
f 44 28 47
f 46 45 27
f 46 52 45
f 52 31 45
f 46 50 33
f 46 43 50
f 43 30 50
f 51 50 30
f 51 41 50
f 41 33 50
f 51 49 34
f 51 37 49
f 37 29 49
f 40 52 33
f 40 39 52
f 39 31 52
f 40 42 32
f 40 41 42
f 41 34 42
f 38 45 31
f 38 35 45
f 35 27 45
f 38 47 28
f 38 39 47
f 39 32 47
f 36 43 27
f 36 37 43
f 37 30 43
f 36 44 29
f 36 35 44
f 35 28 44
o wing_left.001
v -0.153000 -0.047000 0.045000
v -0.153000 -0.050000 0.045000
v -0.153000 -0.050000 -0.045000
v -0.153000 -0.047000 -0.045000
v -0.353000 -0.047000 0.035000
v -0.353000 -0.050000 0.035000
v -0.353000 -0.047000 -0.035000
v -0.353000 -0.050000 -0.035000
v -0.153000 -0.048500 0.045000
v -0.153000 -0.048500 0.000000
v -0.153000 -0.048500 -0.045000
v -0.253000 -0.048500 0.040000
v -0.353000 -0.048500 0.035000
v -0.353000 -0.048500 0.000000
v -0.353000 -0.048500 -0.035000
v -0.353000 -0.050000 0.000000
v -0.153000 -0.047000 0.000000
v -0.153000 -0.050000 0.000000
v -0.253000 -0.047000 0.040000
v -0.253000 -0.047000 0.005000
v -0.253000 -0.050000 0.040000
v -0.253000 -0.050000 -0.005000
v -0.253000 -0.050000 -0.040000
v -0.253000 -0.047000 -0.040000
v -0.253000 -0.048500 -0.040000
v -0.353000 -0.047000 0.000000
s 0
f 53 61 62
f 55 63 62
f 57 65 64
f 54 61 64
f 59 67 66
f 58 65 66
f 56 63 77
f 60 67 77
f 53 69 72
f 59 78 72
f 55 70 74
f 58 68 74
f 74 75 55
f 74 68 75
f 68 60 75
f 74 73 58
f 74 70 73
f 70 54 73
f 72 71 53
f 72 78 71
f 78 57 71
f 72 76 59
f 72 69 76
f 69 56 76
f 77 76 56
f 77 67 76
f 67 59 76
f 77 75 60
f 77 63 75
f 63 55 75
f 66 78 59
f 66 65 78
f 65 57 78
f 66 68 58
f 66 67 68
f 67 60 68
f 64 71 57
f 64 61 71
f 61 53 71
f 64 73 54
f 64 65 73
f 65 58 73
f 62 69 53
f 62 63 69
f 63 56 69
f 62 70 55
f 62 61 70
f 61 54 70
o wing_right.001
v -0.153000 0.047000 -0.045000
v -0.153000 0.050000 -0.045000
v -0.153000 0.050000 0.045000
v -0.153000 0.047000 0.045000
v -0.353000 0.047000 -0.035000
v -0.353000 0.050000 -0.035000
v -0.353000 0.047000 0.035000
v -0.353000 0.050000 0.035000
v -0.153000 0.048500 -0.045000
v -0.153000 0.048500 0.000000
v -0.153000 0.048500 0.045000
v -0.253000 0.048500 -0.040000
v -0.353000 0.048500 -0.035000
v -0.353000 0.048500 0.000000
v -0.353000 0.048500 0.035000
v -0.353000 0.050000 0.000000
v -0.153000 0.047000 0.000000
v -0.153000 0.050000 0.000000
v -0.253000 0.047000 -0.040000
v -0.253000 0.047000 -0.005000
v -0.253000 0.050000 -0.040000
v -0.253000 0.050000 0.005000
v -0.253000 0.050000 0.040000
v -0.253000 0.047000 0.040000
v -0.253000 0.048500 0.040000
v -0.353000 0.047000 0.000000
s 0
f 79 87 88
f 81 89 88
f 83 91 90
f 80 87 90
f 85 93 92
f 84 91 92
f 82 89 103
f 86 93 103
f 79 95 98
f 85 104 98
f 81 96 100
f 84 94 100
f 100 101 81
f 100 94 101
f 94 86 101
f 100 99 84
f 100 96 99
f 96 80 99
f 98 97 79
f 98 104 97
f 104 83 97
f 98 102 85
f 98 95 102
f 95 82 102
f 103 102 82
f 103 93 102
f 93 85 102
f 103 101 86
f 103 89 101
f 89 81 101
f 92 104 85
f 92 91 104
f 91 83 104
f 92 94 84
f 92 93 94
f 93 86 94
f 90 97 83
f 90 87 97
f 87 79 97
f 90 99 80
f 90 91 99
f 91 84 99
f 88 95 79
f 88 89 95
f 89 82 95
f 88 96 81
f 88 87 96
f 87 80 96
o wing_up.001
v -0.153000 -0.045000 -0.047000
v -0.153000 -0.045000 -0.050000
v -0.153000 0.045000 -0.050000
v -0.153000 0.045000 -0.047000
v -0.353000 -0.035000 -0.047000
v -0.353000 -0.035000 -0.050000
v -0.353000 0.035000 -0.047000
v -0.353000 0.035000 -0.050000
v -0.153000 -0.045000 -0.048500
v -0.153000 0.000000 -0.048500
v -0.153000 0.045000 -0.048500
v -0.253000 -0.040000 -0.048500
v -0.353000 -0.035000 -0.048500
v -0.353000 0.000000 -0.048500
v -0.353000 0.035000 -0.048500
v -0.353000 0.000000 -0.050000
v -0.153000 0.000000 -0.047000
v -0.153000 0.000000 -0.050000
v -0.253000 -0.040000 -0.047000
v -0.253000 -0.005000 -0.047000
v -0.253000 -0.040000 -0.050000
v -0.253000 0.005000 -0.050000
v -0.253000 0.040000 -0.050000
v -0.253000 0.040000 -0.047000
v -0.253000 0.040000 -0.048500
v -0.353000 0.000000 -0.047000
s 0
f 105 113 114
f 107 115 114
f 109 117 116
f 106 113 116
f 111 119 118
f 110 117 118
f 108 115 129
f 112 119 129
f 105 121 124
f 111 130 124
f 107 122 126
f 110 120 126
f 126 127 107
f 126 120 127
f 120 112 127
f 126 125 110
f 126 122 125
f 122 106 125
f 124 123 105
f 124 130 123
f 130 109 123
f 124 128 111
f 124 121 128
f 121 108 128
f 129 128 108
f 129 119 128
f 119 111 128
f 129 127 112
f 129 115 127
f 115 107 127
f 118 130 111
f 118 117 130
f 117 109 130
f 118 120 110
f 118 119 120
f 119 112 120
f 116 123 109
f 116 113 123
f 113 105 123
f 116 125 106
f 116 117 125
f 117 110 125
f 114 121 105
f 114 115 121
f 115 108 121
f 114 122 107
f 114 113 122
f 113 106 122
