# Blender 4.1.1
# www.blender.org
o Body
v 0.150000 0.050000 -0.050000
v -0.150000 0.050000 -0.050000
v -0.150000 0.050000 0.050000
v 0.150000 0.050000 0.050000
v -0.150000 -0.050000 0.050000
v 0.150000 -0.050000 0.050000
v -0.150000 -0.050000 -0.050000
v 0.150000 -0.050000 -0.050000
v 0.000000 0.050000 -0.050000
v 0.000000 0.050000 0.000000
v 0.000000 0.050000 0.050000
v 0.000000 0.000000 0.050000
v 0.000000 -0.050000 0.050000
v 0.000000 -0.050000 0.000000
v 0.000000 -0.050000 -0.050000
v 0.150000 -0.050000 0.000000
v 0.150000 0.050000 0.000000
v -0.150000 0.050000 0.000000
v -0.150000 0.000000 0.000000
v 0.150000 0.000000 -0.050000
v -0.150000 0.000000 0.050000
v -0.150000 0.000000 -0.050000
v 0.000000 0.000000 -0.050000
v 0.150000 0.000000 0.050000
v 0.150000 0.000000 0.000000
v -0.150000 -0.050000 0.000000
s 0
f 1 9 10
f 3 11 10
f 4 11 12
f 5 13 12
f 6 13 14
f 7 15 14
f 8 15 23
f 2 9 23
f 8 20 25
f 4 24 25
f 5 21 19
f 2 22 19
f 19 26 5
f 19 22 26
f 22 7 26
f 19 18 2
f 19 21 18
f 21 3 18
f 25 16 8
f 25 24 16
f 24 6 16
f 25 17 4
f 25 20 17
f 20 1 17
f 23 20 8
f 23 9 20
f 9 1 20
f 23 22 2
f 23 15 22
f 15 7 22
f 14 16 6
f 14 15 16
f 15 8 16
f 14 26 7
f 14 13 26
f 13 5 26
f 12 24 4
f 12 13 24
f 13 6 24
f 12 21 5
f 12 11 21
f 11 3 21
f 10 17 1
f 10 11 17
f 11 4 17
f 10 18 3
f 10 9 18
f 9 2 18
o wing_bottom
v -0.153000 0.045000 0.047000
v -0.153000 0.045000 0.050000
v -0.153000 -0.045000 0.050000
v -0.153000 -0.045000 0.047000
v -0.353000 0.035000 0.047000
v -0.353000 0.035000 0.050000
v -0.353000 -0.035000 0.047000
v -0.353000 -0.035000 0.050000
s 0
f 27 28 29
f 29 30 27
f 31 32 28
f 28 27 31
f 33 34 32
f 32 31 33
f 30 29 34
f 34 33 30
f 27 30 33
f 33 31 27
f 29 28 32
f 32 34 29
o wing_left
v -0.153000 -0.047000 0.045000
v -0.153000 -0.050000 0.045000
v -0.153000 -0.050000 -0.045000
v -0.153000 -0.047000 -0.045000
v -0.353000 -0.047000 0.035000
v -0.353000 -0.050000 0.035000
v -0.353000 -0.047000 -0.035000
v -0.353000 -0.050000 -0.035000
s 0
f 35 36 37
f 37 38 35
f 39 40 36
f 36 35 39
f 41 42 40
f 40 39 41
f 38 37 42
f 42 41 38
f 35 38 41
f 41 39 35
f 37 36 40
f 40 42 37
o wing_right
v -0.153000 0.047000 -0.045000
v -0.153000 0.050000 -0.045000
v -0.153000 0.050000 0.045000
v -0.153000 0.047000 0.045000
v -0.353000 0.047000 -0.035000
v -0.353000 0.050000 -0.035000
v -0.353000 0.047000 0.035000
v -0.353000 0.050000 0.035000
s 0
f 43 44 45
f 45 46 43
f 47 48 44
f 44 43 47
f 49 50 48
f 48 47 49
f 46 45 50
f 50 49 46
f 43 46 49
f 49 47 43
f 45 44 48
f 48 50 45
o wing_up
v -0.153000 -0.045000 -0.047000
v -0.153000 -0.045000 -0.050000
v -0.153000 0.045000 -0.050000
v -0.153000 0.045000 -0.047000
v -0.353000 -0.035000 -0.047000
v -0.353000 -0.035000 -0.050000
v -0.353000 0.035000 -0.047000
v -0.353000 0.035000 -0.050000
s 0
f 51 52 53
f 53 54 51
f 55 56 52
f 52 51 55
f 57 58 56
f 56 55 57
f 54 53 58
f 58 57 54
f 51 54 57
f 57 55 51
f 53 52 56
f 56 58 53
