# Blender 4.1.1
# www.blender.org
o Body.002
v 0.150000 0.050000 -0.050000
v -0.150000 0.050000 -0.050000
v -0.150000 0.050000 0.050000
v 0.150000 0.050000 0.050000
v -0.150000 -0.050000 0.050000
v 0.150000 -0.050000 0.050000
v -0.150000 -0.050000 -0.050000
v 0.150000 -0.050000 -0.050000
v 0.000000 0.050000 -0.050000
v 0.000000 0.050000 0.000000
v 0.000000 0.050000 0.050000
v 0.000000 0.000000 0.050000
v 0.000000 -0.050000 0.050000
v 0.000000 -0.050000 0.000000
v 0.000000 -0.050000 -0.050000
v 0.150000 -0.050000 0.000000
v 0.150000 0.050000 0.000000
v -0.150000 0.050000 0.000000
v -0.150000 0.000000 0.000000
v 0.150000 0.000000 -0.050000
v -0.150000 0.000000 0.050000
v -0.150000 0.000000 -0.050000
v 0.000000 0.000000 -0.050000
v 0.150000 0.000000 0.050000
v 0.150000 0.000000 0.000000
v -0.150000 -0.050000 0.000000
v -0.075000 0.050000 -0.050000
v -0.075000 0.050000 0.025000
v 0.075000 0.050000 0.050000
v -0.075000 -0.025000 0.050000
v 0.075000 -0.050000 0.050000
v -0.075000 -0.050000 -0.025000
v 0.075000 -0.050000 -0.050000
v 0.150000 -0.050000 -0.025000
v 0.150000 0.050000 0.025000
v -0.150000 0.050000 0.025000
v -0.150000 -0.025000 0.025000
v 0.150000 -0.025000 -0.050000
v -0.150000 -0.025000 0.050000
v -0.150000 -0.025000 -0.050000
v 0.075000 -0.025000 -0.050000
v 0.150000 -0.025000 0.050000
v 0.150000 -0.025000 -0.025000
v -0.150000 -0.050000 -0.025000
v 0.075000 0.050000 -0.050000
v 0.075000 0.050000 -0.025000
v -0.075000 0.050000 0.050000
v 0.075000 0.025000 0.050000
v -0.075000 -0.050000 0.050000
v 0.075000 -0.050000 0.025000
v -0.075000 -0.050000 -0.050000
v 0.150000 -0.050000 0.025000
v 0.150000 0.050000 -0.025000
v -0.150000 0.050000 -0.025000
v -0.150000 0.025000 -0.025000
v 0.150000 0.025000 -0.050000
v -0.150000 0.025000 0.050000
v -0.150000 0.025000 -0.050000
v -0.075000 0.025000 -0.050000
v 0.150000 0.025000 0.050000
v 0.150000 0.025000 0.025000
v -0.150000 -0.050000 0.025000
v -0.150000 -0.025000 0.000000
v -0.150000 0.000000 -0.025000
v -0.150000 -0.025000 -0.025000
v -0.150000 0.025000 0.000000
v -0.150000 0.000000 0.025000
v -0.150000 0.025000 0.025000
v 0.150000 -0.025000 0.000000
v 0.150000 0.000000 0.025000
v 0.150000 -0.025000 0.025000
v 0.150000 0.025000 0.000000
v 0.150000 0.000000 -0.025000
v 0.150000 0.025000 -0.025000
v 0.075000 0.000000 -0.050000
v 0.000000 0.025000 -0.050000
v 0.075000 0.025000 -0.050000
v -0.075000 0.000000 -0.050000
v 0.000000 -0.025000 -0.050000
v -0.075000 -0.025000 -0.050000
v 0.075000 -0.050000 0.000000
v 0.000000 -0.050000 -0.025000
v 0.075000 -0.050000 -0.025000
v -0.075000 -0.050000 0.000000
v 0.000000 -0.050000 0.025000
v -0.075000 -0.050000 0.025000
v 0.075000 0.000000 0.050000
v 0.000000 -0.025000 0.050000
v 0.075000 -0.025000 0.050000
v -0.075000 0.000000 0.050000
v 0.000000 0.025000 0.050000
v -0.075000 0.025000 0.050000
v 0.075000 0.050000 0.000000
v 0.000000 0.050000 0.025000
v 0.075000 0.050000 0.025000
v -0.075000 0.050000 0.000000
v 0.000000 0.050000 -0.025000
v -0.075000 0.050000 -0.025000
s 0
f 1 45 46
f 3 47 28
f 4 29 48
f 5 49 30
f 6 31 50
f 7 51 32
f 8 33 41
f 2 27 59
f 8 38 43
f 4 60 61
f 5 39 37
f 2 58 55
f 19 63 37
f 19 64 63
f 22 40 65
f 19 66 55
f 19 67 66
f 21 57 68
f 25 69 43
f 25 70 69
f 24 42 71
f 25 72 61
f 25 73 72
f 20 56 74
f 23 75 41
f 23 76 75
f 9 45 77
f 23 78 59
f 23 79 78
f 15 51 80
f 14 81 50
f 14 82 81
f 15 33 83
f 14 84 32
f 14 85 84
f 13 49 86
f 12 87 48
f 12 88 87
f 13 31 89
f 12 90 30
f 12 91 90
f 11 47 92
f 10 93 46
f 10 94 93
f 11 29 95
f 10 96 28
f 10 97 96
f 9 27 98
f 98 54 18
f 98 27 54
f 27 2 54
f 96 98 18
f 96 97 98
f 97 9 98
f 28 36 3
f 28 96 36
f 96 18 36
f 95 35 17
f 95 29 35
f 29 4 35
f 93 95 17
f 93 94 95
f 94 11 95
f 46 53 1
f 46 93 53
f 93 17 53
f 92 57 21
f 92 47 57
f 47 3 57
f 90 92 21
f 90 91 92
f 91 11 92
f 30 39 5
f 30 90 39
f 90 21 39
f 89 42 24
f 89 31 42
f 31 6 42
f 87 89 24
f 87 88 89
f 88 13 89
f 48 60 4
f 48 87 60
f 87 24 60
f 86 62 26
f 86 49 62
f 49 5 62
f 84 86 26
f 84 85 86
f 85 13 86
f 32 44 7
f 32 84 44
f 84 26 44
f 83 34 16
f 83 33 34
f 33 8 34
f 81 83 16
f 81 82 83
f 82 15 83
f 50 52 6
f 50 81 52
f 81 16 52
f 80 40 22
f 80 51 40
f 51 7 40
f 78 80 22
f 78 79 80
f 79 15 80
f 59 58 2
f 59 78 58
f 78 22 58
f 77 56 20
f 77 45 56
f 45 1 56
f 75 77 20
f 75 76 77
f 76 9 77
f 41 38 8
f 41 75 38
f 75 20 38
f 74 53 17
f 74 56 53
f 56 1 53
f 72 74 17
f 72 73 74
f 73 20 74
f 61 35 4
f 61 72 35
f 72 17 35
f 71 52 16
f 71 42 52
f 42 6 52
f 69 71 16
f 69 70 71
f 70 24 71
f 43 34 8
f 43 69 34
f 69 16 34
f 68 36 18
f 68 57 36
f 57 3 36
f 66 68 18
f 66 67 68
f 67 21 68
f 55 54 2
f 55 66 54
f 66 18 54
f 65 44 26
f 65 40 44
f 40 7 44
f 63 65 26
f 63 64 65
f 64 22 65
f 37 62 5
f 37 63 62
f 63 26 62
f 55 64 19
f 55 58 64
f 58 22 64
f 37 67 19
f 37 39 67
f 39 21 67
f 61 70 25
f 61 60 70
f 60 24 70
f 43 73 25
f 43 38 73
f 38 20 73
f 59 76 23
f 59 27 76
f 27 9 76
f 41 79 23
f 41 33 79
f 33 15 79
f 32 82 14
f 32 51 82
f 51 15 82
f 50 85 14
f 50 31 85
f 31 13 85
f 30 88 12
f 30 49 88
f 49 13 88
f 48 91 12
f 48 29 91
f 29 11 91
f 28 94 10
f 28 47 94
f 47 11 94
f 46 97 10
f 46 45 97
f 45 9 97
o wing_bottom.002
v -0.153000 0.045000 0.047000
v -0.153000 0.045000 0.050000
v -0.153000 -0.045000 0.050000
v -0.153000 -0.045000 0.047000
v -0.353000 0.035000 0.047000
v -0.353000 0.035000 0.050000
v -0.353000 -0.035000 0.047000
v -0.353000 -0.035000 0.050000
v -0.153000 0.045000 0.048500
v -0.153000 0.000000 0.048500
v -0.153000 -0.045000 0.048500
v -0.253000 0.040000 0.048500
v -0.353000 0.035000 0.048500
v -0.353000 0.000000 0.048500
v -0.353000 -0.035000 0.048500
v -0.353000 0.000000 0.050000
v -0.153000 0.000000 0.047000
v -0.153000 0.000000 0.050000
v -0.253000 0.040000 0.047000
v -0.253000 0.005000 0.047000
v -0.253000 0.040000 0.050000
v -0.253000 -0.005000 0.050000
v -0.253000 -0.040000 0.050000
v -0.253000 -0.040000 0.047000
v -0.253000 -0.040000 0.048500
v -0.353000 0.000000 0.047000
v -0.153000 0.045000 0.049250
v -0.153000 -0.022500 0.049250
v -0.153000 -0.045000 0.047750
v -0.303000 0.037500 0.047750
v -0.353000 0.035000 0.049250
v -0.353000 -0.017500 0.047750
v -0.353000 -0.035000 0.049250
v -0.353000 -0.017500 0.050000
v -0.153000 -0.022500 0.047000
v -0.153000 -0.022500 0.050000
v -0.303000 0.037500 0.047000
v -0.303000 -0.015000 0.047000
v -0.303000 0.037500 0.050000
v -0.303000 0.015000 0.050000
v -0.303000 -0.037500 0.050000
v -0.303000 -0.037500 0.047000
v -0.303000 -0.037500 0.049250
v -0.353000 -0.017500 0.047000
v -0.153000 0.045000 0.047750
v -0.153000 0.022500 0.047750
v -0.153000 -0.045000 0.049250
v -0.203000 0.042500 0.049250
v -0.353000 0.035000 0.047750
v -0.353000 0.017500 0.049250
v -0.353000 -0.035000 0.047750
v -0.353000 0.017500 0.050000
v -0.153000 0.022500 0.047000
v -0.153000 0.022500 0.050000
v -0.203000 0.042500 0.047000
v -0.203000 0.025000 0.047000
v -0.203000 0.042500 0.050000
v -0.203000 -0.025000 0.050000
v -0.203000 -0.042500 0.050000
v -0.203000 -0.042500 0.047000
v -0.203000 -0.042500 0.047750
v -0.353000 0.017500 0.047000
v -0.253000 -0.022500 0.050000
v -0.303000 -0.002500 0.050000
v -0.303000 -0.020000 0.050000
v -0.253000 0.017500 0.050000
v -0.203000 -0.002500 0.050000
v -0.203000 0.020000 0.050000
v -0.253000 0.022500 0.047000
v -0.303000 0.002500 0.047000
v -0.303000 0.020000 0.047000
v -0.253000 -0.017500 0.047000
v -0.203000 0.002500 0.047000
v -0.203000 -0.020000 0.047000
v -0.253000 -0.040000 0.047750
v -0.303000 -0.037500 0.048500
v -0.303000 -0.037500 0.047750
v -0.253000 -0.040000 0.049250
v -0.203000 -0.042500 0.048500
v -0.203000 -0.042500 0.049250
v -0.353000 0.000000 0.047750
v -0.353000 0.017500 0.048500
v -0.353000 0.017500 0.047750
v -0.353000 0.000000 0.049250
v -0.353000 -0.017500 0.048500
v -0.353000 -0.017500 0.049250
v -0.253000 0.040000 0.047750
v -0.203000 0.042500 0.048500
v -0.203000 0.042500 0.047750
v -0.253000 0.040000 0.049250
v -0.303000 0.037500 0.048500
v -0.303000 0.037500 0.049250
v -0.153000 0.000000 0.047750
v -0.153000 -0.022500 0.048500
v -0.153000 -0.022500 0.047750
v -0.153000 0.000000 0.049250
v -0.153000 0.022500 0.048500
v -0.153000 0.022500 0.049250
s 0
f 99 143 144
f 101 145 126
f 103 147 128
f 100 125 146
f 105 149 130
f 104 129 148
f 102 127 159
f 106 131 141
f 99 151 154
f 105 142 136
f 101 134 156
f 104 150 138
f 120 161 156
f 120 162 161
f 114 132 163
f 120 164 138
f 120 165 164
f 116 152 166
f 118 167 154
f 118 168 167
f 124 160 169
f 118 170 136
f 118 171 170
f 115 133 172
f 123 173 159
f 123 174 173
f 113 149 175
f 123 176 141
f 123 177 176
f 109 145 178
f 112 179 130
f 112 180 179
f 111 147 181
f 112 182 148
f 112 183 182
f 113 131 184
f 110 185 128
f 110 186 185
f 107 143 187
f 110 188 146
f 110 189 188
f 111 129 190
f 108 191 144
f 108 192 191
f 109 127 193
f 108 194 126
f 108 195 194
f 107 125 196
f 196 152 116
f 196 125 152
f 125 100 152
f 194 196 116
f 194 195 196
f 195 107 196
f 126 134 101
f 126 194 134
f 194 116 134
f 193 133 115
f 193 127 133
f 127 102 133
f 191 193 115
f 191 192 193
f 192 109 193
f 144 151 99
f 144 191 151
f 191 115 151
f 190 137 119
f 190 129 137
f 129 104 137
f 188 190 119
f 188 189 190
f 189 111 190
f 146 155 100
f 146 188 155
f 188 119 155
f 187 153 117
f 187 143 153
f 143 99 153
f 185 187 117
f 185 186 187
f 186 107 187
f 128 135 103
f 128 185 135
f 185 117 135
f 184 132 114
f 184 131 132
f 131 106 132
f 182 184 114
f 182 183 184
f 183 113 184
f 148 150 104
f 148 182 150
f 182 114 150
f 181 160 124
f 181 147 160
f 147 103 160
f 179 181 124
f 179 180 181
f 180 111 181
f 130 142 105
f 130 179 142
f 179 124 142
f 178 157 121
f 178 145 157
f 145 101 157
f 176 178 121
f 176 177 178
f 177 109 178
f 141 139 106
f 141 176 139
f 176 121 139
f 175 140 122
f 175 149 140
f 149 105 140
f 173 175 122
f 173 174 175
f 174 113 175
f 159 158 102
f 159 173 158
f 173 122 158
f 172 158 122
f 172 133 158
f 133 102 158
f 170 172 122
f 170 171 172
f 171 115 172
f 136 140 105
f 136 170 140
f 170 122 140
f 169 135 117
f 169 160 135
f 160 103 135
f 167 169 117
f 167 168 169
f 168 124 169
f 154 153 99
f 154 167 153
f 167 117 153
f 166 155 119
f 166 152 155
f 152 100 155
f 164 166 119
f 164 165 166
f 165 116 166
f 138 137 104
f 138 164 137
f 164 119 137
f 163 139 121
f 163 132 139
f 132 106 139
f 161 163 121
f 161 162 163
f 162 114 163
f 156 157 101
f 156 161 157
f 161 121 157
f 138 162 120
f 138 150 162
f 150 114 162
f 156 165 120
f 156 134 165
f 134 116 165
f 136 168 118
f 136 142 168
f 142 124 168
f 154 171 118
f 154 151 171
f 151 115 171
f 141 174 123
f 141 131 174
f 131 113 174
f 159 177 123
f 159 127 177
f 127 109 177
f 148 180 112
f 148 129 180
f 129 111 180
f 130 183 112
f 130 149 183
f 149 113 183
f 146 186 110
f 146 125 186
f 125 107 186
f 128 189 110
f 128 147 189
f 147 111 189
f 126 192 108
f 126 145 192
f 145 109 192
f 144 195 108
f 144 143 195
f 143 107 195
o wing_left.002
v -0.153000 -0.047000 0.045000
v -0.153000 -0.050000 0.045000
v -0.153000 -0.050000 -0.045000
v -0.153000 -0.047000 -0.045000
v -0.353000 -0.047000 0.035000
v -0.353000 -0.050000 0.035000
v -0.353000 -0.047000 -0.035000
v -0.353000 -0.050000 -0.035000
v -0.153000 -0.048500 0.045000
v -0.153000 -0.048500 0.000000
v -0.153000 -0.048500 -0.045000
v -0.253000 -0.048500 0.040000
v -0.353000 -0.048500 0.035000
v -0.353000 -0.048500 0.000000
v -0.353000 -0.048500 -0.035000
v -0.353000 -0.050000 0.000000
v -0.153000 -0.047000 0.000000
v -0.153000 -0.050000 0.000000
v -0.253000 -0.047000 0.040000
v -0.253000 -0.047000 0.005000
v -0.253000 -0.050000 0.040000
v -0.253000 -0.050000 -0.005000
v -0.253000 -0.050000 -0.040000
v -0.253000 -0.047000 -0.040000
v -0.253000 -0.048500 -0.040000
v -0.353000 -0.047000 0.000000
v -0.153000 -0.049250 0.045000
v -0.153000 -0.049250 -0.022500
v -0.153000 -0.047750 -0.045000
v -0.303000 -0.047750 0.037500
v -0.353000 -0.049250 0.035000
v -0.353000 -0.047750 -0.017500
v -0.353000 -0.049250 -0.035000
v -0.353000 -0.050000 -0.017500
v -0.153000 -0.047000 -0.022500
v -0.153000 -0.050000 -0.022500
v -0.303000 -0.047000 0.037500
v -0.303000 -0.047000 -0.015000
v -0.303000 -0.050000 0.037500
v -0.303000 -0.050000 0.015000
v -0.303000 -0.050000 -0.037500
v -0.303000 -0.047000 -0.037500
v -0.303000 -0.049250 -0.037500
v -0.353000 -0.047000 -0.017500
v -0.153000 -0.047750 0.045000
v -0.153000 -0.047750 0.022500
v -0.153000 -0.049250 -0.045000
v -0.203000 -0.049250 0.042500
v -0.353000 -0.047750 0.035000
v -0.353000 -0.049250 0.017500
v -0.353000 -0.047750 -0.035000
v -0.353000 -0.050000 0.017500
v -0.153000 -0.047000 0.022500
v -0.153000 -0.050000 0.022500
v -0.203000 -0.047000 0.042500
v -0.203000 -0.047000 0.025000
v -0.203000 -0.050000 0.042500
v -0.203000 -0.050000 -0.025000
v -0.203000 -0.050000 -0.042500
v -0.203000 -0.047000 -0.042500
v -0.203000 -0.047750 -0.042500
v -0.353000 -0.047000 0.017500
v -0.253000 -0.050000 -0.022500
v -0.303000 -0.050000 -0.002500
v -0.303000 -0.050000 -0.020000
v -0.253000 -0.050000 0.017500
v -0.203000 -0.050000 -0.002500
v -0.203000 -0.050000 0.020000
v -0.253000 -0.047000 0.022500
v -0.303000 -0.047000 0.002500
v -0.303000 -0.047000 0.020000
v -0.253000 -0.047000 -0.017500
v -0.203000 -0.047000 0.002500
v -0.203000 -0.047000 -0.020000
v -0.253000 -0.047750 -0.040000
v -0.303000 -0.048500 -0.037500
v -0.303000 -0.047750 -0.037500
v -0.253000 -0.049250 -0.040000
v -0.203000 -0.048500 -0.042500
v -0.203000 -0.049250 -0.042500
v -0.353000 -0.047750 0.000000
v -0.353000 -0.048500 0.017500
v -0.353000 -0.047750 0.017500
v -0.353000 -0.049250 0.000000
v -0.353000 -0.048500 -0.017500
v -0.353000 -0.049250 -0.017500
v -0.253000 -0.047750 0.040000
v -0.203000 -0.048500 0.042500
v -0.203000 -0.047750 0.042500
v -0.253000 -0.049250 0.040000
v -0.303000 -0.048500 0.037500
v -0.303000 -0.049250 0.037500
v -0.153000 -0.047750 0.000000
v -0.153000 -0.048500 -0.022500
v -0.153000 -0.047750 -0.022500
v -0.153000 -0.049250 0.000000
v -0.153000 -0.048500 0.022500
v -0.153000 -0.049250 0.022500
s 0
f 197 241 242
f 199 243 224
f 201 245 226
f 198 223 244
f 203 247 228
f 202 227 246
f 200 225 257
f 204 229 239
f 197 249 252
f 203 240 234
f 199 232 254
f 202 248 236
f 218 259 254
f 218 260 259
f 212 230 261
f 218 262 236
f 218 263 262
f 214 250 264
f 216 265 252
f 216 266 265
f 222 258 267
f 216 268 234
f 216 269 268
f 213 231 270
f 221 271 257
f 221 272 271
f 211 247 273
f 221 274 239
f 221 275 274
f 207 243 276
f 210 277 228
f 210 278 277
f 209 245 279
f 210 280 246
f 210 281 280
f 211 229 282
f 208 283 226
f 208 284 283
f 205 241 285
f 208 286 244
f 208 287 286
f 209 227 288
f 206 289 242
f 206 290 289
f 207 225 291
f 206 292 224
f 206 293 292
f 205 223 294
f 294 250 214
f 294 223 250
f 223 198 250
f 292 294 214
f 292 293 294
f 293 205 294
f 224 232 199
f 224 292 232
f 292 214 232
f 291 231 213
f 291 225 231
f 225 200 231
f 289 291 213
f 289 290 291
f 290 207 291
f 242 249 197
f 242 289 249
f 289 213 249
f 288 235 217
f 288 227 235
f 227 202 235
f 286 288 217
f 286 287 288
f 287 209 288
f 244 253 198
f 244 286 253
f 286 217 253
f 285 251 215
f 285 241 251
f 241 197 251
f 283 285 215
f 283 284 285
f 284 205 285
f 226 233 201
f 226 283 233
f 283 215 233
f 282 230 212
f 282 229 230
f 229 204 230
f 280 282 212
f 280 281 282
f 281 211 282
f 246 248 202
f 246 280 248
f 280 212 248
f 279 258 222
f 279 245 258
f 245 201 258
f 277 279 222
f 277 278 279
f 278 209 279
f 228 240 203
f 228 277 240
f 277 222 240
f 276 255 219
f 276 243 255
f 243 199 255
f 274 276 219
f 274 275 276
f 275 207 276
f 239 237 204
f 239 274 237
f 274 219 237
f 273 238 220
f 273 247 238
f 247 203 238
f 271 273 220
f 271 272 273
f 272 211 273
f 257 256 200
f 257 271 256
f 271 220 256
f 270 256 220
f 270 231 256
f 231 200 256
f 268 270 220
f 268 269 270
f 269 213 270
f 234 238 203
f 234 268 238
f 268 220 238
f 267 233 215
f 267 258 233
f 258 201 233
f 265 267 215
f 265 266 267
f 266 222 267
f 252 251 197
f 252 265 251
f 265 215 251
f 264 253 217
f 264 250 253
f 250 198 253
f 262 264 217
f 262 263 264
f 263 214 264
f 236 235 202
f 236 262 235
f 262 217 235
f 261 237 219
f 261 230 237
f 230 204 237
f 259 261 219
f 259 260 261
f 260 212 261
f 254 255 199
f 254 259 255
f 259 219 255
f 236 260 218
f 236 248 260
f 248 212 260
f 254 263 218
f 254 232 263
f 232 214 263
f 234 266 216
f 234 240 266
f 240 222 266
f 252 269 216
f 252 249 269
f 249 213 269
f 239 272 221
f 239 229 272
f 229 211 272
f 257 275 221
f 257 225 275
f 225 207 275
f 246 278 210
f 246 227 278
f 227 209 278
f 228 281 210
f 228 247 281
f 247 211 281
f 244 284 208
f 244 223 284
f 223 205 284
f 226 287 208
f 226 245 287
f 245 209 287
f 224 290 206
f 224 243 290
f 243 207 290
f 242 293 206
f 242 241 293
f 241 205 293
o wing_right.002
v -0.153000 0.047000 -0.045000
v -0.153000 0.050000 -0.045000
v -0.153000 0.050000 0.045000
v -0.153000 0.047000 0.045000
v -0.353000 0.047000 -0.035000
v -0.353000 0.050000 -0.035000
v -0.353000 0.047000 0.035000
v -0.353000 0.050000 0.035000
v -0.153000 0.048500 -0.045000
v -0.153000 0.048500 0.000000
v -0.153000 0.048500 0.045000
v -0.253000 0.048500 -0.040000
v -0.353000 0.048500 -0.035000
v -0.353000 0.048500 0.000000
v -0.353000 0.048500 0.035000
v -0.353000 0.050000 0.000000
v -0.153000 0.047000 0.000000
v -0.153000 0.050000 0.000000
v -0.253000 0.047000 -0.040000
v -0.253000 0.047000 -0.005000
v -0.253000 0.050000 -0.040000
v -0.253000 0.050000 0.005000
v -0.253000 0.050000 0.040000
v -0.253000 0.047000 0.040000
v -0.253000 0.048500 0.040000
v -0.353000 0.047000 0.000000
v -0.153000 0.049250 -0.045000
v -0.153000 0.049250 0.022500
v -0.153000 0.047750 0.045000
v -0.303000 0.047750 -0.037500
v -0.353000 0.049250 -0.035000
v -0.353000 0.047750 0.017500
v -0.353000 0.049250 0.035000
v -0.353000 0.050000 0.017500
v -0.153000 0.047000 0.022500
v -0.153000 0.050000 0.022500
v -0.303000 0.047000 -0.037500
v -0.303000 0.047000 0.015000
v -0.303000 0.050000 -0.037500
v -0.303000 0.050000 -0.015000
v -0.303000 0.050000 0.037500
v -0.303000 0.047000 0.037500
v -0.303000 0.049250 0.037500
v -0.353000 0.047000 0.017500
v -0.153000 0.047750 -0.045000
v -0.153000 0.047750 -0.022500
v -0.153000 0.049250 0.045000
v -0.203000 0.049250 -0.042500
v -0.353000 0.047750 -0.035000
v -0.353000 0.049250 -0.017500
v -0.353000 0.047750 0.035000
v -0.353000 0.050000 -0.017500
v -0.153000 0.047000 -0.022500
v -0.153000 0.050000 -0.022500
v -0.203000 0.047000 -0.042500
v -0.203000 0.047000 -0.025000
v -0.203000 0.050000 -0.042500
v -0.203000 0.050000 0.025000
v -0.203000 0.050000 0.042500
v -0.203000 0.047000 0.042500
v -0.203000 0.047750 0.042500
v -0.353000 0.047000 -0.017500
v -0.253000 0.050000 0.022500
v -0.303000 0.050000 0.002500
v -0.303000 0.050000 0.020000
v -0.253000 0.050000 -0.017500
v -0.203000 0.050000 0.002500
v -0.203000 0.050000 -0.020000
v -0.253000 0.047000 -0.022500
v -0.303000 0.047000 -0.002500
v -0.303000 0.047000 -0.020000
v -0.253000 0.047000 0.017500
v -0.203000 0.047000 -0.002500
v -0.203000 0.047000 0.020000
v -0.253000 0.047750 0.040000
v -0.303000 0.048500 0.037500
v -0.303000 0.047750 0.037500
v -0.253000 0.049250 0.040000
v -0.203000 0.048500 0.042500
v -0.203000 0.049250 0.042500
v -0.353000 0.047750 0.000000
v -0.353000 0.048500 -0.017500
v -0.353000 0.047750 -0.017500
v -0.353000 0.049250 0.000000
v -0.353000 0.048500 0.017500
v -0.353000 0.049250 0.017500
v -0.253000 0.047750 -0.040000
v -0.203000 0.048500 -0.042500
v -0.203000 0.047750 -0.042500
v -0.253000 0.049250 -0.040000
v -0.303000 0.048500 -0.037500
v -0.303000 0.049250 -0.037500
v -0.153000 0.047750 0.000000
v -0.153000 0.048500 0.022500
v -0.153000 0.047750 0.022500
v -0.153000 0.049250 0.000000
v -0.153000 0.048500 -0.022500
v -0.153000 0.049250 -0.022500
s 0
f 295 339 340
f 297 341 322
f 299 343 324
f 296 321 342
f 301 345 326
f 300 325 344
f 298 323 355
f 302 327 337
f 295 347 350
f 301 338 332
f 297 330 352
f 300 346 334
f 316 357 352
f 316 358 357
f 310 328 359
f 316 360 334
f 316 361 360
f 312 348 362
f 314 363 350
f 314 364 363
f 320 356 365
f 314 366 332
f 314 367 366
f 311 329 368
f 319 369 355
f 319 370 369
f 309 345 371
f 319 372 337
f 319 373 372
f 305 341 374
f 308 375 326
f 308 376 375
f 307 343 377
f 308 378 344
f 308 379 378
f 309 327 380
f 306 381 324
f 306 382 381
f 303 339 383
f 306 384 342
f 306 385 384
f 307 325 386
f 304 387 340
f 304 388 387
f 305 323 389
f 304 390 322
f 304 391 390
f 303 321 392
f 392 348 312
f 392 321 348
f 321 296 348
f 390 392 312
f 390 391 392
f 391 303 392
f 322 330 297
f 322 390 330
f 390 312 330
f 389 329 311
f 389 323 329
f 323 298 329
f 387 389 311
f 387 388 389
f 388 305 389
f 340 347 295
f 340 387 347
f 387 311 347
f 386 333 315
f 386 325 333
f 325 300 333
f 384 386 315
f 384 385 386
f 385 307 386
f 342 351 296
f 342 384 351
f 384 315 351
f 383 349 313
f 383 339 349
f 339 295 349
f 381 383 313
f 381 382 383
f 382 303 383
f 324 331 299
f 324 381 331
f 381 313 331
f 380 328 310
f 380 327 328
f 327 302 328
f 378 380 310
f 378 379 380
f 379 309 380
f 344 346 300
f 344 378 346
f 378 310 346
f 377 356 320
f 377 343 356
f 343 299 356
f 375 377 320
f 375 376 377
f 376 307 377
f 326 338 301
f 326 375 338
f 375 320 338
f 374 353 317
f 374 341 353
f 341 297 353
f 372 374 317
f 372 373 374
f 373 305 374
f 337 335 302
f 337 372 335
f 372 317 335
f 371 336 318
f 371 345 336
f 345 301 336
f 369 371 318
f 369 370 371
f 370 309 371
f 355 354 298
f 355 369 354
f 369 318 354
f 368 354 318
f 368 329 354
f 329 298 354
f 366 368 318
f 366 367 368
f 367 311 368
f 332 336 301
f 332 366 336
f 366 318 336
f 365 331 313
f 365 356 331
f 356 299 331
f 363 365 313
f 363 364 365
f 364 320 365
f 350 349 295
f 350 363 349
f 363 313 349
f 362 351 315
f 362 348 351
f 348 296 351
f 360 362 315
f 360 361 362
f 361 312 362
f 334 333 300
f 334 360 333
f 360 315 333
f 359 335 317
f 359 328 335
f 328 302 335
f 357 359 317
f 357 358 359
f 358 310 359
f 352 353 297
f 352 357 353
f 357 317 353
f 334 358 316
f 334 346 358
f 346 310 358
f 352 361 316
f 352 330 361
f 330 312 361
f 332 364 314
f 332 338 364
f 338 320 364
f 350 367 314
f 350 347 367
f 347 311 367
f 337 370 319
f 337 327 370
f 327 309 370
f 355 373 319
f 355 323 373
f 323 305 373
f 344 376 308
f 344 325 376
f 325 307 376
f 326 379 308
f 326 345 379
f 345 309 379
f 342 382 306
f 342 321 382
f 321 303 382
f 324 385 306
f 324 343 385
f 343 307 385
f 322 388 304
f 322 341 388
f 341 305 388
f 340 391 304
f 340 339 391
f 339 303 391
o wing_up.002
v -0.153000 -0.045000 -0.047000
v -0.153000 -0.045000 -0.050000
v -0.153000 0.045000 -0.050000
v -0.153000 0.045000 -0.047000
v -0.353000 -0.035000 -0.047000
v -0.353000 -0.035000 -0.050000
v -0.353000 0.035000 -0.047000
v -0.353000 0.035000 -0.050000
v -0.153000 -0.045000 -0.048500
v -0.153000 0.000000 -0.048500
v -0.153000 0.045000 -0.048500
v -0.253000 -0.040000 -0.048500
v -0.353000 -0.035000 -0.048500
v -0.353000 0.000000 -0.048500
v -0.353000 0.035000 -0.048500
v -0.353000 0.000000 -0.050000
v -0.153000 0.000000 -0.047000
v -0.153000 0.000000 -0.050000
v -0.253000 -0.040000 -0.047000
v -0.253000 -0.005000 -0.047000
v -0.253000 -0.040000 -0.050000
v -0.253000 0.005000 -0.050000
v -0.253000 0.040000 -0.050000
v -0.253000 0.040000 -0.047000
v -0.253000 0.040000 -0.048500
v -0.353000 0.000000 -0.047000
v -0.153000 -0.045000 -0.049250
v -0.153000 0.022500 -0.049250
v -0.153000 0.045000 -0.047750
v -0.303000 -0.037500 -0.047750
v -0.353000 -0.035000 -0.049250
v -0.353000 0.017500 -0.047750
v -0.353000 0.035000 -0.049250
v -0.353000 0.017500 -0.050000
v -0.153000 0.022500 -0.047000
v -0.153000 0.022500 -0.050000
v -0.303000 -0.037500 -0.047000
v -0.303000 0.015000 -0.047000
v -0.303000 -0.037500 -0.050000
v -0.303000 -0.015000 -0.050000
v -0.303000 0.037500 -0.050000
v -0.303000 0.037500 -0.047000
v -0.303000 0.037500 -0.049250
v -0.353000 0.017500 -0.047000
v -0.153000 -0.045000 -0.047750
v -0.153000 -0.022500 -0.047750
v -0.153000 0.045000 -0.049250
v -0.203000 -0.042500 -0.049250
v -0.353000 -0.035000 -0.047750
v -0.353000 -0.017500 -0.049250
v -0.353000 0.035000 -0.047750
v -0.353000 -0.017500 -0.050000
v -0.153000 -0.022500 -0.047000
v -0.153000 -0.022500 -0.050000
v -0.203000 -0.042500 -0.047000
v -0.203000 -0.025000 -0.047000
v -0.203000 -0.042500 -0.050000
v -0.203000 0.025000 -0.050000
v -0.203000 0.042500 -0.050000
v -0.203000 0.042500 -0.047000
v -0.203000 0.042500 -0.047750
v -0.353000 -0.017500 -0.047000
v -0.253000 0.022500 -0.050000
v -0.303000 0.002500 -0.050000
v -0.303000 0.020000 -0.050000
v -0.253000 -0.017500 -0.050000
v -0.203000 0.002500 -0.050000
v -0.203000 -0.020000 -0.050000
v -0.253000 -0.022500 -0.047000
v -0.303000 -0.002500 -0.047000
v -0.303000 -0.020000 -0.047000
v -0.253000 0.017500 -0.047000
v -0.203000 -0.002500 -0.047000
v -0.203000 0.020000 -0.047000
v -0.253000 0.040000 -0.047750
v -0.303000 0.037500 -0.048500
v -0.303000 0.037500 -0.047750
v -0.253000 0.040000 -0.049250
v -0.203000 0.042500 -0.048500
v -0.203000 0.042500 -0.049250
v -0.353000 0.000000 -0.047750
v -0.353000 -0.017500 -0.048500
v -0.353000 -0.017500 -0.047750
v -0.353000 0.000000 -0.049250
v -0.353000 0.017500 -0.048500
v -0.353000 0.017500 -0.049250
v -0.253000 -0.040000 -0.047750
v -0.203000 -0.042500 -0.048500
v -0.203000 -0.042500 -0.047750
v -0.253000 -0.040000 -0.049250
v -0.303000 -0.037500 -0.048500
v -0.303000 -0.037500 -0.049250
v -0.153000 0.000000 -0.047750
v -0.153000 0.022500 -0.048500
v -0.153000 0.022500 -0.047750
v -0.153000 0.000000 -0.049250
v -0.153000 -0.022500 -0.048500
v -0.153000 -0.022500 -0.049250
s 0
f 393 437 438
f 395 439 420
f 397 441 422
f 394 419 440
f 399 443 424
f 398 423 442
f 396 421 453
f 400 425 435
f 393 445 448
f 399 436 430
f 395 428 450
f 398 444 432
f 414 455 450
f 414 456 455
f 408 426 457
f 414 458 432
f 414 459 458
f 410 446 460
f 412 461 448
f 412 462 461
f 418 454 463
f 412 464 430
f 412 465 464
f 409 427 466
f 417 467 453
f 417 468 467
f 407 443 469
f 417 470 435
f 417 471 470
f 403 439 472
f 406 473 424
f 406 474 473
f 405 441 475
f 406 476 442
f 406 477 476
f 407 425 478
f 404 479 422
f 404 480 479
f 401 437 481
f 404 482 440
f 404 483 482
f 405 423 484
f 402 485 438
f 402 486 485
f 403 421 487
f 402 488 420
f 402 489 488
f 401 419 490
f 490 446 410
f 490 419 446
f 419 394 446
f 488 490 410
f 488 489 490
f 489 401 490
f 420 428 395
f 420 488 428
f 488 410 428
f 487 427 409
f 487 421 427
f 421 396 427
f 485 487 409
f 485 486 487
f 486 403 487
f 438 445 393
f 438 485 445
f 485 409 445
f 484 431 413
f 484 423 431
f 423 398 431
f 482 484 413
f 482 483 484
f 483 405 484
f 440 449 394
f 440 482 449
f 482 413 449
f 481 447 411
f 481 437 447
f 437 393 447
f 479 481 411
f 479 480 481
f 480 401 481
f 422 429 397
f 422 479 429
f 479 411 429
f 478 426 408
f 478 425 426
f 425 400 426
f 476 478 408
f 476 477 478
f 477 407 478
f 442 444 398
f 442 476 444
f 476 408 444
f 475 454 418
f 475 441 454
f 441 397 454
f 473 475 418
f 473 474 475
f 474 405 475
f 424 436 399
f 424 473 436
f 473 418 436
f 472 451 415
f 472 439 451
f 439 395 451
f 470 472 415
f 470 471 472
f 471 403 472
f 435 433 400
f 435 470 433
f 470 415 433
f 469 434 416
f 469 443 434
f 443 399 434
f 467 469 416
f 467 468 469
f 468 407 469
f 453 452 396
f 453 467 452
f 467 416 452
f 466 452 416
f 466 427 452
f 427 396 452
f 464 466 416
f 464 465 466
f 465 409 466
f 430 434 399
f 430 464 434
f 464 416 434
f 463 429 411
f 463 454 429
f 454 397 429
f 461 463 411
f 461 462 463
f 462 418 463
f 448 447 393
f 448 461 447
f 461 411 447
f 460 449 413
f 460 446 449
f 446 394 449
f 458 460 413
f 458 459 460
f 459 410 460
f 432 431 398
f 432 458 431
f 458 413 431
f 457 433 415
f 457 426 433
f 426 400 433
f 455 457 415
f 455 456 457
f 456 408 457
f 450 451 395
f 450 455 451
f 455 415 451
f 432 456 414
f 432 444 456
f 444 408 456
f 450 459 414
f 450 428 459
f 428 410 459
f 430 462 412
f 430 436 462
f 436 418 462
f 448 465 412
f 448 445 465
f 445 409 465
f 435 468 417
f 435 425 468
f 425 407 468
f 453 471 417
f 453 421 471
f 421 403 471
f 442 474 406
f 442 423 474
f 423 405 474
f 424 477 406
f 424 443 477
f 443 407 477
f 440 480 404
f 440 419 480
f 419 401 480
f 422 483 404
f 422 441 483
f 441 405 483
f 420 486 402
f 420 439 486
f 439 403 486
f 438 489 402
f 438 437 489
f 437 401 489
