# Blender 4.1.1
# www.blender.org
mtllib soar_satellite.mtl
o 3
v -0.179500 0.000500 -0.050000
v -0.119500 0.000500 -0.050000
v -0.119500 -0.000500 -0.050000
v -0.179500 -0.000500 -0.050000
v -0.179500 0.000500 -0.620000
v -0.179500 0.000500 -0.050000
v -0.119500 0.000500 -0.050000
v -0.119500 0.000500 -0.620000
v -0.119500 0.000500 -0.050000
v -0.119500 0.000500 -0.620000
v -0.119500 -0.000500 -0.050000
v -0.119500 -0.000500 -0.620000
v -0.119500 -0.000500 -0.050000
v -0.119500 -0.000500 -0.620000
v -0.179500 -0.000500 -0.050000
v -0.179500 -0.000500 -0.620000
v -0.179500 0.000500 -0.620000
v -0.179500 0.000500 -0.050000
v -0.179500 -0.000500 -0.050000
v -0.179500 -0.000500 -0.620000
v -0.179500 0.000500 -0.620000
v -0.119500 0.000500 -0.620000
v -0.119500 -0.000500 -0.620000
v -0.179500 -0.000500 -0.620000
v -0.149500 0.000500 -0.050000
v -0.179500 0.000500 -0.335000
v -0.149500 0.000500 -0.335000
v -0.119500 0.000500 -0.335000
v -0.149500 0.000500 -0.620000
v -0.119500 -0.000500 -0.335000
v -0.149500 -0.000500 -0.335000
v -0.179500 -0.000500 -0.335000
v -0.149500 -0.000500 -0.620000
v -0.149500 -0.000500 -0.050000
v -0.134500 0.000500 -0.050000
v -0.179500 0.000500 -0.192500
v -0.134500 0.000500 -0.192500
v -0.119500 0.000500 -0.477500
v -0.134500 0.000500 -0.620000
v -0.119500 -0.000500 -0.477500
v -0.164500 -0.000500 -0.192500
v -0.179500 -0.000500 -0.477500
v -0.164500 -0.000500 -0.620000
v -0.164500 -0.000500 -0.050000
v -0.164500 0.000500 -0.050000
v -0.179500 0.000500 -0.477500
v -0.164500 0.000500 -0.477500
v -0.119500 0.000500 -0.192500
v -0.164500 0.000500 -0.620000
v -0.119500 -0.000500 -0.192500
v -0.134500 -0.000500 -0.477500
v -0.179500 -0.000500 -0.192500
v -0.134500 -0.000500 -0.620000
v -0.134500 -0.000500 -0.050000
v -0.149500 -0.000500 -0.477500
v -0.164500 -0.000500 -0.335000
v -0.164500 -0.000500 -0.477500
v -0.149500 -0.000500 -0.192500
v -0.134500 -0.000500 -0.335000
v -0.134500 -0.000500 -0.192500
v -0.149500 0.000500 -0.477500
v -0.134500 0.000500 -0.335000
v -0.134500 0.000500 -0.477500
v -0.149500 0.000500 -0.192500
v -0.164500 0.000500 -0.335000
v -0.164500 0.000500 -0.192500
v -0.127000 0.000500 -0.050000
v -0.179500 0.000500 -0.121250
v -0.127000 0.000500 -0.121250
v -0.119500 0.000500 -0.548750
v -0.127000 0.000500 -0.620000
v -0.119500 -0.000500 -0.548750
v -0.172000 -0.000500 -0.121250
v -0.179500 -0.000500 -0.548750
v -0.172000 -0.000500 -0.620000
v -0.172000 -0.000500 -0.050000
v -0.157000 0.000500 -0.050000
v -0.179500 0.000500 -0.406250
v -0.157000 0.000500 -0.406250
v -0.119500 0.000500 -0.263750
v -0.157000 0.000500 -0.620000
v -0.119500 -0.000500 -0.263750
v -0.142000 -0.000500 -0.406250
v -0.179500 -0.000500 -0.263750
v -0.142000 -0.000500 -0.620000
v -0.142000 -0.000500 -0.050000
v -0.149500 -0.000500 -0.548750
v -0.172000 -0.000500 -0.335000
v -0.172000 -0.000500 -0.406250
v -0.149500 -0.000500 -0.121250
v -0.127000 -0.000500 -0.335000
v -0.127000 -0.000500 -0.263750
v -0.149500 0.000500 -0.548750
v -0.127000 0.000500 -0.335000
v -0.127000 0.000500 -0.406250
v -0.149500 0.000500 -0.121250
v -0.172000 0.000500 -0.335000
v -0.172000 0.000500 -0.263750
v -0.142000 0.000500 -0.050000
v -0.179500 0.000500 -0.263750
v -0.142000 0.000500 -0.263750
v -0.119500 0.000500 -0.406250
v -0.142000 0.000500 -0.620000
v -0.119500 -0.000500 -0.406250
v -0.157000 -0.000500 -0.263750
v -0.179500 -0.000500 -0.406250
v -0.157000 -0.000500 -0.620000
v -0.157000 -0.000500 -0.050000
v -0.172000 0.000500 -0.050000
v -0.179500 0.000500 -0.548750
v -0.172000 0.000500 -0.548750
v -0.119500 0.000500 -0.121250
v -0.172000 0.000500 -0.620000
v -0.119500 -0.000500 -0.121250
v -0.127000 -0.000500 -0.548750
v -0.179500 -0.000500 -0.121250
v -0.127000 -0.000500 -0.620000
v -0.127000 -0.000500 -0.050000
v -0.149500 -0.000500 -0.406250
v -0.157000 -0.000500 -0.335000
v -0.157000 -0.000500 -0.548750
v -0.149500 -0.000500 -0.263750
v -0.142000 -0.000500 -0.335000
v -0.142000 -0.000500 -0.121250
v -0.149500 0.000500 -0.406250
v -0.142000 0.000500 -0.335000
v -0.142000 0.000500 -0.548750
v -0.149500 0.000500 -0.263750
v -0.157000 0.000500 -0.335000
v -0.157000 0.000500 -0.121250
v -0.164500 0.000500 -0.121250
v -0.172000 0.000500 -0.192500
v -0.172000 0.000500 -0.121250
v -0.157000 0.000500 -0.192500
v -0.157000 0.000500 -0.263750
v -0.164500 0.000500 -0.263750
v -0.134500 0.000500 -0.121250
v -0.142000 0.000500 -0.192500
v -0.142000 0.000500 -0.121250
v -0.134500 0.000500 -0.548750
v -0.127000 0.000500 -0.477500
v -0.127000 0.000500 -0.548750
v -0.142000 0.000500 -0.477500
v -0.142000 0.000500 -0.406250
v -0.134500 0.000500 -0.406250
v -0.164500 0.000500 -0.548750
v -0.157000 0.000500 -0.477500
v -0.157000 0.000500 -0.548750
v -0.134500 -0.000500 -0.121250
v -0.127000 -0.000500 -0.192500
v -0.127000 -0.000500 -0.121250
v -0.142000 -0.000500 -0.192500
v -0.142000 -0.000500 -0.263750
v -0.134500 -0.000500 -0.263750
v -0.164500 -0.000500 -0.121250
v -0.157000 -0.000500 -0.192500
v -0.157000 -0.000500 -0.121250
v -0.164500 -0.000500 -0.548750
v -0.172000 -0.000500 -0.477500
v -0.172000 -0.000500 -0.548750
v -0.157000 -0.000500 -0.477500
v -0.157000 -0.000500 -0.406250
v -0.164500 -0.000500 -0.406250
v -0.134500 -0.000500 -0.548750
v -0.142000 -0.000500 -0.477500
v -0.142000 -0.000500 -0.548750
v -0.164500 -0.000500 -0.263750
v -0.172000 -0.000500 -0.192500
v -0.172000 -0.000500 -0.263750
v -0.134500 -0.000500 -0.406250
v -0.127000 -0.000500 -0.477500
v -0.127000 -0.000500 -0.406250
v -0.134500 0.000500 -0.263750
v -0.127000 0.000500 -0.192500
v -0.127000 0.000500 -0.263750
v -0.164500 0.000500 -0.406250
v -0.172000 0.000500 -0.477500
v -0.172000 0.000500 -0.406250
s 0
usemtl 0.647059_0.647059_0.647059_0.000000_0.014
f 2 1 4
f 4 3 2
f 5 110 111
f 7 112 69
f 9 11 12
f 12 10 9
f 14 72 115
f 15 116 73
f 20 19 18
f 18 17 20
f 24 21 22
f 22 23 24
f 31 119 83
f 31 120 119
f 32 106 89
f 31 122 105
f 31 123 122
f 30 82 92
f 27 125 79
f 27 126 125
f 28 102 95
f 27 128 101
f 27 129 128
f 26 100 98
f 66 131 130
f 66 132 131
f 36 68 133
f 64 134 96
f 64 135 134
f 65 97 136
f 37 137 69
f 37 138 137
f 64 96 139
f 63 140 127
f 63 141 140
f 38 70 142
f 61 143 93
f 61 144 143
f 62 94 145
f 47 146 111
f 47 147 146
f 61 93 148
f 60 149 124
f 60 150 149
f 50 114 151
f 58 152 90
f 58 153 152
f 59 91 154
f 41 155 73
f 41 156 155
f 58 90 157
f 57 158 121
f 57 159 158
f 42 74 160
f 55 161 87
f 55 162 161
f 56 88 163
f 51 164 115
f 51 165 164
f 55 87 166
f 41 167 105
f 41 168 167
f 52 84 169
f 51 170 83
f 51 171 170
f 40 104 172
f 37 173 101
f 37 174 173
f 48 80 175
f 47 176 79
f 47 177 176
f 46 78 178
f 178 97 65
f 178 78 97
f 78 26 97
f 176 178 65
f 176 177 178
f 177 46 178
f 79 129 27
f 79 176 129
f 176 65 129
f 175 94 62
f 175 80 94
f 80 28 94
f 173 175 62
f 173 174 175
f 174 48 175
f 101 126 27
f 101 173 126
f 173 62 126
f 172 91 59
f 172 104 91
f 104 30 91
f 170 172 59
f 170 171 172
f 171 40 172
f 83 123 31
f 83 170 123
f 170 59 123
f 169 88 56
f 169 84 88
f 84 32 88
f 167 169 56
f 167 168 169
f 168 52 169
f 105 120 31
f 105 167 120
f 167 56 120
f 166 85 53
f 166 87 85
f 87 33 85
f 164 166 53
f 164 165 166
f 165 55 166
f 115 117 14
f 115 164 117
f 164 53 117
f 163 89 57
f 163 88 89
f 88 32 89
f 161 163 57
f 161 162 163
f 162 56 163
f 87 121 33
f 87 161 121
f 161 57 121
f 160 75 43
f 160 74 75
f 74 16 75
f 158 160 43
f 158 159 160
f 159 42 160
f 121 107 33
f 121 158 107
f 158 43 107
f 157 108 44
f 157 90 108
f 90 34 108
f 155 157 44
f 155 156 157
f 156 58 157
f 73 76 15
f 73 155 76
f 155 44 76
f 154 92 60
f 154 91 92
f 91 30 92
f 152 154 60
f 152 153 154
f 153 59 154
f 90 124 34
f 90 152 124
f 152 60 124
f 151 118 54
f 151 114 118
f 114 13 118
f 149 151 54
f 149 150 151
f 150 50 151
f 124 86 34
f 124 149 86
f 149 54 86
f 148 81 49
f 148 93 81
f 93 29 81
f 146 148 49
f 146 147 148
f 147 61 148
f 111 113 5
f 111 146 113
f 146 49 113
f 145 95 63
f 145 94 95
f 94 28 95
f 143 145 63
f 143 144 145
f 144 62 145
f 93 127 29
f 93 143 127
f 143 63 127
f 142 71 39
f 142 70 71
f 70 8 71
f 140 142 39
f 140 141 142
f 141 38 142
f 127 103 29
f 127 140 103
f 140 39 103
f 139 99 35
f 139 96 99
f 96 25 99
f 137 139 35
f 137 138 139
f 138 64 139
f 69 67 7
f 69 137 67
f 137 35 67
f 136 98 66
f 136 97 98
f 97 26 98
f 134 136 66
f 134 135 136
f 135 65 136
f 96 130 25
f 96 134 130
f 134 66 130
f 133 109 45
f 133 68 109
f 68 6 109
f 131 133 45
f 131 132 133
f 132 36 133
f 130 77 25
f 130 131 77
f 131 45 77
f 98 132 66
f 98 100 132
f 100 36 132
f 128 135 64
f 128 129 135
f 129 65 135
f 101 138 37
f 101 128 138
f 128 64 138
f 95 141 63
f 95 102 141
f 102 38 141
f 125 144 61
f 125 126 144
f 126 62 144
f 79 147 47
f 79 125 147
f 125 61 147
f 92 150 60
f 92 82 150
f 82 50 150
f 122 153 58
f 122 123 153
f 123 59 153
f 105 156 41
f 105 122 156
f 122 58 156
f 89 159 57
f 89 106 159
f 106 42 159
f 119 162 55
f 119 120 162
f 120 56 162
f 83 165 51
f 83 119 165
f 119 55 165
f 73 168 41
f 73 116 168
f 116 52 168
f 115 171 51
f 115 72 171
f 72 40 171
f 69 174 37
f 69 112 174
f 112 48 174
f 111 177 47
f 111 110 177
f 110 46 177
o 4
v -0.179500 0.050000 0.000500
v -0.119500 0.050000 0.000500
v -0.119500 0.050000 -0.000500
v -0.179500 0.050000 -0.000500
v -0.179500 0.620000 0.000500
v -0.179500 0.050000 0.000500
v -0.119500 0.050000 0.000500
v -0.119500 0.620000 0.000500
v -0.119500 0.050000 0.000500
v -0.119500 0.620000 0.000500
v -0.119500 0.050000 -0.000500
v -0.119500 0.620000 -0.000500
v -0.119500 0.050000 -0.000500
v -0.119500 0.620000 -0.000500
v -0.179500 0.050000 -0.000500
v -0.179500 0.620000 -0.000500
v -0.179500 0.620000 0.000500
v -0.179500 0.050000 0.000500
v -0.179500 0.050000 -0.000500
v -0.179500 0.620000 -0.000500
v -0.179500 0.620000 0.000500
v -0.119500 0.620000 0.000500
v -0.119500 0.620000 -0.000500
v -0.179500 0.620000 -0.000500
v -0.149500 0.050000 0.000500
v -0.179500 0.335000 0.000500
v -0.149500 0.335000 0.000500
v -0.119500 0.335000 0.000500
v -0.149500 0.620000 0.000500
v -0.119500 0.335000 -0.000500
v -0.149500 0.335000 -0.000500
v -0.179500 0.335000 -0.000500
v -0.149500 0.620000 -0.000500
v -0.149500 0.050000 -0.000500
v -0.134500 0.050000 0.000500
v -0.179500 0.192500 0.000500
v -0.134500 0.192500 0.000500
v -0.119500 0.477500 0.000500
v -0.134500 0.620000 0.000500
v -0.119500 0.477500 -0.000500
v -0.164500 0.192500 -0.000500
v -0.179500 0.477500 -0.000500
v -0.164500 0.620000 -0.000500
v -0.164500 0.050000 -0.000500
v -0.164500 0.050000 0.000500
v -0.179500 0.477500 0.000500
v -0.164500 0.477500 0.000500
v -0.119500 0.192500 0.000500
v -0.164500 0.620000 0.000500
v -0.119500 0.192500 -0.000500
v -0.134500 0.477500 -0.000500
v -0.179500 0.192500 -0.000500
v -0.134500 0.620000 -0.000500
v -0.134500 0.050000 -0.000500
v -0.149500 0.477500 -0.000500
v -0.164500 0.335000 -0.000500
v -0.164500 0.477500 -0.000500
v -0.149500 0.192500 -0.000500
v -0.134500 0.335000 -0.000500
v -0.134500 0.192500 -0.000500
v -0.149500 0.477500 0.000500
v -0.134500 0.335000 0.000500
v -0.134500 0.477500 0.000500
v -0.149500 0.192500 0.000500
v -0.164500 0.335000 0.000500
v -0.164500 0.192500 0.000500
v -0.127000 0.050000 0.000500
v -0.179500 0.121250 0.000500
v -0.127000 0.121250 0.000500
v -0.119500 0.548750 0.000500
v -0.127000 0.620000 0.000500
v -0.119500 0.548750 -0.000500
v -0.172000 0.121250 -0.000500
v -0.179500 0.548750 -0.000500
v -0.172000 0.620000 -0.000500
v -0.172000 0.050000 -0.000500
v -0.157000 0.050000 0.000500
v -0.179500 0.406250 0.000500
v -0.157000 0.406250 0.000500
v -0.119500 0.263750 0.000500
v -0.157000 0.620000 0.000500
v -0.119500 0.263750 -0.000500
v -0.142000 0.406250 -0.000500
v -0.179500 0.263750 -0.000500
v -0.142000 0.620000 -0.000500
v -0.142000 0.050000 -0.000500
v -0.149500 0.548750 -0.000500
v -0.172000 0.335000 -0.000500
v -0.172000 0.406250 -0.000500
v -0.149500 0.121250 -0.000500
v -0.127000 0.335000 -0.000500
v -0.127000 0.263750 -0.000500
v -0.149500 0.548750 0.000500
v -0.127000 0.335000 0.000500
v -0.127000 0.406250 0.000500
v -0.149500 0.121250 0.000500
v -0.172000 0.335000 0.000500
v -0.172000 0.263750 0.000500
v -0.142000 0.050000 0.000500
v -0.179500 0.263750 0.000500
v -0.142000 0.263750 0.000500
v -0.119500 0.406250 0.000500
v -0.142000 0.620000 0.000500
v -0.119500 0.406250 -0.000500
v -0.157000 0.263750 -0.000500
v -0.179500 0.406250 -0.000500
v -0.157000 0.620000 -0.000500
v -0.157000 0.050000 -0.000500
v -0.172000 0.050000 0.000500
v -0.179500 0.548750 0.000500
v -0.172000 0.548750 0.000500
v -0.119500 0.121250 0.000500
v -0.172000 0.620000 0.000500
v -0.119500 0.121250 -0.000500
v -0.127000 0.548750 -0.000500
v -0.179500 0.121250 -0.000500
v -0.127000 0.620000 -0.000500
v -0.127000 0.050000 -0.000500
v -0.149500 0.406250 -0.000500
v -0.157000 0.335000 -0.000500
v -0.157000 0.548750 -0.000500
v -0.149500 0.263750 -0.000500
v -0.142000 0.335000 -0.000500
v -0.142000 0.121250 -0.000500
v -0.149500 0.406250 0.000500
v -0.142000 0.335000 0.000500
v -0.142000 0.548750 0.000500
v -0.149500 0.263750 0.000500
v -0.157000 0.335000 0.000500
v -0.157000 0.121250 0.000500
v -0.164500 0.121250 0.000500
v -0.172000 0.192500 0.000500
v -0.172000 0.121250 0.000500
v -0.157000 0.192500 0.000500
v -0.157000 0.263750 0.000500
v -0.164500 0.263750 0.000500
v -0.134500 0.121250 0.000500
v -0.142000 0.192500 0.000500
v -0.142000 0.121250 0.000500
v -0.134500 0.548750 0.000500
v -0.127000 0.477500 0.000500
v -0.127000 0.548750 0.000500
v -0.142000 0.477500 0.000500
v -0.142000 0.406250 0.000500
v -0.134500 0.406250 0.000500
v -0.164500 0.548750 0.000500
v -0.157000 0.477500 0.000500
v -0.157000 0.548750 0.000500
v -0.134500 0.121250 -0.000500
v -0.127000 0.192500 -0.000500
v -0.127000 0.121250 -0.000500
v -0.142000 0.192500 -0.000500
v -0.142000 0.263750 -0.000500
v -0.134500 0.263750 -0.000500
v -0.164500 0.121250 -0.000500
v -0.157000 0.192500 -0.000500
v -0.157000 0.121250 -0.000500
v -0.164500 0.548750 -0.000500
v -0.172000 0.477500 -0.000500
v -0.172000 0.548750 -0.000500
v -0.157000 0.477500 -0.000500
v -0.157000 0.406250 -0.000500
v -0.164500 0.406250 -0.000500
v -0.134500 0.548750 -0.000500
v -0.142000 0.477500 -0.000500
v -0.142000 0.548750 -0.000500
v -0.164500 0.263750 -0.000500
v -0.172000 0.192500 -0.000500
v -0.172000 0.263750 -0.000500
v -0.134500 0.406250 -0.000500
v -0.127000 0.477500 -0.000500
v -0.127000 0.406250 -0.000500
v -0.134500 0.263750 0.000500
v -0.127000 0.192500 0.000500
v -0.127000 0.263750 0.000500
v -0.164500 0.406250 0.000500
v -0.172000 0.477500 0.000500
v -0.172000 0.406250 0.000500
s 0
usemtl 0.647059_0.647059_0.647059_0.000000_0.013
f 180 179 182
f 182 181 180
f 183 288 289
f 185 290 247
f 188 187 189
f 189 190 188
f 192 250 293
f 193 294 251
f 198 197 196
f 196 195 198
f 202 199 200
f 200 201 202
f 209 297 261
f 209 298 297
f 210 284 267
f 209 300 283
f 209 301 300
f 208 260 270
f 205 303 257
f 205 304 303
f 206 280 273
f 205 306 279
f 205 307 306
f 204 278 276
f 244 309 308
f 244 310 309
f 214 246 311
f 242 312 274
f 242 313 312
f 243 275 314
f 215 315 247
f 215 316 315
f 242 274 317
f 241 318 305
f 241 319 318
f 216 248 320
f 239 321 271
f 239 322 321
f 240 272 323
f 225 324 289
f 225 325 324
f 239 271 326
f 238 327 302
f 238 328 327
f 228 292 329
f 236 330 268
f 236 331 330
f 237 269 332
f 219 333 251
f 219 334 333
f 236 268 335
f 235 336 299
f 235 337 336
f 220 252 338
f 233 339 265
f 233 340 339
f 234 266 341
f 229 342 293
f 229 343 342
f 233 265 344
f 219 345 283
f 219 346 345
f 230 262 347
f 229 348 261
f 229 349 348
f 218 282 350
f 215 351 279
f 215 352 351
f 226 258 353
f 225 354 257
f 225 355 354
f 224 256 356
f 356 275 243
f 356 256 275
f 256 204 275
f 354 356 243
f 354 355 356
f 355 224 356
f 257 307 205
f 257 354 307
f 354 243 307
f 353 272 240
f 353 258 272
f 258 206 272
f 351 353 240
f 351 352 353
f 352 226 353
f 279 304 205
f 279 351 304
f 351 240 304
f 350 269 237
f 350 282 269
f 282 208 269
f 348 350 237
f 348 349 350
f 349 218 350
f 261 301 209
f 261 348 301
f 348 237 301
f 347 266 234
f 347 262 266
f 262 210 266
f 345 347 234
f 345 346 347
f 346 230 347
f 283 298 209
f 283 345 298
f 345 234 298
f 344 263 231
f 344 265 263
f 265 211 263
f 342 344 231
f 342 343 344
f 343 233 344
f 293 295 192
f 293 342 295
f 342 231 295
f 341 267 235
f 341 266 267
f 266 210 267
f 339 341 235
f 339 340 341
f 340 234 341
f 265 299 211
f 265 339 299
f 339 235 299
f 338 253 221
f 338 252 253
f 252 194 253
f 336 338 221
f 336 337 338
f 337 220 338
f 299 285 211
f 299 336 285
f 336 221 285
f 335 286 222
f 335 268 286
f 268 212 286
f 333 335 222
f 333 334 335
f 334 236 335
f 251 254 193
f 251 333 254
f 333 222 254
f 332 270 238
f 332 269 270
f 269 208 270
f 330 332 238
f 330 331 332
f 331 237 332
f 268 302 212
f 268 330 302
f 330 238 302
f 329 296 232
f 329 292 296
f 292 191 296
f 327 329 232
f 327 328 329
f 328 228 329
f 302 264 212
f 302 327 264
f 327 232 264
f 326 259 227
f 326 271 259
f 271 207 259
f 324 326 227
f 324 325 326
f 325 239 326
f 289 291 183
f 289 324 291
f 324 227 291
f 323 273 241
f 323 272 273
f 272 206 273
f 321 323 241
f 321 322 323
f 322 240 323
f 271 305 207
f 271 321 305
f 321 241 305
f 320 249 217
f 320 248 249
f 248 186 249
f 318 320 217
f 318 319 320
f 319 216 320
f 305 281 207
f 305 318 281
f 318 217 281
f 317 277 213
f 317 274 277
f 274 203 277
f 315 317 213
f 315 316 317
f 316 242 317
f 247 245 185
f 247 315 245
f 315 213 245
f 314 276 244
f 314 275 276
f 275 204 276
f 312 314 244
f 312 313 314
f 313 243 314
f 274 308 203
f 274 312 308
f 312 244 308
f 311 287 223
f 311 246 287
f 246 184 287
f 309 311 223
f 309 310 311
f 310 214 311
f 308 255 203
f 308 309 255
f 309 223 255
f 276 310 244
f 276 278 310
f 278 214 310
f 306 313 242
f 306 307 313
f 307 243 313
f 279 316 215
f 279 306 316
f 306 242 316
f 273 319 241
f 273 280 319
f 280 216 319
f 303 322 239
f 303 304 322
f 304 240 322
f 257 325 225
f 257 303 325
f 303 239 325
f 270 328 238
f 270 260 328
f 260 228 328
f 300 331 236
f 300 301 331
f 301 237 331
f 283 334 219
f 283 300 334
f 300 236 334
f 267 337 235
f 267 284 337
f 284 220 337
f 297 340 233
f 297 298 340
f 298 234 340
f 261 343 229
f 261 297 343
f 297 233 343
f 251 346 219
f 251 294 346
f 294 230 346
f 293 349 229
f 293 250 349
f 250 218 349
f 247 352 215
f 247 290 352
f 290 226 352
f 289 355 225
f 289 288 355
f 288 224 355
o 5
v -0.179500 -0.000500 0.050000
v -0.119500 -0.000500 0.050000
v -0.119500 0.000500 0.050000
v -0.179500 0.000500 0.050000
v -0.179500 -0.000500 0.620000
v -0.179500 -0.000500 0.050000
v -0.119500 -0.000500 0.050000
v -0.119500 -0.000500 0.620000
v -0.119500 -0.000500 0.050000
v -0.119500 -0.000500 0.620000
v -0.119500 0.000500 0.050000
v -0.119500 0.000500 0.620000
v -0.119500 0.000500 0.050000
v -0.119500 0.000500 0.620000
v -0.179500 0.000500 0.050000
v -0.179500 0.000500 0.620000
v -0.179500 -0.000500 0.620000
v -0.179500 -0.000500 0.050000
v -0.179500 0.000500 0.050000
v -0.179500 0.000500 0.620000
v -0.179500 -0.000500 0.620000
v -0.119500 -0.000500 0.620000
v -0.119500 0.000500 0.620000
v -0.179500 0.000500 0.620000
v -0.149500 -0.000500 0.050000
v -0.179500 -0.000500 0.335000
v -0.149500 -0.000500 0.335000
v -0.119500 -0.000500 0.335000
v -0.149500 -0.000500 0.620000
v -0.119500 0.000500 0.335000
v -0.149500 0.000500 0.335000
v -0.179500 0.000500 0.335000
v -0.149500 0.000500 0.620000
v -0.149500 0.000500 0.050000
v -0.134500 -0.000500 0.050000
v -0.179500 -0.000500 0.192500
v -0.134500 -0.000500 0.192500
v -0.119500 -0.000500 0.477500
v -0.134500 -0.000500 0.620000
v -0.119500 0.000500 0.477500
v -0.164500 0.000500 0.192500
v -0.179500 0.000500 0.477500
v -0.164500 0.000500 0.620000
v -0.164500 0.000500 0.050000
v -0.164500 -0.000500 0.050000
v -0.179500 -0.000500 0.477500
v -0.164500 -0.000500 0.477500
v -0.119500 -0.000500 0.192500
v -0.164500 -0.000500 0.620000
v -0.119500 0.000500 0.192500
v -0.134500 0.000500 0.477500
v -0.179500 0.000500 0.192500
v -0.134500 0.000500 0.620000
v -0.134500 0.000500 0.050000
v -0.149500 0.000500 0.477500
v -0.164500 0.000500 0.335000
v -0.164500 0.000500 0.477500
v -0.149500 0.000500 0.192500
v -0.134500 0.000500 0.335000
v -0.134500 0.000500 0.192500
v -0.149500 -0.000500 0.477500
v -0.134500 -0.000500 0.335000
v -0.134500 -0.000500 0.477500
v -0.149500 -0.000500 0.192500
v -0.164500 -0.000500 0.335000
v -0.164500 -0.000500 0.192500
v -0.127000 -0.000500 0.050000
v -0.179500 -0.000500 0.121250
v -0.127000 -0.000500 0.121250
v -0.119500 -0.000500 0.548750
v -0.127000 -0.000500 0.620000
v -0.119500 0.000500 0.548750
v -0.172000 0.000500 0.121250
v -0.179500 0.000500 0.548750
v -0.172000 0.000500 0.620000
v -0.172000 0.000500 0.050000
v -0.157000 -0.000500 0.050000
v -0.179500 -0.000500 0.406250
v -0.157000 -0.000500 0.406250
v -0.119500 -0.000500 0.263750
v -0.157000 -0.000500 0.620000
v -0.119500 0.000500 0.263750
v -0.142000 0.000500 0.406250
v -0.179500 0.000500 0.263750
v -0.142000 0.000500 0.620000
v -0.142000 0.000500 0.050000
v -0.149500 0.000500 0.548750
v -0.172000 0.000500 0.335000
v -0.172000 0.000500 0.406250
v -0.149500 0.000500 0.121250
v -0.127000 0.000500 0.335000
v -0.127000 0.000500 0.263750
v -0.149500 -0.000500 0.548750
v -0.127000 -0.000500 0.335000
v -0.127000 -0.000500 0.406250
v -0.149500 -0.000500 0.121250
v -0.172000 -0.000500 0.335000
v -0.172000 -0.000500 0.263750
v -0.142000 -0.000500 0.050000
v -0.179500 -0.000500 0.263750
v -0.142000 -0.000500 0.263750
v -0.119500 -0.000500 0.406250
v -0.142000 -0.000500 0.620000
v -0.119500 0.000500 0.406250
v -0.157000 0.000500 0.263750
v -0.179500 0.000500 0.406250
v -0.157000 0.000500 0.620000
v -0.157000 0.000500 0.050000
v -0.172000 -0.000500 0.050000
v -0.179500 -0.000500 0.548750
v -0.172000 -0.000500 0.548750
v -0.119500 -0.000500 0.121250
v -0.172000 -0.000500 0.620000
v -0.119500 0.000500 0.121250
v -0.127000 0.000500 0.548750
v -0.179500 0.000500 0.121250
v -0.127000 0.000500 0.620000
v -0.127000 0.000500 0.050000
v -0.149500 0.000500 0.406250
v -0.157000 0.000500 0.335000
v -0.157000 0.000500 0.548750
v -0.149500 0.000500 0.263750
v -0.142000 0.000500 0.335000
v -0.142000 0.000500 0.121250
v -0.149500 -0.000500 0.406250
v -0.142000 -0.000500 0.335000
v -0.142000 -0.000500 0.548750
v -0.149500 -0.000500 0.263750
v -0.157000 -0.000500 0.335000
v -0.157000 -0.000500 0.121250
v -0.164500 -0.000500 0.121250
v -0.172000 -0.000500 0.192500
v -0.172000 -0.000500 0.121250
v -0.157000 -0.000500 0.192500
v -0.157000 -0.000500 0.263750
v -0.164500 -0.000500 0.263750
v -0.134500 -0.000500 0.121250
v -0.142000 -0.000500 0.192500
v -0.142000 -0.000500 0.121250
v -0.134500 -0.000500 0.548750
v -0.127000 -0.000500 0.477500
v -0.127000 -0.000500 0.548750
v -0.142000 -0.000500 0.477500
v -0.142000 -0.000500 0.406250
v -0.134500 -0.000500 0.406250
v -0.164500 -0.000500 0.548750
v -0.157000 -0.000500 0.477500
v -0.157000 -0.000500 0.548750
v -0.134500 0.000500 0.121250
v -0.127000 0.000500 0.192500
v -0.127000 0.000500 0.121250
v -0.142000 0.000500 0.192500
v -0.142000 0.000500 0.263750
v -0.134500 0.000500 0.263750
v -0.164500 0.000500 0.121250
v -0.157000 0.000500 0.192500
v -0.157000 0.000500 0.121250
v -0.164500 0.000500 0.548750
v -0.172000 0.000500 0.477500
v -0.172000 0.000500 0.548750
v -0.157000 0.000500 0.477500
v -0.157000 0.000500 0.406250
v -0.164500 0.000500 0.406250
v -0.134500 0.000500 0.548750
v -0.142000 0.000500 0.477500
v -0.142000 0.000500 0.548750
v -0.164500 0.000500 0.263750
v -0.172000 0.000500 0.192500
v -0.172000 0.000500 0.263750
v -0.134500 0.000500 0.406250
v -0.127000 0.000500 0.477500
v -0.127000 0.000500 0.406250
v -0.134500 -0.000500 0.263750
v -0.127000 -0.000500 0.192500
v -0.127000 -0.000500 0.263750
v -0.164500 -0.000500 0.406250
v -0.172000 -0.000500 0.477500
v -0.172000 -0.000500 0.406250
s 0
usemtl 0.647059_0.647059_0.647059_0.000000_0.012
f 358 357 360
f 360 359 358
f 361 466 467
f 363 468 425
f 366 365 367
f 367 368 366
f 370 428 471
f 371 472 429
f 376 375 374
f 374 373 376
f 380 377 378
f 378 379 380
f 387 475 439
f 387 476 475
f 388 462 445
f 387 478 461
f 387 479 478
f 386 438 448
f 383 481 435
f 383 482 481
f 384 458 451
f 383 484 457
f 383 485 484
f 382 456 454
f 422 487 486
f 422 488 487
f 392 424 489
f 420 490 452
f 420 491 490
f 421 453 492
f 393 493 425
f 393 494 493
f 420 452 495
f 419 496 483
f 419 497 496
f 394 426 498
f 417 499 449
f 417 500 499
f 418 450 501
f 403 502 467
f 403 503 502
f 417 449 504
f 416 505 480
f 416 506 505
f 406 470 507
f 414 508 446
f 414 509 508
f 415 447 510
f 397 511 429
f 397 512 511
f 414 446 513
f 413 514 477
f 413 515 514
f 398 430 516
f 411 517 443
f 411 518 517
f 412 444 519
f 407 520 471
f 407 521 520
f 411 443 522
f 397 523 461
f 397 524 523
f 408 440 525
f 407 526 439
f 407 527 526
f 396 460 528
f 393 529 457
f 393 530 529
f 404 436 531
f 403 532 435
f 403 533 532
f 402 434 534
f 534 453 421
f 534 434 453
f 434 382 453
f 532 534 421
f 532 533 534
f 533 402 534
f 435 485 383
f 435 532 485
f 532 421 485
f 531 450 418
f 531 436 450
f 436 384 450
f 529 531 418
f 529 530 531
f 530 404 531
f 457 482 383
f 457 529 482
f 529 418 482
f 528 447 415
f 528 460 447
f 460 386 447
f 526 528 415
f 526 527 528
f 527 396 528
f 439 479 387
f 439 526 479
f 526 415 479
f 525 444 412
f 525 440 444
f 440 388 444
f 523 525 412
f 523 524 525
f 524 408 525
f 461 476 387
f 461 523 476
f 523 412 476
f 522 441 409
f 522 443 441
f 443 389 441
f 520 522 409
f 520 521 522
f 521 411 522
f 471 473 370
f 471 520 473
f 520 409 473
f 519 445 413
f 519 444 445
f 444 388 445
f 517 519 413
f 517 518 519
f 518 412 519
f 443 477 389
f 443 517 477
f 517 413 477
f 516 431 399
f 516 430 431
f 430 372 431
f 514 516 399
f 514 515 516
f 515 398 516
f 477 463 389
f 477 514 463
f 514 399 463
f 513 464 400
f 513 446 464
f 446 390 464
f 511 513 400
f 511 512 513
f 512 414 513
f 429 432 371
f 429 511 432
f 511 400 432
f 510 448 416
f 510 447 448
f 447 386 448
f 508 510 416
f 508 509 510
f 509 415 510
f 446 480 390
f 446 508 480
f 508 416 480
f 507 474 410
f 507 470 474
f 470 369 474
f 505 507 410
f 505 506 507
f 506 406 507
f 480 442 390
f 480 505 442
f 505 410 442
f 504 437 405
f 504 449 437
f 449 385 437
f 502 504 405
f 502 503 504
f 503 417 504
f 467 469 361
f 467 502 469
f 502 405 469
f 501 451 419
f 501 450 451
f 450 384 451
f 499 501 419
f 499 500 501
f 500 418 501
f 449 483 385
f 449 499 483
f 499 419 483
f 498 427 395
f 498 426 427
f 426 364 427
f 496 498 395
f 496 497 498
f 497 394 498
f 483 459 385
f 483 496 459
f 496 395 459
f 495 455 391
f 495 452 455
f 452 381 455
f 493 495 391
f 493 494 495
f 494 420 495
f 425 423 363
f 425 493 423
f 493 391 423
f 492 454 422
f 492 453 454
f 453 382 454
f 490 492 422
f 490 491 492
f 491 421 492
f 452 486 381
f 452 490 486
f 490 422 486
f 489 465 401
f 489 424 465
f 424 362 465
f 487 489 401
f 487 488 489
f 488 392 489
f 486 433 381
f 486 487 433
f 487 401 433
f 454 488 422
f 454 456 488
f 456 392 488
f 484 491 420
f 484 485 491
f 485 421 491
f 457 494 393
f 457 484 494
f 484 420 494
f 451 497 419
f 451 458 497
f 458 394 497
f 481 500 417
f 481 482 500
f 482 418 500
f 435 503 403
f 435 481 503
f 481 417 503
f 448 506 416
f 448 438 506
f 438 406 506
f 478 509 414
f 478 479 509
f 479 415 509
f 461 512 397
f 461 478 512
f 478 414 512
f 445 515 413
f 445 462 515
f 462 398 515
f 475 518 411
f 475 476 518
f 476 412 518
f 439 521 407
f 439 475 521
f 475 411 521
f 429 524 397
f 429 472 524
f 472 408 524
f 471 527 407
f 471 428 527
f 428 396 527
f 425 530 393
f 425 468 530
f 468 404 530
f 467 533 403
f 467 466 533
f 466 402 533
o 2
v -0.179500 -0.050000 -0.000500
v -0.119500 -0.050000 -0.000500
v -0.119500 -0.050000 0.000500
v -0.179500 -0.050000 0.000500
v -0.179500 -0.620000 -0.000500
v -0.179500 -0.050000 -0.000500
v -0.119500 -0.050000 -0.000500
v -0.119500 -0.620000 -0.000500
v -0.119500 -0.050000 -0.000500
v -0.119500 -0.620000 -0.000500
v -0.119500 -0.050000 0.000500
v -0.119500 -0.620000 0.000500
v -0.119500 -0.050000 0.000500
v -0.119500 -0.620000 0.000500
v -0.179500 -0.050000 0.000500
v -0.179500 -0.620000 0.000500
v -0.179500 -0.620000 -0.000500
v -0.179500 -0.050000 -0.000500
v -0.179500 -0.050000 0.000500
v -0.179500 -0.620000 0.000500
v -0.179500 -0.620000 -0.000500
v -0.119500 -0.620000 -0.000500
v -0.119500 -0.620000 0.000500
v -0.179500 -0.620000 0.000500
v -0.149500 -0.050000 -0.000500
v -0.179500 -0.335000 -0.000500
v -0.149500 -0.335000 -0.000500
v -0.119500 -0.335000 -0.000500
v -0.149500 -0.620000 -0.000500
v -0.119500 -0.335000 0.000500
v -0.149500 -0.335000 0.000500
v -0.179500 -0.335000 0.000500
v -0.149500 -0.620000 0.000500
v -0.149500 -0.050000 0.000500
v -0.134500 -0.050000 -0.000500
v -0.179500 -0.192500 -0.000500
v -0.134500 -0.192500 -0.000500
v -0.119500 -0.477500 -0.000500
v -0.134500 -0.620000 -0.000500
v -0.119500 -0.477500 0.000500
v -0.164500 -0.192500 0.000500
v -0.179500 -0.477500 0.000500
v -0.164500 -0.620000 0.000500
v -0.164500 -0.050000 0.000500
v -0.164500 -0.050000 -0.000500
v -0.179500 -0.477500 -0.000500
v -0.164500 -0.477500 -0.000500
v -0.119500 -0.192500 -0.000500
v -0.164500 -0.620000 -0.000500
v -0.119500 -0.192500 0.000500
v -0.134500 -0.477500 0.000500
v -0.179500 -0.192500 0.000500
v -0.134500 -0.620000 0.000500
v -0.134500 -0.050000 0.000500
v -0.149500 -0.477500 0.000500
v -0.164500 -0.335000 0.000500
v -0.164500 -0.477500 0.000500
v -0.149500 -0.192500 0.000500
v -0.134500 -0.335000 0.000500
v -0.134500 -0.192500 0.000500
v -0.149500 -0.477500 -0.000500
v -0.134500 -0.335000 -0.000500
v -0.134500 -0.477500 -0.000500
v -0.149500 -0.192500 -0.000500
v -0.164500 -0.335000 -0.000500
v -0.164500 -0.192500 -0.000500
v -0.127000 -0.050000 -0.000500
v -0.179500 -0.121250 -0.000500
v -0.127000 -0.121250 -0.000500
v -0.119500 -0.548750 -0.000500
v -0.127000 -0.620000 -0.000500
v -0.119500 -0.548750 0.000500
v -0.172000 -0.121250 0.000500
v -0.179500 -0.548750 0.000500
v -0.172000 -0.620000 0.000500
v -0.172000 -0.050000 0.000500
v -0.157000 -0.050000 -0.000500
v -0.179500 -0.406250 -0.000500
v -0.157000 -0.406250 -0.000500
v -0.119500 -0.263750 -0.000500
v -0.157000 -0.620000 -0.000500
v -0.119500 -0.263750 0.000500
v -0.142000 -0.406250 0.000500
v -0.179500 -0.263750 0.000500
v -0.142000 -0.620000 0.000500
v -0.142000 -0.050000 0.000500
v -0.149500 -0.548750 0.000500
v -0.172000 -0.335000 0.000500
v -0.172000 -0.406250 0.000500
v -0.149500 -0.121250 0.000500
v -0.127000 -0.335000 0.000500
v -0.127000 -0.263750 0.000500
v -0.149500 -0.548750 -0.000500
v -0.127000 -0.335000 -0.000500
v -0.127000 -0.406250 -0.000500
v -0.149500 -0.121250 -0.000500
v -0.172000 -0.335000 -0.000500
v -0.172000 -0.263750 -0.000500
v -0.142000 -0.050000 -0.000500
v -0.179500 -0.263750 -0.000500
v -0.142000 -0.263750 -0.000500
v -0.119500 -0.406250 -0.000500
v -0.142000 -0.620000 -0.000500
v -0.119500 -0.406250 0.000500
v -0.157000 -0.263750 0.000500
v -0.179500 -0.406250 0.000500
v -0.157000 -0.620000 0.000500
v -0.157000 -0.050000 0.000500
v -0.172000 -0.050000 -0.000500
v -0.179500 -0.548750 -0.000500
v -0.172000 -0.548750 -0.000500
v -0.119500 -0.121250 -0.000500
v -0.172000 -0.620000 -0.000500
v -0.119500 -0.121250 0.000500
v -0.127000 -0.548750 0.000500
v -0.179500 -0.121250 0.000500
v -0.127000 -0.620000 0.000500
v -0.127000 -0.050000 0.000500
v -0.149500 -0.406250 0.000500
v -0.157000 -0.335000 0.000500
v -0.157000 -0.548750 0.000500
v -0.149500 -0.263750 0.000500
v -0.142000 -0.335000 0.000500
v -0.142000 -0.121250 0.000500
v -0.149500 -0.406250 -0.000500
v -0.142000 -0.335000 -0.000500
v -0.142000 -0.548750 -0.000500
v -0.149500 -0.263750 -0.000500
v -0.157000 -0.335000 -0.000500
v -0.157000 -0.121250 -0.000500
v -0.164500 -0.121250 -0.000500
v -0.172000 -0.192500 -0.000500
v -0.172000 -0.121250 -0.000500
v -0.157000 -0.192500 -0.000500
v -0.157000 -0.263750 -0.000500
v -0.164500 -0.263750 -0.000500
v -0.134500 -0.121250 -0.000500
v -0.142000 -0.192500 -0.000500
v -0.142000 -0.121250 -0.000500
v -0.134500 -0.548750 -0.000500
v -0.127000 -0.477500 -0.000500
v -0.127000 -0.548750 -0.000500
v -0.142000 -0.477500 -0.000500
v -0.142000 -0.406250 -0.000500
v -0.134500 -0.406250 -0.000500
v -0.164500 -0.548750 -0.000500
v -0.157000 -0.477500 -0.000500
v -0.157000 -0.548750 -0.000500
v -0.134500 -0.121250 0.000500
v -0.127000 -0.192500 0.000500
v -0.127000 -0.121250 0.000500
v -0.142000 -0.192500 0.000500
v -0.142000 -0.263750 0.000500
v -0.134500 -0.263750 0.000500
v -0.164500 -0.121250 0.000500
v -0.157000 -0.192500 0.000500
v -0.157000 -0.121250 0.000500
v -0.164500 -0.548750 0.000500
v -0.172000 -0.477500 0.000500
v -0.172000 -0.548750 0.000500
v -0.157000 -0.477500 0.000500
v -0.157000 -0.406250 0.000500
v -0.164500 -0.406250 0.000500
v -0.134500 -0.548750 0.000500
v -0.142000 -0.477500 0.000500
v -0.142000 -0.548750 0.000500
v -0.164500 -0.263750 0.000500
v -0.172000 -0.192500 0.000500
v -0.172000 -0.263750 0.000500
v -0.134500 -0.406250 0.000500
v -0.127000 -0.477500 0.000500
v -0.127000 -0.406250 0.000500
v -0.134500 -0.263750 -0.000500
v -0.127000 -0.192500 -0.000500
v -0.127000 -0.263750 -0.000500
v -0.164500 -0.406250 -0.000500
v -0.172000 -0.477500 -0.000500
v -0.172000 -0.406250 -0.000500
s 0
usemtl 0.647059_0.647059_0.647059_0.000000_0.015
f 536 535 538
f 538 537 536
f 539 644 645
f 541 646 603
f 543 545 546
f 546 544 543
f 548 606 649
f 549 650 607
f 554 553 552
f 552 551 554
f 558 555 556
f 556 557 558
f 565 653 617
f 565 654 653
f 566 640 623
f 565 656 639
f 565 657 656
f 564 616 626
f 561 659 613
f 561 660 659
f 562 636 629
f 561 662 635
f 561 663 662
f 560 634 632
f 600 665 664
f 600 666 665
f 570 602 667
f 598 668 630
f 598 669 668
f 599 631 670
f 571 671 603
f 571 672 671
f 598 630 673
f 597 674 661
f 597 675 674
f 572 604 676
f 595 677 627
f 595 678 677
f 596 628 679
f 581 680 645
f 581 681 680
f 595 627 682
f 594 683 658
f 594 684 683
f 584 648 685
f 592 686 624
f 592 687 686
f 593 625 688
f 575 689 607
f 575 690 689
f 592 624 691
f 591 692 655
f 591 693 692
f 576 608 694
f 589 695 621
f 589 696 695
f 590 622 697
f 585 698 649
f 585 699 698
f 589 621 700
f 575 701 639
f 575 702 701
f 586 618 703
f 585 704 617
f 585 705 704
f 574 638 706
f 571 707 635
f 571 708 707
f 582 614 709
f 581 710 613
f 581 711 710
f 580 612 712
f 712 631 599
f 712 612 631
f 612 560 631
f 710 712 599
f 710 711 712
f 711 580 712
f 613 663 561
f 613 710 663
f 710 599 663
f 709 628 596
f 709 614 628
f 614 562 628
f 707 709 596
f 707 708 709
f 708 582 709
f 635 660 561
f 635 707 660
f 707 596 660
f 706 625 593
f 706 638 625
f 638 564 625
f 704 706 593
f 704 705 706
f 705 574 706
f 617 657 565
f 617 704 657
f 704 593 657
f 703 622 590
f 703 618 622
f 618 566 622
f 701 703 590
f 701 702 703
f 702 586 703
f 639 654 565
f 639 701 654
f 701 590 654
f 700 619 587
f 700 621 619
f 621 567 619
f 698 700 587
f 698 699 700
f 699 589 700
f 649 651 548
f 649 698 651
f 698 587 651
f 697 623 591
f 697 622 623
f 622 566 623
f 695 697 591
f 695 696 697
f 696 590 697
f 621 655 567
f 621 695 655
f 695 591 655
f 694 609 577
f 694 608 609
f 608 550 609
f 692 694 577
f 692 693 694
f 693 576 694
f 655 641 567
f 655 692 641
f 692 577 641
f 691 642 578
f 691 624 642
f 624 568 642
f 689 691 578
f 689 690 691
f 690 592 691
f 607 610 549
f 607 689 610
f 689 578 610
f 688 626 594
f 688 625 626
f 625 564 626
f 686 688 594
f 686 687 688
f 687 593 688
f 624 658 568
f 624 686 658
f 686 594 658
f 685 652 588
f 685 648 652
f 648 547 652
f 683 685 588
f 683 684 685
f 684 584 685
f 658 620 568
f 658 683 620
f 683 588 620
f 682 615 583
f 682 627 615
f 627 563 615
f 680 682 583
f 680 681 682
f 681 595 682
f 645 647 539
f 645 680 647
f 680 583 647
f 679 629 597
f 679 628 629
f 628 562 629
f 677 679 597
f 677 678 679
f 678 596 679
f 627 661 563
f 627 677 661
f 677 597 661
f 676 605 573
f 676 604 605
f 604 542 605
f 674 676 573
f 674 675 676
f 675 572 676
f 661 637 563
f 661 674 637
f 674 573 637
f 673 633 569
f 673 630 633
f 630 559 633
f 671 673 569
f 671 672 673
f 672 598 673
f 603 601 541
f 603 671 601
f 671 569 601
f 670 632 600
f 670 631 632
f 631 560 632
f 668 670 600
f 668 669 670
f 669 599 670
f 630 664 559
f 630 668 664
f 668 600 664
f 667 643 579
f 667 602 643
f 602 540 643
f 665 667 579
f 665 666 667
f 666 570 667
f 664 611 559
f 664 665 611
f 665 579 611
f 632 666 600
f 632 634 666
f 634 570 666
f 662 669 598
f 662 663 669
f 663 599 669
f 635 672 571
f 635 662 672
f 662 598 672
f 629 675 597
f 629 636 675
f 636 572 675
f 659 678 595
f 659 660 678
f 660 596 678
f 613 681 581
f 613 659 681
f 659 595 681
f 626 684 594
f 626 616 684
f 616 584 684
f 656 687 592
f 656 657 687
f 657 593 687
f 639 690 575
f 639 656 690
f 656 592 690
f 623 693 591
f 623 640 693
f 640 576 693
f 653 696 589
f 653 654 696
f 654 590 696
f 617 699 585
f 617 653 699
f 653 589 699
f 607 702 575
f 607 650 702
f 650 586 702
f 649 705 585
f 649 606 705
f 606 574 705
f 603 708 571
f 603 646 708
f 646 582 708
f 645 711 581
f 645 644 711
f 644 580 711
o 1
v -0.179500 -0.050000 -0.050000
v -0.179500 -0.050000 0.050000
v -0.179500 0.050000 -0.050000
v -0.179500 0.050000 0.050000
v 0.186500 -0.008836 0.041571
v 0.186500 -0.017286 0.038826
v 0.186500 -0.024981 0.034383
v 0.186500 -0.031584 0.028438
v 0.186500 -0.036806 0.021250
v 0.186500 -0.040420 0.013133
v 0.186500 -0.042267 0.004442
v 0.186500 -0.042267 -0.004442
v 0.186500 -0.040420 -0.013133
v 0.186500 -0.036806 -0.021250
v 0.186500 -0.031584 -0.028438
v 0.186500 -0.024981 -0.034383
v 0.186500 -0.017286 -0.038826
v 0.186500 -0.008836 -0.041571
v 0.186500 -0.000000 -0.042500
v 0.186500 0.008836 -0.041571
v 0.186500 0.017286 -0.038826
v 0.186500 0.024981 -0.034383
v 0.186500 0.031584 -0.028438
v 0.186500 0.036806 -0.021250
v 0.186500 0.040420 -0.013133
v 0.186500 0.042267 -0.004442
v 0.186500 0.042267 0.004442
v 0.186500 0.040420 0.013133
v 0.186500 0.036806 0.021250
v 0.186500 0.031584 0.028438
v 0.186500 0.024981 0.034383
v 0.186500 0.017286 0.038826
v 0.186500 0.008836 0.041571
v 0.186500 0.000000 0.042500
v 0.186500 0.000000 0.000000
v 0.186500 -0.008836 0.041571
v 0.186500 -0.017286 0.038826
v 0.186500 -0.024981 0.034383
v 0.186500 -0.031584 0.028438
v 0.186500 -0.036806 0.021250
v 0.186500 -0.040420 0.013133
v 0.186500 -0.042267 0.004442
v 0.186500 -0.042267 -0.004442
v 0.186500 -0.040420 -0.013133
v 0.186500 -0.036806 -0.021250
v 0.186500 -0.031584 -0.028438
v 0.186500 -0.024981 -0.034383
v 0.186500 -0.017286 -0.038826
v 0.186500 -0.008836 -0.041571
v 0.186500 -0.000000 -0.042500
v 0.186500 0.008836 -0.041571
v 0.186500 0.017286 -0.038826
v 0.186500 0.024981 -0.034383
v 0.186500 0.031584 -0.028438
v 0.186500 0.036806 -0.021250
v 0.186500 0.040420 -0.013133
v 0.186500 0.042267 -0.004442
v 0.186500 0.042267 0.004442
v 0.186500 0.040420 0.013133
v 0.186500 0.036806 0.021250
v 0.186500 0.031584 0.028438
v 0.186500 0.024981 0.034383
v 0.186500 0.017286 0.038826
v 0.186500 0.008836 0.041571
v 0.186500 0.000000 0.042500
v 0.161000 -0.000000 -0.042500
v 0.161000 -0.008836 -0.041571
v 0.161000 -0.017286 -0.038826
v 0.161000 -0.024981 -0.034383
v 0.161000 -0.031584 -0.028438
v 0.161000 -0.036806 -0.021250
v 0.161000 -0.040420 -0.013133
v 0.161000 -0.042267 -0.004442
v 0.161000 -0.042267 0.004442
v 0.161000 -0.040420 0.013133
v 0.161000 -0.036806 0.021250
v 0.161000 -0.031584 0.028438
v 0.161000 -0.024981 0.034383
v 0.161000 -0.017286 0.038826
v 0.161000 -0.008836 0.041571
v 0.161000 0.000000 0.042500
v 0.161000 0.008836 0.041571
v 0.161000 0.017286 0.038826
v 0.161000 0.024981 0.034383
v 0.161000 0.031584 0.028438
v 0.161000 0.036806 0.021250
v 0.161000 0.040420 0.013133
v 0.161000 0.042267 0.004442
v 0.161000 0.042267 -0.004442
v 0.161000 0.040420 -0.013133
v 0.161000 0.036806 -0.021250
v 0.161000 0.031584 -0.028438
v 0.161000 0.024981 -0.034383
v 0.161000 0.017286 -0.038826
v 0.161000 0.008836 -0.041571
v 0.161000 -0.000000 -0.042500
v 0.161000 -0.008836 -0.041571
v 0.161000 -0.017286 -0.038826
v 0.161000 -0.024981 -0.034383
v 0.161000 -0.031584 -0.028438
v 0.161000 -0.036806 -0.021250
v 0.161000 -0.040420 -0.013133
v 0.161000 -0.042267 -0.004442
v 0.161000 -0.042267 0.004442
v 0.161000 -0.040420 0.013133
v 0.161000 -0.036806 0.021250
v 0.161000 -0.031584 0.028438
v 0.161000 -0.024981 0.034383
v 0.161000 -0.017286 0.038826
v 0.161000 -0.008836 0.041571
v 0.161000 0.000000 0.042500
v 0.161000 0.008836 0.041571
v 0.161000 0.017286 0.038826
v 0.161000 0.024981 0.034383
v 0.161000 0.031584 0.028438
v 0.161000 0.036806 0.021250
v 0.161000 0.040420 0.013133
v 0.161000 0.042267 0.004442
v 0.161000 0.042267 -0.004442
v 0.161000 0.040420 -0.013133
v 0.161000 0.036806 -0.021250
v 0.161000 0.031584 -0.028438
v 0.161000 0.024981 -0.034383
v 0.161000 0.017286 -0.038826
v 0.161000 0.008836 -0.041571
v 0.161000 0.050000 -0.050000
v 0.161000 -0.050000 0.050000
v 0.161000 -0.050000 -0.050000
v 0.161000 0.050000 0.050000
v 0.161000 -0.050000 0.050000
v 0.161000 -0.050000 -0.050000
v -0.179500 -0.050000 -0.050000
v -0.179500 -0.050000 0.050000
v 0.161000 0.050000 -0.050000
v 0.161000 -0.050000 -0.050000
v -0.179500 -0.050000 -0.050000
v -0.179500 0.050000 -0.050000
v 0.161000 0.050000 -0.050000
v 0.161000 0.050000 0.050000
v -0.179500 0.050000 -0.050000
v -0.179500 0.050000 0.050000
v 0.161000 -0.050000 0.050000
v 0.161000 0.050000 0.050000
v -0.179500 -0.050000 0.050000
v -0.179500 0.050000 0.050000
v -0.009250 -0.050000 -0.050000
v 0.161000 -0.050000 0.000000
v -0.009250 -0.050000 0.000000
v -0.009250 -0.050000 0.050000
v -0.179500 -0.050000 0.000000
v -0.179500 -0.000000 -0.050000
v 0.161000 -0.000000 -0.050000
v -0.009250 -0.050000 -0.050000
v -0.009250 0.050000 -0.050000
v -0.009250 -0.000000 -0.050000
v -0.179500 0.000000 0.050000
v 0.161000 0.000000 0.050000
v -0.009250 0.000000 0.050000
v -0.009250 0.050000 0.050000
v -0.009250 -0.050000 0.050000
v -0.094375 -0.050000 -0.050000
v 0.161000 -0.050000 -0.025000
v -0.094375 -0.050000 -0.025000
v -0.094375 -0.050000 0.050000
v -0.179500 -0.050000 0.025000
v -0.179500 0.025000 -0.050000
v 0.161000 -0.025000 -0.050000
v -0.094375 -0.050000 -0.050000
v -0.094375 0.050000 -0.050000
v -0.094375 0.025000 -0.050000
v -0.179500 0.025000 0.050000
v 0.161000 0.025000 0.050000
v -0.094375 -0.025000 0.050000
v -0.094375 0.050000 0.050000
v -0.094375 -0.050000 0.050000
v 0.075875 -0.050000 -0.050000
v 0.161000 -0.050000 0.025000
v 0.075875 -0.050000 0.025000
v 0.075875 -0.050000 0.050000
v -0.179500 -0.050000 -0.025000
v -0.179500 -0.025000 -0.050000
v 0.161000 0.025000 -0.050000
v 0.075875 -0.050000 -0.050000
v 0.075875 0.050000 -0.050000
v 0.075875 -0.025000 -0.050000
v -0.179500 -0.025000 0.050000
v 0.161000 -0.025000 0.050000
v 0.075875 0.025000 0.050000
v 0.075875 0.050000 0.050000
v 0.075875 -0.050000 0.050000
v -0.094375 0.000000 0.050000
v -0.009250 0.025000 0.050000
v -0.094375 0.025000 0.050000
v 0.075875 0.000000 0.050000
v -0.009250 -0.025000 0.050000
v 0.075875 -0.025000 0.050000
v -0.094375 -0.000000 -0.050000
v -0.009250 -0.025000 -0.050000
v -0.094375 -0.025000 -0.050000
v 0.075875 -0.000000 -0.050000
v -0.009250 0.025000 -0.050000
v 0.075875 0.025000 -0.050000
v -0.094375 -0.050000 0.000000
v -0.009250 -0.050000 0.025000
v -0.094375 -0.050000 0.025000
v 0.075875 -0.050000 0.000000
v -0.009250 -0.050000 -0.025000
v 0.075875 -0.050000 -0.025000
v -0.136938 -0.050000 -0.050000
v 0.161000 -0.050000 -0.037500
v -0.136938 -0.050000 -0.037500
v -0.136938 -0.050000 0.050000
v -0.179500 -0.050000 0.037500
v -0.179500 0.037500 -0.050000
v 0.161000 -0.037500 -0.050000
v -0.136938 -0.050000 -0.050000
v -0.136938 0.050000 -0.050000
v -0.136938 0.037500 -0.050000
v -0.179500 0.037500 0.050000
v 0.161000 0.037500 0.050000
v -0.136938 -0.037500 0.050000
v -0.136938 0.050000 0.050000
v -0.136938 -0.050000 0.050000
v 0.033313 -0.050000 -0.050000
v 0.161000 -0.050000 0.012500
v 0.033313 -0.050000 0.012500
v 0.033313 -0.050000 0.050000
v -0.179500 -0.050000 -0.012500
v -0.179500 -0.012500 -0.050000
v 0.161000 0.012500 -0.050000
v 0.033313 -0.050000 -0.050000
v 0.033313 0.050000 -0.050000
v 0.033313 -0.012500 -0.050000
v -0.179500 -0.012500 0.050000
v 0.161000 -0.012500 0.050000
v 0.033313 0.012500 0.050000
v 0.033313 0.050000 0.050000
v 0.033313 -0.050000 0.050000
v -0.136938 0.000000 0.050000
v -0.009250 0.037500 0.050000
v -0.051812 0.037500 0.050000
v 0.118438 0.000000 0.050000
v -0.009250 -0.037500 0.050000
v 0.033313 -0.037500 0.050000
v -0.136938 -0.000000 -0.050000
v -0.009250 -0.037500 -0.050000
v -0.051812 -0.037500 -0.050000
v 0.118438 -0.000000 -0.050000
v -0.009250 0.037500 -0.050000
v 0.033313 0.037500 -0.050000
v -0.136938 -0.050000 0.000000
v -0.009250 -0.050000 0.037500
v -0.051812 -0.050000 0.037500
v 0.118438 -0.050000 0.000000
v -0.009250 -0.050000 -0.037500
v 0.033313 -0.050000 -0.037500
v -0.051812 -0.050000 -0.050000
v 0.161000 -0.050000 -0.012500
v -0.051812 -0.050000 -0.012500
v -0.051812 -0.050000 0.050000
v -0.179500 -0.050000 0.012500
v -0.179500 0.012500 -0.050000
v 0.161000 -0.012500 -0.050000
v -0.051812 -0.050000 -0.050000
v -0.051812 0.050000 -0.050000
v -0.051812 0.012500 -0.050000
v -0.179500 0.012500 0.050000
v 0.161000 0.012500 0.050000
v -0.051812 -0.012500 0.050000
v -0.051812 0.050000 0.050000
v -0.051812 -0.050000 0.050000
v 0.118438 -0.050000 -0.050000
v 0.161000 -0.050000 0.037500
v 0.118438 -0.050000 0.037500
v 0.118438 -0.050000 0.050000
v -0.179500 -0.050000 -0.037500
v -0.179500 -0.037500 -0.050000
v 0.161000 0.037500 -0.050000
v 0.118438 -0.050000 -0.050000
v 0.118438 0.050000 -0.050000
v 0.118438 -0.037500 -0.050000
v -0.179500 -0.037500 0.050000
v 0.161000 -0.037500 0.050000
v 0.118438 0.037500 0.050000
v 0.118438 0.050000 0.050000
v 0.118438 -0.050000 0.050000
v -0.051812 0.000000 0.050000
v -0.009250 0.012500 0.050000
v -0.136938 0.012500 0.050000
v 0.033313 0.000000 0.050000
v -0.009250 -0.012500 0.050000
v 0.118438 -0.012500 0.050000
v -0.051812 -0.000000 -0.050000
v -0.009250 -0.012500 -0.050000
v -0.136938 -0.012500 -0.050000
v 0.033313 -0.000000 -0.050000
v -0.009250 0.012500 -0.050000
v 0.118438 0.012500 -0.050000
v -0.051812 -0.050000 0.000000
v -0.009250 -0.050000 0.012500
v -0.136938 -0.050000 0.012500
v 0.033313 -0.050000 0.000000
v -0.009250 -0.050000 -0.012500
v 0.118438 -0.050000 -0.012500
v 0.118438 -0.050000 -0.025000
v 0.075875 -0.050000 -0.037500
v 0.118438 -0.050000 -0.037500
v 0.075875 -0.050000 -0.012500
v 0.033313 -0.050000 -0.012500
v 0.033313 -0.050000 -0.025000
v 0.118438 -0.050000 0.025000
v 0.075875 -0.050000 0.012500
v 0.118438 -0.050000 0.012500
v -0.136938 -0.050000 0.025000
v -0.094375 -0.050000 0.037500
v -0.136938 -0.050000 0.037500
v -0.094375 -0.050000 0.012500
v -0.051812 -0.050000 0.012500
v -0.051812 -0.050000 0.025000
v -0.136938 -0.050000 -0.025000
v -0.094375 -0.050000 -0.012500
v -0.136938 -0.050000 -0.012500
v 0.118438 0.025000 -0.050000
v 0.075875 0.037500 -0.050000
v 0.118438 0.037500 -0.050000
v 0.075875 0.012500 -0.050000
v 0.033313 0.012500 -0.050000
v 0.033313 0.025000 -0.050000
v 0.118438 -0.025000 -0.050000
v 0.075875 -0.012500 -0.050000
v 0.118438 -0.012500 -0.050000
v -0.136938 -0.025000 -0.050000
v -0.094375 -0.037500 -0.050000
v -0.136938 -0.037500 -0.050000
v -0.094375 -0.012500 -0.050000
v -0.051812 -0.012500 -0.050000
v -0.051812 -0.025000 -0.050000
v -0.136938 0.025000 -0.050000
v -0.094375 0.012500 -0.050000
v -0.136938 0.012500 -0.050000
v 0.118438 -0.025000 0.050000
v 0.075875 -0.037500 0.050000
v 0.118438 -0.037500 0.050000
v 0.075875 -0.012500 0.050000
v 0.033313 -0.012500 0.050000
v 0.033313 -0.025000 0.050000
v 0.118438 0.025000 0.050000
v 0.075875 0.012500 0.050000
v 0.118438 0.012500 0.050000
v -0.136938 0.025000 0.050000
v -0.094375 0.037500 0.050000
v -0.136938 0.037500 0.050000
v -0.094375 0.012500 0.050000
v -0.051812 0.012500 0.050000
v -0.051812 0.025000 0.050000
v -0.136938 -0.025000 0.050000
v -0.094375 -0.012500 0.050000
v -0.136938 -0.012500 0.050000
v 0.033313 0.025000 0.050000
v 0.075875 0.037500 0.050000
v 0.033313 0.037500 0.050000
v -0.051812 -0.025000 0.050000
v -0.094375 -0.037500 0.050000
v -0.051812 -0.037500 0.050000
v 0.033313 -0.025000 -0.050000
v 0.075875 -0.037500 -0.050000
v 0.033313 -0.037500 -0.050000
v -0.051812 0.025000 -0.050000
v -0.094375 0.037500 -0.050000
v -0.051812 0.037500 -0.050000
v 0.033313 -0.050000 0.025000
v 0.075875 -0.050000 0.037500
v 0.033313 -0.050000 0.037500
v -0.051812 -0.050000 -0.025000
v -0.094375 -0.050000 -0.037500
v -0.051812 -0.050000 -0.037500
v -0.009250 0.050000 -0.000000
v 0.161000 0.050000 -0.000000
v -0.009250 0.050000 -0.050000
v -0.009250 0.050000 0.050000
v -0.179500 0.050000 -0.000000
v -0.094375 0.050000 0.025000
v 0.161000 0.050000 0.025000
v -0.094375 0.050000 -0.050000
v -0.094375 0.050000 0.050000
v -0.179500 0.050000 0.025000
v 0.075875 0.050000 -0.025000
v 0.161000 0.050000 -0.025000
v 0.075875 0.050000 -0.050000
v 0.075875 0.050000 0.050000
v -0.179500 0.050000 -0.025000
v -0.094375 0.050000 -0.000000
v -0.009250 0.050000 -0.025000
v -0.094375 0.050000 -0.025000
v 0.075875 0.050000 -0.000000
v -0.009250 0.050000 0.025000
v 0.075875 0.050000 0.025000
v -0.136938 0.050000 0.037500
v 0.161000 0.050000 0.037500
v -0.136938 0.050000 -0.050000
v -0.136938 0.050000 0.050000
v -0.179500 0.050000 0.037500
v 0.033313 0.050000 -0.012500
v 0.161000 0.050000 -0.012500
v 0.033313 0.050000 -0.050000
v 0.033313 0.050000 0.050000
v -0.179500 0.050000 -0.012500
v -0.136938 0.050000 -0.000000
v -0.009250 0.050000 -0.037500
v -0.051812 0.050000 -0.037500
v 0.118438 0.050000 -0.000000
v -0.009250 0.050000 0.037500
v 0.033313 0.050000 0.037500
v -0.051812 0.050000 0.012500
v 0.161000 0.050000 0.012500
v -0.051812 0.050000 -0.050000
v -0.051812 0.050000 0.050000
v -0.179500 0.050000 0.012500
v 0.118438 0.050000 -0.037500
v 0.161000 0.050000 -0.037500
v 0.118438 0.050000 -0.050000
v 0.118438 0.050000 0.050000
v -0.179500 0.050000 -0.037500
v -0.051812 0.050000 -0.000000
v -0.009250 0.050000 -0.012500
v -0.136938 0.050000 -0.012500
v 0.033313 0.050000 -0.000000
v -0.009250 0.050000 0.012500
v 0.118438 0.050000 0.012500
v 0.118438 0.050000 0.025000
v 0.075875 0.050000 0.037500
v 0.118438 0.050000 0.037500
v 0.075875 0.050000 0.012500
v 0.033313 0.050000 0.012500
v 0.033313 0.050000 0.025000
v 0.118438 0.050000 -0.025000
v 0.075875 0.050000 -0.012500
v 0.118438 0.050000 -0.012500
v -0.136938 0.050000 -0.025000
v -0.094375 0.050000 -0.037500
v -0.136938 0.050000 -0.037500
v -0.094375 0.050000 -0.012500
v -0.051812 0.050000 -0.012500
v -0.051812 0.050000 -0.025000
v -0.136938 0.050000 0.025000
v -0.094375 0.050000 0.012500
v -0.136938 0.050000 0.012500
v 0.033313 0.050000 -0.025000
v 0.075875 0.050000 -0.037500
v 0.033313 0.050000 -0.037500
v -0.051812 0.050000 0.025000
v -0.094375 0.050000 0.037500
v -0.051812 0.050000 0.037500
s 0
usemtl 0.615686_0.811765_0.929412_0.000000_0.003
f 715 713 714
f 714 716 715
f 747 717 718
f 718 719 747
f 719 720 747
f 720 721 747
f 721 722 747
f 722 723 747
f 723 724 747
f 724 725 747
f 725 726 747
f 726 727 747
f 727 728 747
f 728 729 747
f 729 730 747
f 730 731 747
f 731 732 747
f 732 733 747
f 733 734 747
f 734 735 747
f 735 736 747
f 736 737 747
f 737 738 747
f 738 739 747
f 739 740 747
f 740 741 747
f 741 742 747
f 742 743 747
f 743 744 747
f 744 745 747
f 745 746 747
f 746 717 747
f 778 762 761
f 779 761 760
f 780 760 759
f 781 759 758
f 782 758 757
f 783 757 756
f 784 756 755
f 785 755 754
f 786 754 753
f 787 753 752
f 788 752 751
f 789 751 750
f 790 750 749
f 791 749 748
f 792 748 777
f 793 777 776
f 794 776 775
f 795 775 774
f 796 774 773
f 797 773 772
f 798 772 771
f 799 771 770
f 800 770 769
f 801 769 768
f 802 768 767
f 803 767 766
f 804 766 765
f 805 765 764
f 806 764 763
f 807 763 762
f 762 778 807
f 763 807 806
f 764 806 805
f 765 805 804
f 766 804 803
f 767 803 802
f 768 802 801
f 769 801 800
f 770 800 799
f 771 799 798
f 772 798 797
f 773 797 796
f 774 796 795
f 775 795 794
f 776 794 793
f 777 793 792
f 748 792 791
f 749 791 790
f 750 790 789
f 751 789 788
f 752 788 787
f 753 787 786
f 754 786 785
f 755 785 784
f 756 784 783
f 757 783 782
f 758 782 781
f 759 781 780
f 760 780 779
f 761 779 778
f 838 833 834
f 838 831 832
f 839 821 822
f 839 818 819
f 839 816 817
f 840 815 816
f 838 835 836
f 832 833 838
f 841 830 831
f 839 820 821
f 817 818 839
f 840 814 815
f 840 811 812
f 840 809 810
f 840 838 808
f 834 835 838
f 841 829 830
f 841 827 828
f 841 839 823
f 819 820 839
f 840 813 814
f 810 811 840
f 838 837 808
f 831 838 841
f 841 826 827
f 823 824 841
f 816 839 840
f 808 809 840
f 828 829 841
f 824 825 841
f 812 813 840
f 825 826 841
f 836 837 838
f 822 823 839
f 844 921 923
f 842 987 986
f 849 929 930
f 847 991 993
f 853 1113 1110
f 850 1133 1131
f 856 935 933
f 855 997 996
f 870 999 981
f 870 1000 999
f 871 982 953
f 870 1002 948
f 870 1003 1002
f 872 950 956
f 867 1005 978
f 867 1006 1005
f 865 976 959
f 867 1008 945
f 867 1009 1008
f 866 944 962
f 860 1011 971
f 860 1012 1011
f 861 972 965
f 860 1014 938
f 860 1015 1014
f 858 936 968
f 920 1017 1016
f 920 1018 1017
f 888 984 1019
f 918 1020 966
f 918 1021 1020
f 919 967 1022
f 890 1023 986
f 890 1024 1023
f 918 966 1025
f 917 1026 1013
f 917 1027 1026
f 876 924 1028
f 915 1029 963
f 915 1030 1029
f 916 964 1031
f 875 1032 923
f 875 1033 1032
f 915 963 1034
f 914 1035 1010
f 914 1036 1035
f 896 992 1037
f 912 1038 960
f 912 1039 1038
f 913 961 1040
f 897 1041 993
f 897 1042 1041
f 912 960 1043
f 911 1044 1007
f 911 1045 1044
f 880 928 1046
f 909 1047 957
f 909 1048 1047
f 910 958 1049
f 882 1050 930
f 882 1051 1050
f 909 957 1052
f 908 1053 1004
f 908 1054 1053
f 902 998 1055
f 906 1056 954
f 906 1057 1056
f 907 955 1058
f 900 1059 996
f 900 1060 1059
f 906 954 1061
f 905 1062 1001
f 905 1063 1062
f 886 934 1064
f 903 1065 951
f 903 1066 1065
f 904 952 1067
f 885 1068 933
f 885 1069 1068
f 903 951 1070
f 900 1071 948
f 900 1072 1071
f 901 949 1073
f 885 1074 981
f 885 1075 1074
f 887 983 1076
f 897 1077 945
f 897 1078 1077
f 895 943 1079
f 882 1080 978
f 882 1081 1080
f 881 977 1082
f 890 1083 938
f 890 1084 1083
f 891 939 1085
f 875 1086 971
f 875 1087 1086
f 873 969 1088
f 1088 967 919
f 1088 969 967
f 969 858 967
f 1086 1088 919
f 1086 1087 1088
f 1087 873 1088
f 971 1015 860
f 971 1086 1015
f 1086 919 1015
f 1085 964 916
f 1085 939 964
f 939 861 964
f 1083 1085 916
f 1083 1084 1085
f 1084 891 1085
f 938 1012 860
f 938 1083 1012
f 1083 916 1012
f 1082 961 913
f 1082 977 961
f 977 866 961
f 1080 1082 913
f 1080 1081 1082
f 1081 881 1082
f 978 1009 867
f 978 1080 1009
f 1080 913 1009
f 1079 958 910
f 1079 943 958
f 943 865 958
f 1077 1079 910
f 1077 1078 1079
f 1078 895 1079
f 945 1006 867
f 945 1077 1006
f 1077 910 1006
f 1076 955 907
f 1076 983 955
f 983 872 955
f 1074 1076 907
f 1074 1075 1076
f 1075 887 1076
f 981 1003 870
f 981 1074 1003
f 1074 907 1003
f 1073 952 904
f 1073 949 952
f 949 871 952
f 1071 1073 904
f 1071 1072 1073
f 1072 901 1073
f 948 1000 870
f 948 1071 1000
f 1071 904 1000
f 1070 946 898
f 1070 951 946
f 951 868 946
f 1068 1070 898
f 1068 1069 1070
f 1069 903 1070
f 933 994 856
f 933 1068 994
f 1068 898 994
f 1067 953 905
f 1067 952 953
f 952 871 953
f 1065 1067 905
f 1065 1066 1067
f 1066 904 1067
f 951 1001 868
f 951 1065 1001
f 1065 905 1001
f 1064 931 883
f 1064 934 931
f 934 857 931
f 1062 1064 883
f 1062 1063 1064
f 1063 886 1064
f 1001 979 868
f 1001 1062 979
f 1062 883 979
f 1061 980 884
f 1061 954 980
f 954 869 980
f 1059 1061 884
f 1059 1060 1061
f 1060 906 1061
f 996 932 855
f 996 1059 932
f 1059 884 932
f 1058 956 908
f 1058 955 956
f 955 872 956
f 1056 1058 908
f 1056 1057 1058
f 1057 907 1058
f 954 1004 869
f 954 1056 1004
f 1056 908 1004
f 1055 995 899
f 1055 998 995
f 998 854 995
f 1053 1055 899
f 1053 1054 1055
f 1054 902 1055
f 1004 947 869
f 1004 1053 947
f 1053 899 947
f 1052 974 878
f 1052 957 974
f 957 863 974
f 1050 1052 878
f 1050 1051 1052
f 1051 909 1052
f 930 926 849
f 930 1050 926
f 1050 878 926
f 1049 959 911
f 1049 958 959
f 958 865 959
f 1047 1049 911
f 1047 1048 1049
f 1048 910 1049
f 957 1007 863
f 957 1047 1007
f 1047 911 1007
f 1046 989 893
f 1046 928 989
f 928 848 989
f 1044 1046 893
f 1044 1045 1046
f 1045 880 1046
f 1007 941 863
f 1007 1044 941
f 1044 893 941
f 1043 975 879
f 1043 960 975
f 960 864 975
f 1041 1043 879
f 1041 1042 1043
f 1042 912 1043
f 993 927 847
f 993 1041 927
f 1041 879 927
f 1040 962 914
f 1040 961 962
f 961 866 962
f 1038 1040 914
f 1038 1039 1040
f 1039 913 1040
f 960 1010 864
f 960 1038 1010
f 1038 914 1010
f 1037 990 894
f 1037 992 990
f 992 846 990
f 1035 1037 894
f 1035 1036 1037
f 1036 896 1037
f 1010 942 864
f 1010 1035 942
f 1035 894 942
f 1034 940 892
f 1034 963 940
f 963 862 940
f 1032 1034 892
f 1032 1033 1034
f 1033 915 1034
f 923 988 844
f 923 1032 988
f 1032 892 988
f 1031 965 917
f 1031 964 965
f 964 861 965
f 1029 1031 917
f 1029 1030 1031
f 1030 916 1031
f 963 1013 862
f 963 1029 1013
f 1029 917 1013
f 1028 925 877
f 1028 924 925
f 924 845 925
f 1026 1028 877
f 1026 1027 1028
f 1027 876 1028
f 1013 973 862
f 1013 1026 973
f 1026 877 973
f 1025 937 889
f 1025 966 937
f 966 859 937
f 1023 1025 889
f 1023 1024 1025
f 1024 918 1025
f 986 985 842
f 986 1023 985
f 1023 889 985
f 1022 968 920
f 1022 967 968
f 967 858 968
f 1020 1022 920
f 1020 1021 1022
f 1021 919 1022
f 966 1016 859
f 966 1020 1016
f 1020 920 1016
f 1019 922 874
f 1019 984 922
f 984 843 922
f 1017 1019 874
f 1017 1018 1019
f 1018 888 1019
f 1016 970 859
f 1016 1017 970
f 1017 874 970
f 968 1018 920
f 968 936 1018
f 936 888 1018
f 1014 1021 918
f 1014 1015 1021
f 1015 919 1021
f 938 1024 890
f 938 1014 1024
f 1014 918 1024
f 965 1027 917
f 965 972 1027
f 972 876 1027
f 1011 1030 915
f 1011 1012 1030
f 1012 916 1030
f 971 1033 875
f 971 1011 1033
f 1011 915 1033
f 962 1036 914
f 962 944 1036
f 944 896 1036
f 1008 1039 912
f 1008 1009 1039
f 1009 913 1039
f 945 1042 897
f 945 1008 1042
f 1008 912 1042
f 959 1045 911
f 959 976 1045
f 976 880 1045
f 1005 1048 909
f 1005 1006 1048
f 1006 910 1048
f 978 1051 882
f 978 1005 1051
f 1005 909 1051
f 956 1054 908
f 956 950 1054
f 950 902 1054
f 1002 1057 906
f 1002 1003 1057
f 1003 907 1057
f 948 1060 900
f 948 1002 1060
f 1002 906 1060
f 953 1063 905
f 953 982 1063
f 982 886 1063
f 999 1066 903
f 999 1000 1066
f 1000 904 1066
f 981 1069 885
f 981 999 1069
f 999 903 1069
f 996 1072 900
f 996 997 1072
f 997 901 1072
f 933 1075 885
f 933 935 1075
f 935 887 1075
f 993 1078 897
f 993 991 1078
f 991 895 1078
f 930 1081 882
f 930 929 1081
f 929 881 1081
f 986 1084 890
f 986 987 1084
f 987 891 1084
f 923 1087 875
f 923 921 1087
f 921 873 1087
f 1089 1136 1126
f 1089 1137 1136
f 1091 1128 1122
f 1089 1139 1115
f 1089 1140 1139
f 1092 1118 1125
f 1109 1142 1141
f 1109 1143 1142
f 1102 1134 1144
f 1107 1145 1123
f 1107 1146 1145
f 1108 1124 1147
f 1099 1148 1131
f 1099 1149 1148
f 1107 1123 1150
f 1106 1151 1138
f 1106 1152 1151
f 1096 1112 1153
f 1104 1154 1120
f 1104 1155 1154
f 1105 1121 1156
f 1094 1157 1110
f 1094 1158 1157
f 1104 1120 1159
f 1099 1160 1115
f 1099 1161 1160
f 1101 1117 1162
f 1094 1163 1126
f 1094 1164 1163
f 1097 1129 1165
f 1165 1124 1108
f 1165 1129 1124
f 1129 1092 1124
f 1163 1165 1108
f 1163 1164 1165
f 1164 1097 1165
f 1126 1140 1089
f 1126 1163 1140
f 1163 1108 1140
f 1162 1121 1105
f 1162 1117 1121
f 1117 1091 1121
f 1160 1162 1105
f 1160 1161 1162
f 1161 1101 1162
f 1115 1137 1089
f 1115 1160 1137
f 1160 1105 1137
f 1159 1130 1098
f 1159 1120 1130
f 1120 1093 1130
f 1157 1159 1098
f 1157 1158 1159
f 1158 1104 1159
f 1110 1114 853
f 1110 1157 1114
f 1157 1098 1114
f 1156 1122 1106
f 1156 1121 1122
f 1121 1091 1122
f 1154 1156 1106
f 1154 1155 1156
f 1155 1105 1156
f 1120 1138 1093
f 1120 1154 1138
f 1154 1106 1138
f 1153 1135 1103
f 1153 1112 1135
f 1112 852 1135
f 1151 1153 1103
f 1151 1152 1153
f 1152 1096 1153
f 1138 1119 1093
f 1138 1151 1119
f 1151 1103 1119
f 1150 1116 1100
f 1150 1123 1116
f 1123 1090 1116
f 1148 1150 1100
f 1148 1149 1150
f 1149 1107 1150
f 1131 1132 850
f 1131 1148 1132
f 1148 1100 1132
f 1147 1125 1109
f 1147 1124 1125
f 1124 1092 1125
f 1145 1147 1109
f 1145 1146 1147
f 1146 1108 1147
f 1123 1141 1090
f 1123 1145 1141
f 1145 1109 1141
f 1144 1111 1095
f 1144 1134 1111
f 1134 851 1111
f 1142 1144 1095
f 1142 1143 1144
f 1143 1102 1144
f 1141 1127 1090
f 1141 1142 1127
f 1142 1095 1127
f 1125 1143 1109
f 1125 1118 1143
f 1118 1102 1143
f 1139 1146 1107
f 1139 1140 1146
f 1140 1108 1146
f 1115 1149 1099
f 1115 1139 1149
f 1139 1107 1149
f 1122 1152 1106
f 1122 1128 1152
f 1128 1096 1152
f 1136 1155 1104
f 1136 1137 1155
f 1137 1105 1155
f 1126 1158 1094
f 1126 1136 1158
f 1136 1104 1158
f 1131 1161 1099
f 1131 1133 1161
f 1133 1101 1161
f 1110 1164 1094
f 1110 1113 1164
f 1113 1097 1164
