o two_two_sided_plates
v 0.000000 -0.500000 -0.500000
v 0.000000 0.500000 -0.500000
v 0.000000 0.500000 0.500000
v 0.000000 -0.500000 0.500000
v 0.500000 -0.500000 0.000000
v 0.500000 0.500000 -0.000000
v 0.500000 0.500000 1.000000
v 0.500000 -0.500000 1.000000
v 0.000000 0.000000 0.000000
v 0.000000 -0.000000 -0.500000
v 0.000000 0.500000 -0.000000
v 0.000000 -0.500000 0.000000
v 0.000000 0.000000 0.500000
v 0.500000 0.000000 0.500000
v 0.500000 0.000000 0.000000
v 0.500000 0.500000 0.500000
v 0.500000 -0.500000 0.500000
v 0.500000 0.000000 1.000000
v 0.000000 0.250000 0.250000
v 0.000000 0.250000 -0.500000
v 0.000000 0.500000 0.250000
v 0.000000 -0.500000 0.250000
v 0.000000 -0.250000 0.500000
v 0.500000 0.250000 0.750000
v 0.500000 0.250000 -0.000000
v 0.500000 0.500000 0.750000
v 0.500000 -0.500000 0.750000
v 0.500000 -0.250000 1.000000
v 0.000000 -0.250000 -0.250000
v 0.000000 -0.250000 -0.500000
v 0.000000 0.500000 -0.250000
v 0.000000 -0.500000 -0.250000
v 0.000000 0.250000 0.500000
v 0.500000 -0.250000 0.250000
v 0.500000 -0.250000 0.000000
v 0.500000 0.500000 0.250000
v 0.500000 -0.500000 0.250000
v 0.500000 0.250000 1.000000
v 0.500000 -0.250000 0.750000
v 0.500000 -0.250000 0.500000
v 0.500000 0.000000 0.750000
v 0.500000 0.250000 0.500000
v 0.500000 0.000000 0.250000
v 0.500000 0.250000 0.250000
v 0.000000 -0.250000 0.250000
v 0.000000 -0.250000 0.000000
v 0.000000 0.000000 0.250000
v 0.000000 0.250000 -0.000000
v 0.000000 -0.000000 -0.250000
v 0.000000 0.250000 -0.250000
v 0.000000 0.375000 0.375000
v 0.000000 0.375000 -0.500000
v 0.000000 0.500000 0.375000
v 0.000000 -0.500000 0.375000
v 0.000000 -0.375000 0.500000
v 0.500000 0.375000 0.875000
v 0.500000 0.375000 -0.000000
v 0.500000 0.500000 0.875000
v 0.500000 -0.500000 0.875000
v 0.500000 -0.375000 1.000000
v 0.000000 -0.125000 -0.125000
v 0.000000 -0.125000 -0.500000
v 0.000000 0.500000 -0.125000
v 0.000000 -0.500000 -0.125000
v 0.000000 0.125000 0.500000
v 0.500000 -0.125000 0.375000
v 0.500000 -0.125000 0.000000
v 0.500000 0.500000 0.375000
v 0.500000 -0.500000 0.375000
v 0.500000 0.125000 1.000000
v 0.500000 -0.125000 0.875000
v 0.500000 -0.125000 0.500000
v 0.500000 0.000000 0.625000
v 0.500000 0.375000 0.500000
v 0.500000 0.000000 0.125000
v 0.500000 0.125000 0.125000
v 0.000000 -0.125000 0.375000
v 0.000000 -0.125000 0.000000
v 0.000000 0.000000 0.125000
v 0.000000 0.375000 -0.000000
v 0.000000 -0.000000 -0.375000
v 0.000000 0.125000 -0.375000
v 0.000000 0.125000 0.125000
v 0.000000 0.125000 -0.500000
v 0.000000 0.500000 0.125000
v 0.000000 -0.500000 0.125000
v 0.000000 -0.125000 0.500000
v 0.500000 0.125000 0.625000
v 0.500000 0.125000 -0.000000
v 0.500000 0.500000 0.625000
v 0.500000 -0.500000 0.625000
v 0.500000 -0.125000 1.000000
v 0.000000 -0.375000 -0.375000
v 0.000000 -0.375000 -0.500000
v 0.000000 0.500000 -0.375000
v 0.000000 -0.500000 -0.375000
v 0.000000 0.375000 0.500000
v 0.500000 -0.375000 0.125000
v 0.500000 -0.375000 0.000000
v 0.500000 0.500000 0.125000
v 0.500000 -0.500000 0.125000
v 0.500000 0.375000 1.000000
v 0.500000 -0.375000 0.625000
v 0.500000 -0.375000 0.500000
v 0.500000 0.000000 0.875000
v 0.500000 0.125000 0.500000
v 0.500000 0.000000 0.375000
v 0.500000 0.375000 0.375000
v 0.000000 -0.375000 0.125000
v 0.000000 -0.375000 0.000000
v 0.000000 0.000000 0.375000
v 0.000000 0.125000 -0.000000
v 0.000000 -0.000000 -0.125000
v 0.000000 0.375000 -0.125000
v 0.000000 0.375000 -0.250000
v 0.000000 0.250000 -0.375000
v 0.000000 0.375000 -0.375000
v 0.000000 0.250000 -0.125000
v 0.000000 0.125000 -0.125000
v 0.000000 0.125000 -0.250000
v 0.000000 0.375000 0.250000
v 0.000000 0.250000 0.125000
v 0.000000 0.375000 0.125000
v 0.000000 0.125000 0.375000
v 0.000000 0.125000 0.250000
v 0.000000 0.250000 0.375000
v 0.000000 -0.125000 0.250000
v 0.000000 -0.250000 0.125000
v 0.000000 -0.125000 0.125000
v 0.000000 -0.375000 0.375000
v 0.000000 -0.375000 0.250000
v 0.000000 -0.250000 0.375000
v 0.500000 0.375000 0.250000
v 0.500000 0.250000 0.125000
v 0.500000 0.375000 0.125000
v 0.500000 0.250000 0.375000
v 0.500000 0.125000 0.375000
v 0.500000 0.125000 0.250000
v 0.500000 0.375000 0.750000
v 0.500000 0.250000 0.625000
v 0.500000 0.375000 0.625000
v 0.500000 0.125000 0.875000
v 0.500000 0.125000 0.750000
v 0.500000 0.250000 0.875000
v 0.500000 -0.125000 0.750000
v 0.500000 -0.250000 0.625000
v 0.500000 -0.125000 0.625000
v 0.500000 -0.375000 0.875000
v 0.500000 -0.375000 0.750000
v 0.500000 -0.250000 0.875000
v 0.500000 -0.375000 0.375000
v 0.500000 -0.375000 0.250000
v 0.500000 -0.250000 0.375000
v 0.500000 -0.125000 0.250000
v 0.500000 -0.250000 0.125000
v 0.500000 -0.125000 0.125000
v 0.000000 -0.375000 -0.125000
v 0.000000 -0.375000 -0.250000
v 0.000000 -0.250000 -0.125000
v 0.000000 -0.125000 -0.250000
v 0.000000 -0.250000 -0.375000
v 0.000000 -0.125000 -0.375000
v 0.000000 0.437500 0.437500
v 0.000000 0.437500 -0.500000
v 0.000000 0.500000 0.437500
v 0.000000 -0.500000 0.437500
v 0.000000 -0.437500 0.500000
v 0.500000 0.437500 0.937500
v 0.500000 0.437500 -0.000000
v 0.500000 0.500000 0.937500
v 0.500000 -0.500000 0.937500
v 0.500000 -0.437500 1.000000
v 0.000000 -0.062500 -0.062500
v 0.000000 -0.062500 -0.500000
v 0.000000 0.500000 -0.062500
v 0.000000 -0.500000 -0.062500
v 0.000000 0.062500 0.500000
v 0.500000 -0.062500 0.437500
v 0.500000 -0.062500 0.000000
v 0.500000 0.500000 0.437500
v 0.500000 -0.500000 0.437500
v 0.500000 0.062500 1.000000
v 0.500000 -0.062500 0.937500
v 0.500000 -0.062500 0.500000
v 0.500000 0.000000 0.562500
v 0.500000 0.437500 0.500000
v 0.500000 0.000000 0.062500
v 0.500000 0.062500 0.062500
v 0.000000 -0.062500 0.437500
v 0.000000 -0.062500 0.000000
v 0.000000 0.000000 0.062500
v 0.000000 0.437500 -0.000000
v 0.000000 -0.000000 -0.437500
v 0.000000 0.062500 -0.437500
v 0.000000 0.187500 0.187500
v 0.000000 0.187500 -0.500000
v 0.000000 0.500000 0.187500
v 0.000000 -0.500000 0.187500
v 0.000000 -0.187500 0.500000
v 0.500000 0.187500 0.687500
v 0.500000 0.187500 -0.000000
v 0.500000 0.500000 0.687500
v 0.500000 -0.500000 0.687500
v 0.500000 -0.187500 1.000000
v 0.000000 -0.312500 -0.312500
v 0.000000 -0.312500 -0.500000
v 0.000000 0.500000 -0.312500
v 0.000000 -0.500000 -0.312500
v 0.000000 0.312500 0.500000
v 0.500000 -0.312500 0.187500
v 0.500000 -0.312500 0.000000
v 0.500000 0.500000 0.187500
v 0.500000 -0.500000 0.187500
v 0.500000 0.312500 1.000000
v 0.500000 -0.312500 0.687500
v 0.500000 -0.312500 0.500000
v 0.500000 0.000000 0.812500
v 0.500000 0.187500 0.500000
v 0.500000 0.000000 0.312500
v 0.500000 0.312500 0.312500
v 0.000000 -0.312500 0.187500
v 0.000000 -0.312500 0.000000
v 0.000000 0.000000 0.312500
v 0.000000 0.187500 -0.000000
v 0.000000 -0.000000 -0.187500
v 0.000000 0.312500 -0.187500
v 0.000000 0.437500 -0.250000
v 0.000000 0.250000 -0.437500
v 0.000000 0.312500 -0.437500
v 0.000000 0.250000 -0.187500
v 0.000000 0.062500 -0.187500
v 0.000000 0.062500 -0.250000
v 0.000000 0.437500 0.250000
v 0.000000 0.250000 0.062500
v 0.000000 0.312500 0.062500
v 0.000000 0.187500 0.437500
v 0.000000 0.187500 0.250000
v 0.000000 0.250000 0.312500
v 0.000000 -0.062500 0.250000
v 0.000000 -0.250000 0.062500
v 0.000000 -0.187500 0.062500
v 0.000000 -0.312500 0.437500
v 0.000000 -0.312500 0.250000
v 0.000000 -0.250000 0.312500
v 0.500000 0.437500 0.250000
v 0.500000 0.250000 0.062500
v 0.500000 0.312500 0.062500
v 0.500000 0.250000 0.312500
v 0.500000 0.062500 0.312500
v 0.500000 0.062500 0.250000
v 0.500000 0.437500 0.750000
v 0.500000 0.250000 0.562500
v 0.500000 0.312500 0.562500
v 0.500000 0.187500 0.937500
v 0.500000 0.187500 0.750000
v 0.500000 0.250000 0.812500
v 0.500000 -0.062500 0.750000
v 0.500000 -0.250000 0.562500
v 0.500000 -0.187500 0.562500
v 0.500000 -0.312500 0.937500
v 0.500000 -0.312500 0.750000
v 0.500000 -0.250000 0.812500
v 0.500000 -0.312500 0.437500
v 0.500000 -0.312500 0.250000
v 0.500000 -0.250000 0.312500
v 0.500000 -0.062500 0.250000
v 0.500000 -0.250000 0.062500
v 0.500000 -0.187500 0.062500
v 0.000000 -0.312500 -0.062500
v 0.000000 -0.312500 -0.250000
v 0.000000 -0.250000 -0.187500
v 0.000000 -0.062500 -0.250000
v 0.000000 -0.250000 -0.437500
v 0.000000 -0.187500 -0.437500
v 0.000000 0.312500 0.312500
v 0.000000 0.312500 -0.500000
v 0.000000 0.500000 0.312500
v 0.000000 -0.500000 0.312500
v 0.000000 -0.312500 0.500000
v 0.500000 0.312500 0.812500
v 0.500000 0.312500 -0.000000
v 0.500000 0.500000 0.812500
v 0.500000 -0.500000 0.812500
v 0.500000 -0.312500 1.000000
v 0.000000 -0.187500 -0.187500
v 0.000000 -0.187500 -0.500000
v 0.000000 0.500000 -0.187500
v 0.000000 -0.500000 -0.187500
v 0.000000 0.187500 0.500000
v 0.500000 -0.187500 0.312500
v 0.500000 -0.187500 0.000000
v 0.500000 0.500000 0.312500
v 0.500000 -0.500000 0.312500
v 0.500000 0.187500 1.000000
v 0.500000 -0.187500 0.812500
v 0.500000 -0.187500 0.500000
v 0.500000 0.000000 0.687500
v 0.500000 0.312500 0.500000
v 0.500000 0.000000 0.187500
v 0.500000 0.187500 0.187500
v 0.000000 -0.187500 0.312500
v 0.000000 -0.187500 0.000000
v 0.000000 0.000000 0.187500
v 0.000000 0.312500 -0.000000
v 0.000000 -0.000000 -0.312500
v 0.000000 0.187500 -0.312500
v 0.000000 0.062500 0.062500
v 0.000000 0.062500 -0.500000
v 0.000000 0.500000 0.062500
v 0.000000 -0.500000 0.062500
v 0.000000 -0.062500 0.500000
v 0.500000 0.062500 0.562500
v 0.500000 0.062500 -0.000000
v 0.500000 0.500000 0.562500
v 0.500000 -0.500000 0.562500
v 0.500000 -0.062500 1.000000
v 0.000000 -0.437500 -0.437500
v 0.000000 -0.437500 -0.500000
v 0.000000 0.500000 -0.437500
v 0.000000 -0.500000 -0.437500
v 0.000000 0.437500 0.500000
v 0.500000 -0.437500 0.062500
v 0.500000 -0.437500 0.000000
v 0.500000 0.500000 0.062500
v 0.500000 -0.500000 0.062500
v 0.500000 0.437500 1.000000
v 0.500000 -0.437500 0.562500
v 0.500000 -0.437500 0.500000
v 0.500000 0.000000 0.937500
v 0.500000 0.062500 0.500000
v 0.500000 0.000000 0.437500
v 0.500000 0.437500 0.437500
v 0.000000 -0.437500 0.062500
v 0.000000 -0.437500 0.000000
v 0.000000 0.000000 0.437500
v 0.000000 0.062500 -0.000000
v 0.000000 -0.000000 -0.062500
v 0.000000 0.437500 -0.062500
v 0.000000 0.312500 -0.250000
v 0.000000 0.250000 -0.312500
v 0.000000 0.437500 -0.312500
v 0.000000 0.250000 -0.062500
v 0.000000 0.187500 -0.062500
v 0.000000 0.187500 -0.250000
v 0.000000 0.312500 0.250000
v 0.000000 0.250000 0.187500
v 0.000000 0.437500 0.187500
v 0.000000 0.062500 0.312500
v 0.000000 0.062500 0.250000
v 0.000000 0.250000 0.437500
v 0.000000 -0.187500 0.250000
v 0.000000 -0.250000 0.187500
v 0.000000 -0.062500 0.187500
v 0.000000 -0.437500 0.312500
v 0.000000 -0.437500 0.250000
v 0.000000 -0.250000 0.437500
v 0.500000 0.312500 0.250000
v 0.500000 0.250000 0.187500
v 0.500000 0.437500 0.187500
v 0.500000 0.250000 0.437500
v 0.500000 0.187500 0.437500
v 0.500000 0.187500 0.250000
v 0.500000 0.312500 0.750000
v 0.500000 0.250000 0.687500
v 0.500000 0.437500 0.687500
v 0.500000 0.062500 0.812500
v 0.500000 0.062500 0.750000
v 0.500000 0.250000 0.937500
v 0.500000 -0.187500 0.750000
v 0.500000 -0.250000 0.687500
v 0.500000 -0.062500 0.687500
v 0.500000 -0.437500 0.812500
v 0.500000 -0.437500 0.750000
v 0.500000 -0.250000 0.937500
v 0.500000 -0.437500 0.312500
v 0.500000 -0.437500 0.250000
v 0.500000 -0.250000 0.437500
v 0.500000 -0.187500 0.250000
v 0.500000 -0.250000 0.187500
v 0.500000 -0.062500 0.187500
v 0.000000 -0.437500 -0.187500
v 0.000000 -0.437500 -0.250000
v 0.000000 -0.250000 -0.062500
v 0.000000 -0.187500 -0.250000
v 0.000000 -0.250000 -0.312500
v 0.000000 -0.062500 -0.312500
v 0.000000 -0.062500 -0.375000
v 0.000000 -0.125000 -0.437500
v 0.000000 -0.062500 -0.437500
v 0.000000 -0.125000 -0.312500
v 0.000000 -0.187500 -0.312500
v 0.000000 -0.187500 -0.375000
v 0.000000 -0.062500 -0.125000
v 0.000000 -0.125000 -0.187500
v 0.000000 -0.062500 -0.187500
v 0.000000 -0.187500 -0.062500
v 0.000000 -0.187500 -0.125000
v 0.000000 -0.125000 -0.062500
v 0.000000 -0.312500 -0.125000
v 0.000000 -0.375000 -0.187500
v 0.000000 -0.312500 -0.187500
v 0.000000 -0.437500 -0.062500
v 0.000000 -0.437500 -0.125000
v 0.000000 -0.375000 -0.062500
v 0.500000 -0.062500 0.125000
v 0.500000 -0.125000 0.062500
v 0.500000 -0.062500 0.062500
v 0.500000 -0.125000 0.187500
v 0.500000 -0.187500 0.187500
v 0.500000 -0.187500 0.125000
v 0.500000 -0.062500 0.375000
v 0.500000 -0.125000 0.312500
v 0.500000 -0.062500 0.312500
v 0.500000 -0.187500 0.437500
v 0.500000 -0.187500 0.375000
v 0.500000 -0.125000 0.437500
v 0.500000 -0.312500 0.375000
v 0.500000 -0.375000 0.312500
v 0.500000 -0.312500 0.312500
v 0.500000 -0.437500 0.437500
v 0.500000 -0.437500 0.375000
v 0.500000 -0.375000 0.437500
v 0.500000 -0.187500 0.937500
v 0.500000 -0.187500 0.875000
v 0.500000 -0.125000 0.937500
v 0.500000 -0.312500 0.875000
v 0.500000 -0.375000 0.812500
v 0.500000 -0.312500 0.812500
v 0.500000 -0.437500 0.937500
v 0.500000 -0.437500 0.875000
v 0.500000 -0.375000 0.937500
v 0.500000 -0.062500 0.625000
v 0.500000 -0.125000 0.562500
v 0.500000 -0.062500 0.562500
v 0.500000 -0.125000 0.687500
v 0.500000 -0.187500 0.687500
v 0.500000 -0.187500 0.625000
v 0.500000 -0.062500 0.875000
v 0.500000 -0.125000 0.812500
v 0.500000 -0.062500 0.812500
v 0.500000 0.312500 0.937500
v 0.500000 0.312500 0.875000
v 0.500000 0.375000 0.937500
v 0.500000 0.187500 0.875000
v 0.500000 0.125000 0.812500
v 0.500000 0.187500 0.812500
v 0.500000 0.062500 0.937500
v 0.500000 0.062500 0.875000
v 0.500000 0.125000 0.937500
v 0.500000 0.437500 0.625000
v 0.500000 0.375000 0.562500
v 0.500000 0.437500 0.562500
v 0.500000 0.375000 0.687500
v 0.500000 0.312500 0.687500
v 0.500000 0.312500 0.625000
v 0.500000 0.437500 0.875000
v 0.500000 0.375000 0.812500
v 0.500000 0.437500 0.812500
v 0.500000 0.125000 0.187500
v 0.500000 0.062500 0.187500
v 0.500000 0.062500 0.125000
v 0.500000 0.187500 0.312500
v 0.500000 0.187500 0.375000
v 0.500000 0.125000 0.312500
v 0.500000 0.375000 0.437500
v 0.500000 0.312500 0.437500
v 0.500000 0.312500 0.375000
v 0.500000 0.437500 0.125000
v 0.500000 0.375000 0.062500
v 0.500000 0.437500 0.062500
v 0.500000 0.375000 0.187500
v 0.500000 0.312500 0.187500
v 0.500000 0.312500 0.125000
v 0.500000 0.437500 0.375000
v 0.500000 0.375000 0.312500
v 0.500000 0.437500 0.312500
v 0.000000 -0.187500 0.437500
v 0.000000 -0.187500 0.375000
v 0.000000 -0.125000 0.437500
v 0.000000 -0.312500 0.375000
v 0.000000 -0.375000 0.312500
v 0.000000 -0.312500 0.312500
v 0.000000 -0.437500 0.437500
v 0.000000 -0.437500 0.375000
v 0.000000 -0.375000 0.437500
v 0.000000 -0.062500 0.125000
v 0.000000 -0.125000 0.062500
v 0.000000 -0.062500 0.062500
v 0.000000 -0.125000 0.187500
v 0.000000 -0.187500 0.187500
v 0.000000 -0.187500 0.125000
v 0.000000 -0.062500 0.375000
v 0.000000 -0.125000 0.312500
v 0.000000 -0.062500 0.312500
v 0.000000 0.312500 0.437500
v 0.000000 0.312500 0.375000
v 0.000000 0.375000 0.437500
v 0.000000 0.187500 0.375000
v 0.000000 0.125000 0.312500
v 0.000000 0.187500 0.312500
v 0.000000 0.062500 0.437500
v 0.000000 0.062500 0.375000
v 0.000000 0.125000 0.437500
v 0.000000 0.437500 0.125000
v 0.000000 0.375000 0.062500
v 0.000000 0.437500 0.062500
v 0.000000 0.375000 0.187500
v 0.000000 0.312500 0.187500
v 0.000000 0.312500 0.125000
v 0.000000 0.437500 0.375000
v 0.000000 0.375000 0.312500
v 0.000000 0.437500 0.312500
v 0.000000 0.125000 -0.312500
v 0.000000 0.062500 -0.312500
v 0.000000 0.062500 -0.375000
v 0.000000 0.187500 -0.187500
v 0.000000 0.187500 -0.125000
v 0.000000 0.125000 -0.187500
v 0.000000 0.375000 -0.062500
v 0.000000 0.312500 -0.062500
v 0.000000 0.312500 -0.125000
v 0.000000 0.437500 -0.375000
v 0.000000 0.375000 -0.437500
v 0.000000 0.437500 -0.437500
v 0.000000 0.375000 -0.312500
v 0.000000 0.312500 -0.312500
v 0.000000 0.312500 -0.375000
v 0.000000 0.437500 -0.125000
v 0.000000 0.375000 -0.187500
v 0.000000 0.437500 -0.187500
v 0.000000 0.187500 -0.375000
v 0.000000 0.125000 -0.437500
v 0.000000 0.187500 -0.437500
v 0.000000 0.125000 -0.062500
v 0.000000 0.062500 -0.062500
v 0.000000 0.062500 -0.125000
v 0.000000 0.187500 0.125000
v 0.000000 0.125000 0.062500
v 0.000000 0.187500 0.062500
v 0.000000 0.062500 0.187500
v 0.000000 0.062500 0.125000
v 0.000000 0.125000 0.187500
v 0.000000 -0.312500 0.125000
v 0.000000 -0.375000 0.062500
v 0.000000 -0.312500 0.062500
v 0.000000 -0.437500 0.187500
v 0.000000 -0.437500 0.125000
v 0.000000 -0.375000 0.187500
v 0.500000 0.187500 0.125000
v 0.500000 0.125000 0.062500
v 0.500000 0.187500 0.062500
v 0.500000 0.125000 0.437500
v 0.500000 0.062500 0.437500
v 0.500000 0.062500 0.375000
v 0.500000 0.187500 0.625000
v 0.500000 0.125000 0.562500
v 0.500000 0.187500 0.562500
v 0.500000 0.062500 0.687500
v 0.500000 0.062500 0.625000
v 0.500000 0.125000 0.687500
v 0.500000 -0.312500 0.625000
v 0.500000 -0.375000 0.562500
v 0.500000 -0.312500 0.562500
v 0.500000 -0.437500 0.687500
v 0.500000 -0.437500 0.625000
v 0.500000 -0.375000 0.687500
v 0.500000 -0.437500 0.187500
v 0.500000 -0.437500 0.125000
v 0.500000 -0.375000 0.187500
v 0.500000 -0.312500 0.125000
v 0.500000 -0.375000 0.062500
v 0.500000 -0.312500 0.062500
v 0.000000 -0.437500 -0.312500
v 0.000000 -0.437500 -0.375000
v 0.000000 -0.375000 -0.312500
v 0.000000 -0.312500 -0.375000
v 0.000000 -0.375000 -0.437500
v 0.000000 -0.312500 -0.437500
vn 1.0000 -0.0000 -0.0000
s 0
f 1//1 318//1 317//1
f 1//1 317//1 320//1
f 5//1 323//1 322//1
f 5//1 322//1 325//1
f 17//1 327//1 315//1
f 17//1 328//1 327//1
f 14//1 312//1 185//1
f 14//1 330//1 312//1
f 14//1 331//1 330//1
f 15//1 313//1 188//1
f 12//1 333//1 310//1
f 12//1 334//1 333//1
f 9//1 307//1 191//1
f 9//1 336//1 307//1
f 9//1 337//1 336//1
f 10//1 308//1 194//1
f 50//1 339//1 226//1
f 50//1 340//1 339//1
f 20//1 276//1 229//1
f 48//1 342//1 304//1
f 48//1 343//1 342//1
f 49//1 305//1 232//1
f 19//1 345//1 275//1
f 19//1 346//1 345//1
f 48//1 304//1 235//1
f 47//1 348//1 223//1
f 47//1 349//1 348//1
f 19//1 275//1 238//1
f 45//1 351//1 301//1
f 45//1 352//1 351//1
f 46//1 302//1 241//1
f 22//1 354//1 278//1
f 22//1 355//1 354//1
f 45//1 301//1 244//1
f 44//1 357//1 220//1
f 44//1 358//1 357//1
f 25//1 281//1 247//1
f 42//1 360//1 298//1
f 42//1 361//1 360//1
f 43//1 299//1 250//1
f 24//1 363//1 280//1
f 24//1 364//1 363//1
f 42//1 298//1 253//1
f 41//1 366//1 217//1
f 41//1 367//1 366//1
f 24//1 280//1 256//1
f 39//1 369//1 295//1
f 39//1 370//1 369//1
f 40//1 296//1 259//1
f 27//1 372//1 283//1
f 27//1 373//1 372//1
f 39//1 295//1 262//1
f 37//1 375//1 293//1
f 37//1 376//1 375//1
f 34//1 290//1 265//1
f 34//1 378//1 290//1
f 34//1 379//1 378//1
f 35//1 291//1 268//1
f 32//1 381//1 288//1
f 32//1 382//1 381//1
f 29//1 285//1 271//1
f 29//1 384//1 285//1
f 29//1 385//1 384//1
f 30//1 286//1 274//1
f 162//1 387//1 386//1
f 162//1 388//1 387//1
f 62//1 174//1 389//1
f 160//1 390//1 272//1
f 160//1 391//1 390//1
f 161//1 273//1 392//1
f 61//1 393//1 173//1
f 61//1 394//1 393//1
f 160//1 272//1 395//1
f 159//1 396//1 383//1
f 159//1 397//1 396//1
f 61//1 173//1 398//1
f 157//1 399//1 269//1
f 157//1 400//1 399//1
f 158//1 270//1 401//1
f 64//1 402//1 176//1
f 64//1 403//1 402//1
f 157//1 269//1 404//1
f 156//1 405//1 380//1
f 156//1 406//1 405//1
f 67//1 179//1 407//1
f 154//1 408//1 266//1
f 154//1 409//1 408//1
f 155//1 267//1 410//1
f 66//1 411//1 178//1
f 66//1 412//1 411//1
f 154//1 266//1 413//1
f 153//1 414//1 377//1
f 153//1 415//1 414//1
f 66//1 178//1 416//1
f 151//1 417//1 263//1
f 151//1 418//1 417//1
f 152//1 264//1 419//1
f 69//1 420//1 181//1
f 69//1 421//1 420//1
f 151//1 263//1 422//1
f 150//1 423//1 374//1
f 150//1 424//1 423//1
f 71//1 183//1 425//1
f 148//1 426//1 260//1
f 148//1 427//1 426//1
f 149//1 261//1 428//1
f 59//1 429//1 171//1
f 59//1 430//1 429//1
f 148//1 260//1 431//1
f 147//1 432//1 371//1
f 147//1 433//1 432//1
f 72//1 184//1 434//1
f 145//1 435//1 257//1
f 145//1 436//1 435//1
f 146//1 258//1 437//1
f 71//1 438//1 183//1
f 71//1 439//1 438//1
f 145//1 257//1 440//1
f 144//1 441//1 368//1
f 144//1 442//1 441//1
f 56//1 168//1 443//1
f 142//1 444//1 254//1
f 142//1 445//1 444//1
f 143//1 255//1 446//1
f 105//1 447//1 329//1
f 105//1 448//1 447//1
f 142//1 254//1 449//1
f 141//1 450//1 365//1
f 141//1 451//1 450//1
f 74//1 186//1 452//1
f 139//1 453//1 251//1
f 139//1 454//1 453//1
f 140//1 252//1 455//1
f 56//1 456//1 168//1
f 56//1 457//1 456//1
f 139//1 251//1 458//1
f 138//1 459//1 362//1
f 138//1 460//1 459//1
f 75//1 187//1 461//1
f 136//1 462//1 248//1
f 136//1 463//1 462//1
f 137//1 249//1 464//1
f 74//1 465//1 186//1
f 74//1 466//1 465//1
f 136//1 248//1 467//1
f 135//1 468//1 359//1
f 135//1 469//1 468//1
f 57//1 169//1 470//1
f 133//1 471//1 245//1
f 133//1 472//1 471//1
f 134//1 246//1 473//1
f 108//1 474//1 332//1
f 108//1 475//1 474//1
f 133//1 245//1 476//1
f 132//1 477//1 356//1
f 132//1 478//1 477//1
f 77//1 189//1 479//1
f 130//1 480//1 242//1
f 130//1 481//1 480//1
f 131//1 243//1 482//1
f 54//1 483//1 166//1
f 54//1 484//1 483//1
f 130//1 242//1 485//1
f 129//1 486//1 353//1
f 129//1 487//1 486//1
f 78//1 190//1 488//1
f 127//1 489//1 239//1
f 127//1 490//1 489//1
f 128//1 240//1 491//1
f 77//1 492//1 189//1
f 77//1 493//1 492//1
f 127//1 239//1 494//1
f 126//1 495//1 350//1
f 126//1 496//1 495//1
f 51//1 163//1 497//1
f 124//1 498//1 236//1
f 124//1 499//1 498//1
f 125//1 237//1 500//1
f 111//1 501//1 335//1
f 111//1 502//1 501//1
f 124//1 236//1 503//1
f 123//1 504//1 347//1
f 123//1 505//1 504//1
f 80//1 192//1 506//1
f 121//1 507//1 233//1
f 121//1 508//1 507//1
f 122//1 234//1 509//1
f 51//1 510//1 163//1
f 51//1 511//1 510//1
f 121//1 233//1 512//1
f 120//1 513//1 344//1
f 120//1 514//1 513//1
f 81//1 193//1 515//1
f 118//1 516//1 230//1
f 118//1 517//1 516//1
f 119//1 231//1 518//1
f 80//1 519//1 192//1
f 80//1 520//1 519//1
f 118//1 230//1 521//1
f 117//1 522//1 341//1
f 117//1 523//1 522//1
f 52//1 164//1 524//1
f 115//1 525//1 227//1
f 115//1 526//1 525//1
f 116//1 228//1 527//1
f 114//1 528//1 338//1
f 114//1 529//1 528//1
f 115//1 227//1 530//1
f 82//1 531//1 306//1
f 82//1 532//1 531//1
f 84//1 196//1 533//1
f 112//1 534//1 224//1
f 112//1 535//1 534//1
f 113//1 225//1 536//1
f 83//1 537//1 195//1
f 83//1 538//1 537//1
f 112//1 224//1 539//1
f 79//1 540//1 303//1
f 79//1 541//1 540//1
f 83//1 195//1 542//1
f 109//1 543//1 221//1
f 109//1 544//1 543//1
f 110//1 222//1 545//1
f 86//1 546//1 198//1
f 86//1 547//1 546//1
f 109//1 221//1 548//1
f 76//1 549//1 300//1
f 76//1 550//1 549//1
f 89//1 201//1 551//1
f 106//1 552//1 218//1
f 106//1 553//1 552//1
f 107//1 219//1 554//1
f 88//1 555//1 200//1
f 88//1 556//1 555//1
f 106//1 218//1 557//1
f 73//1 558//1 297//1
f 73//1 559//1 558//1
f 88//1 200//1 560//1
f 103//1 561//1 215//1
f 103//1 562//1 561//1
f 104//1 216//1 563//1
f 91//1 564//1 203//1
f 91//1 565//1 564//1
f 103//1 215//1 566//1
f 101//1 567//1 213//1
f 101//1 568//1 567//1
f 98//1 210//1 569//1
f 98//1 570//1 210//1
f 98//1 571//1 570//1
f 99//1 211//1 572//1
f 96//1 573//1 208//1
f 96//1 574//1 573//1
f 93//1 205//1 575//1
f 93//1 576//1 205//1
f 93//1 577//1 576//1
f 94//1 206//1 578//1
f 578//1 273//1 161//1
f 578//1 206//1 273//1
f 206//1 30//1 273//1
f 576//1 578//1 161//1
f 576//1 577//1 578//1
f 577//1 94//1 578//1
f 205//1 385//1 29//1
f 205//1 576//1 385//1
f 576//1 161//1 385//1
f 575//1 270//1 158//1
f 575//1 205//1 270//1
f 205//1 29//1 270//1
f 573//1 575//1 158//1
f 573//1 574//1 575//1
f 574//1 93//1 575//1
f 208//1 382//1 32//1
f 208//1 573//1 382//1
f 573//1 158//1 382//1
f 572//1 267//1 155//1
f 572//1 211//1 267//1
f 211//1 35//1 267//1
f 570//1 572//1 155//1
f 570//1 571//1 572//1
f 571//1 99//1 572//1
f 210//1 379//1 34//1
f 210//1 570//1 379//1
f 570//1 155//1 379//1
f 569//1 264//1 152//1
f 569//1 210//1 264//1
f 210//1 34//1 264//1
f 567//1 569//1 152//1
f 567//1 568//1 569//1
f 568//1 98//1 569//1
f 213//1 376//1 37//1
f 213//1 567//1 376//1
f 567//1 152//1 376//1
f 566//1 261//1 149//1
f 566//1 215//1 261//1
f 215//1 39//1 261//1
f 564//1 566//1 149//1
f 564//1 565//1 566//1
f 565//1 103//1 566//1
f 203//1 373//1 27//1
f 203//1 564//1 373//1
f 564//1 149//1 373//1
f 563//1 258//1 146//1
f 563//1 216//1 258//1
f 216//1 40//1 258//1
f 561//1 563//1 146//1
f 561//1 562//1 563//1
f 562//1 104//1 563//1
f 215//1 370//1 39//1
f 215//1 561//1 370//1
f 561//1 146//1 370//1
f 560//1 255//1 143//1
f 560//1 200//1 255//1
f 200//1 24//1 255//1
f 558//1 560//1 143//1
f 558//1 559//1 560//1
f 559//1 88//1 560//1
f 297//1 367//1 41//1
f 297//1 558//1 367//1
f 558//1 143//1 367//1
f 557//1 252//1 140//1
f 557//1 218//1 252//1
f 218//1 42//1 252//1
f 555//1 557//1 140//1
f 555//1 556//1 557//1
f 556//1 106//1 557//1
f 200//1 364//1 24//1
f 200//1 555//1 364//1
f 555//1 140//1 364//1
f 554//1 249//1 137//1
f 554//1 219//1 249//1
f 219//1 43//1 249//1
f 552//1 554//1 137//1
f 552//1 553//1 554//1
f 553//1 107//1 554//1
f 218//1 361//1 42//1
f 218//1 552//1 361//1
f 552//1 137//1 361//1
f 551//1 246//1 134//1
f 551//1 201//1 246//1
f 201//1 25//1 246//1
f 549//1 551//1 134//1
f 549//1 550//1 551//1
f 550//1 89//1 551//1
f 300//1 358//1 44//1
f 300//1 549//1 358//1
f 549//1 134//1 358//1
f 548//1 243//1 131//1
f 548//1 221//1 243//1
f 221//1 45//1 243//1
f 546//1 548//1 131//1
f 546//1 547//1 548//1
f 547//1 109//1 548//1
f 198//1 355//1 22//1
f 198//1 546//1 355//1
f 546//1 131//1 355//1
f 545//1 240//1 128//1
f 545//1 222//1 240//1
f 222//1 46//1 240//1
f 543//1 545//1 128//1
f 543//1 544//1 545//1
f 544//1 110//1 545//1
f 221//1 352//1 45//1
f 221//1 543//1 352//1
f 543//1 128//1 352//1
f 542//1 237//1 125//1
f 542//1 195//1 237//1
f 195//1 19//1 237//1
f 540//1 542//1 125//1
f 540//1 541//1 542//1
f 541//1 83//1 542//1
f 303//1 349//1 47//1
f 303//1 540//1 349//1
f 540//1 125//1 349//1
f 539//1 234//1 122//1
f 539//1 224//1 234//1
f 224//1 48//1 234//1
f 537//1 539//1 122//1
f 537//1 538//1 539//1
f 538//1 112//1 539//1
f 195//1 346//1 19//1
f 195//1 537//1 346//1
f 537//1 122//1 346//1
f 536//1 231//1 119//1
f 536//1 225//1 231//1
f 225//1 49//1 231//1
f 534//1 536//1 119//1
f 534//1 535//1 536//1
f 535//1 113//1 536//1
f 224//1 343//1 48//1
f 224//1 534//1 343//1
f 534//1 119//1 343//1
f 533//1 228//1 116//1
f 533//1 196//1 228//1
f 196//1 20//1 228//1
f 531//1 533//1 116//1
f 531//1 532//1 533//1
f 532//1 84//1 533//1
f 306//1 340//1 50//1
f 306//1 531//1 340//1
f 531//1 116//1 340//1
f 530//1 287//1 63//1
f 530//1 227//1 287//1
f 227//1 31//1 287//1
f 528//1 530//1 63//1
f 528//1 529//1 530//1
f 529//1 115//1 530//1
f 338//1 175//1 11//1
f 338//1 528//1 175//1
f 528//1 63//1 175//1
f 527//1 229//1 117//1
f 527//1 228//1 229//1
f 228//1 20//1 229//1
f 525//1 527//1 117//1
f 525//1 526//1 527//1
f 526//1 116//1 527//1
f 227//1 341//1 31//1
f 227//1 525//1 341//1
f 525//1 117//1 341//1
f 524//1 319//1 95//1
f 524//1 164//1 319//1
f 164//1 2//1 319//1
f 522//1 524//1 95//1
f 522//1 523//1 524//1
f 523//1 52//1 524//1
f 341//1 207//1 31//1
f 341//1 522//1 207//1
f 522//1 95//1 207//1
f 521//1 226//1 114//1
f 521//1 230//1 226//1
f 230//1 50//1 226//1
f 519//1 521//1 114//1
f 519//1 520//1 521//1
f 520//1 118//1 521//1
f 192//1 338//1 11//1
f 192//1 519//1 338//1
f 519//1 114//1 338//1
f 518//1 232//1 120//1
f 518//1 231//1 232//1
f 231//1 49//1 232//1
f 516//1 518//1 120//1
f 516//1 517//1 518//1
f 517//1 119//1 518//1
f 230//1 344//1 50//1
f 230//1 516//1 344//1
f 516//1 120//1 344//1
f 515//1 194//1 82//1
f 515//1 193//1 194//1
f 193//1 10//1 194//1
f 513//1 515//1 82//1
f 513//1 514//1 515//1
f 514//1 81//1 515//1
f 344//1 306//1 50//1
f 344//1 513//1 306//1
f 513//1 82//1 306//1
f 512//1 277//1 53//1
f 512//1 233//1 277//1
f 233//1 21//1 277//1
f 510//1 512//1 53//1
f 510//1 511//1 512//1
f 511//1 121//1 512//1
f 163//1 165//1 3//1
f 163//1 510//1 165//1
f 510//1 53//1 165//1
f 509//1 235//1 123//1
f 509//1 234//1 235//1
f 234//1 48//1 235//1
f 507//1 509//1 123//1
f 507//1 508//1 509//1
f 508//1 122//1 509//1
f 233//1 347//1 21//1
f 233//1 507//1 347//1
f 507//1 123//1 347//1
f 506//1 309//1 85//1
f 506//1 192//1 309//1
f 192//1 11//1 309//1
f 504//1 506//1 85//1
f 504//1 505//1 506//1
f 505//1 80//1 506//1
f 347//1 197//1 21//1
f 347//1 504//1 197//1
f 504//1 85//1 197//1
f 503//1 289//1 65//1
f 503//1 236//1 289//1
f 236//1 33//1 289//1
f 501//1 503//1 65//1
f 501//1 502//1 503//1
f 502//1 124//1 503//1
f 335//1 177//1 13//1
f 335//1 501//1 177//1
f 501//1 65//1 177//1
f 500//1 238//1 126//1
f 500//1 237//1 238//1
f 237//1 19//1 238//1
f 498//1 500//1 126//1
f 498//1 499//1 500//1
f 499//1 125//1 500//1
f 236//1 350//1 33//1
f 236//1 498//1 350//1
f 498//1 126//1 350//1
f 497//1 321//1 97//1
f 497//1 163//1 321//1
f 163//1 3//1 321//1
f 495//1 497//1 97//1
f 495//1 496//1 497//1
f 496//1 51//1 497//1
f 350//1 209//1 33//1
f 350//1 495//1 209//1
f 495//1 97//1 209//1
f 494//1 223//1 111//1
f 494//1 239//1 223//1
f 239//1 47//1 223//1
f 492//1 494//1 111//1
f 492//1 493//1 494//1
f 493//1 127//1 494//1
f 189//1 335//1 13//1
f 189//1 492//1 335//1
f 492//1 111//1 335//1
f 491//1 241//1 129//1
f 491//1 240//1 241//1
f 240//1 46//1 241//1
f 489//1 491//1 129//1
f 489//1 490//1 491//1
f 490//1 128//1 491//1
f 239//1 353//1 47//1
f 239//1 489//1 353//1
f 489//1 129//1 353//1
f 488//1 191//1 79//1
f 488//1 190//1 191//1
f 190//1 9//1 191//1
f 486//1 488//1 79//1
f 486//1 487//1 488//1
f 487//1 78//1 488//1
f 353//1 303//1 47//1
f 353//1 486//1 303//1
f 486//1 79//1 303//1
f 485//1 279//1 55//1
f 485//1 242//1 279//1
f 242//1 23//1 279//1
f 483//1 485//1 55//1
f 483//1 484//1 485//1
f 484//1 130//1 485//1
f 166//1 167//1 4//1
f 166//1 483//1 167//1
f 483//1 55//1 167//1
f 482//1 244//1 132//1
f 482//1 243//1 244//1
f 243//1 45//1 244//1
f 480//1 482//1 132//1
f 480//1 481//1 482//1
f 481//1 131//1 482//1
f 242//1 356//1 23//1
f 242//1 480//1 356//1
f 480//1 132//1 356//1
f 479//1 311//1 87//1
f 479//1 189//1 311//1
f 189//1 13//1 311//1
f 477//1 479//1 87//1
f 477//1 478//1 479//1
f 478//1 77//1 479//1
f 356//1 199//1 23//1
f 356//1 477//1 199//1
f 477//1 87//1 199//1
f 476//1 292//1 68//1
f 476//1 245//1 292//1
f 245//1 36//1 292//1
f 474//1 476//1 68//1
f 474//1 475//1 476//1
f 475//1 133//1 476//1
f 332//1 180//1 16//1
f 332//1 474//1 180//1
f 474//1 68//1 180//1
f 473//1 247//1 135//1
f 473//1 246//1 247//1
f 246//1 25//1 247//1
f 471//1 473//1 135//1
f 471//1 472//1 473//1
f 472//1 134//1 473//1
f 245//1 359//1 36//1
f 245//1 471//1 359//1
f 471//1 135//1 359//1
f 470//1 324//1 100//1
f 470//1 169//1 324//1
f 169//1 6//1 324//1
f 468//1 470//1 100//1
f 468//1 469//1 470//1
f 469//1 57//1 470//1
f 359//1 212//1 36//1
f 359//1 468//1 212//1
f 468//1 100//1 212//1
f 467//1 220//1 108//1
f 467//1 248//1 220//1
f 248//1 44//1 220//1
f 465//1 467//1 108//1
f 465//1 466//1 467//1
f 466//1 136//1 467//1
f 186//1 332//1 16//1
f 186//1 465//1 332//1
f 465//1 108//1 332//1
f 464//1 250//1 138//1
f 464//1 249//1 250//1
f 249//1 43//1 250//1
f 462//1 464//1 138//1
f 462//1 463//1 464//1
f 463//1 137//1 464//1
f 248//1 362//1 44//1
f 248//1 462//1 362//1
f 462//1 138//1 362//1
f 461//1 188//1 76//1
f 461//1 187//1 188//1
f 187//1 15//1 188//1
f 459//1 461//1 76//1
f 459//1 460//1 461//1
f 460//1 75//1 461//1
f 362//1 300//1 44//1
f 362//1 459//1 300//1
f 459//1 76//1 300//1
f 458//1 282//1 58//1
f 458//1 251//1 282//1
f 251//1 26//1 282//1
f 456//1 458//1 58//1
f 456//1 457//1 458//1
f 457//1 139//1 458//1
f 168//1 170//1 7//1
f 168//1 456//1 170//1
f 456//1 58//1 170//1
f 455//1 253//1 141//1
f 455//1 252//1 253//1
f 252//1 42//1 253//1
f 453//1 455//1 141//1
f 453//1 454//1 455//1
f 454//1 140//1 455//1
f 251//1 365//1 26//1
f 251//1 453//1 365//1
f 453//1 141//1 365//1
f 452//1 314//1 90//1
f 452//1 186//1 314//1
f 186//1 16//1 314//1
f 450//1 452//1 90//1
f 450//1 451//1 452//1
f 451//1 74//1 452//1
f 365//1 202//1 26//1
f 365//1 450//1 202//1
f 450//1 90//1 202//1
f 449//1 294//1 70//1
f 449//1 254//1 294//1
f 254//1 38//1 294//1
f 447//1 449//1 70//1
f 447//1 448//1 449//1
f 448//1 142//1 449//1
f 329//1 182//1 18//1
f 329//1 447//1 182//1
f 447//1 70//1 182//1
f 446//1 256//1 144//1
f 446//1 255//1 256//1
f 255//1 24//1 256//1
f 444//1 446//1 144//1
f 444//1 445//1 446//1
f 445//1 143//1 446//1
f 254//1 368//1 38//1
f 254//1 444//1 368//1
f 444//1 144//1 368//1
f 443//1 326//1 102//1
f 443//1 168//1 326//1
f 168//1 7//1 326//1
f 441//1 443//1 102//1
f 441//1 442//1 443//1
f 442//1 56//1 443//1
f 368//1 214//1 38//1
f 368//1 441//1 214//1
f 441//1 102//1 214//1
f 440//1 217//1 105//1
f 440//1 257//1 217//1
f 257//1 41//1 217//1
f 438//1 440//1 105//1
f 438//1 439//1 440//1
f 439//1 145//1 440//1
f 183//1 329//1 18//1
f 183//1 438//1 329//1
f 438//1 105//1 329//1
f 437//1 259//1 147//1
f 437//1 258//1 259//1
f 258//1 40//1 259//1
f 435//1 437//1 147//1
f 435//1 436//1 437//1
f 436//1 146//1 437//1
f 257//1 371//1 41//1
f 257//1 435//1 371//1
f 435//1 147//1 371//1
f 434//1 185//1 73//1
f 434//1 184//1 185//1
f 184//1 14//1 185//1
f 432//1 434//1 73//1
f 432//1 433//1 434//1
f 433//1 72//1 434//1
f 371//1 297//1 41//1
f 371//1 432//1 297//1
f 432//1 73//1 297//1
f 431//1 284//1 60//1
f 431//1 260//1 284//1
f 260//1 28//1 284//1
f 429//1 431//1 60//1
f 429//1 430//1 431//1
f 430//1 148//1 431//1
f 171//1 172//1 8//1
f 171//1 429//1 172//1
f 429//1 60//1 172//1
f 428//1 262//1 150//1
f 428//1 261//1 262//1
f 261//1 39//1 262//1
f 426//1 428//1 150//1
f 426//1 427//1 428//1
f 427//1 149//1 428//1
f 260//1 374//1 28//1
f 260//1 426//1 374//1
f 426//1 150//1 374//1
f 425//1 316//1 92//1
f 425//1 183//1 316//1
f 183//1 18//1 316//1
f 423//1 425//1 92//1
f 423//1 424//1 425//1
f 424//1 71//1 425//1
f 374//1 204//1 28//1
f 374//1 423//1 204//1
f 423//1 92//1 204//1
f 422//1 216//1 104//1
f 422//1 263//1 216//1
f 263//1 40//1 216//1
f 420//1 422//1 104//1
f 420//1 421//1 422//1
f 421//1 151//1 422//1
f 181//1 328//1 17//1
f 181//1 420//1 328//1
f 420//1 104//1 328//1
f 419//1 265//1 153//1
f 419//1 264//1 265//1
f 264//1 34//1 265//1
f 417//1 419//1 153//1
f 417//1 418//1 419//1
f 418//1 152//1 419//1
f 263//1 377//1 40//1
f 263//1 417//1 377//1
f 417//1 153//1 377//1
f 416//1 184//1 72//1
f 416//1 178//1 184//1
f 178//1 14//1 184//1
f 414//1 416//1 72//1
f 414//1 415//1 416//1
f 415//1 66//1 416//1
f 377//1 296//1 40//1
f 377//1 414//1 296//1
f 414//1 72//1 296//1
f 413//1 219//1 107//1
f 413//1 266//1 219//1
f 266//1 43//1 219//1
f 411//1 413//1 107//1
f 411//1 412//1 413//1
f 412//1 154//1 413//1
f 178//1 331//1 14//1
f 178//1 411//1 331//1
f 411//1 107//1 331//1
f 410//1 268//1 156//1
f 410//1 267//1 268//1
f 267//1 35//1 268//1
f 408//1 410//1 156//1
f 408//1 409//1 410//1
f 409//1 155//1 410//1
f 266//1 380//1 43//1
f 266//1 408//1 380//1
f 408//1 156//1 380//1
f 407//1 187//1 75//1
f 407//1 179//1 187//1
f 179//1 15//1 187//1
f 405//1 407//1 75//1
f 405//1 406//1 407//1
f 406//1 67//1 407//1
f 380//1 299//1 43//1
f 380//1 405//1 299//1
f 405//1 75//1 299//1
f 404//1 222//1 110//1
f 404//1 269//1 222//1
f 269//1 46//1 222//1
f 402//1 404//1 110//1
f 402//1 403//1 404//1
f 403//1 157//1 404//1
f 176//1 334//1 12//1
f 176//1 402//1 334//1
f 402//1 110//1 334//1
f 401//1 271//1 159//1
f 401//1 270//1 271//1
f 270//1 29//1 271//1
f 399//1 401//1 159//1
f 399//1 400//1 401//1
f 400//1 158//1 401//1
f 269//1 383//1 46//1
f 269//1 399//1 383//1
f 399//1 159//1 383//1
f 398//1 190//1 78//1
f 398//1 173//1 190//1
f 173//1 9//1 190//1
f 396//1 398//1 78//1
f 396//1 397//1 398//1
f 397//1 61//1 398//1
f 383//1 302//1 46//1
f 383//1 396//1 302//1
f 396//1 78//1 302//1
f 395//1 225//1 113//1
f 395//1 272//1 225//1
f 272//1 49//1 225//1
f 393//1 395//1 113//1
f 393//1 394//1 395//1
f 394//1 160//1 395//1
f 173//1 337//1 9//1
f 173//1 393//1 337//1
f 393//1 113//1 337//1
f 392//1 274//1 162//1
f 392//1 273//1 274//1
f 273//1 30//1 274//1
f 390//1 392//1 162//1
f 390//1 391//1 392//1
f 391//1 161//1 392//1
f 272//1 386//1 49//1
f 272//1 390//1 386//1
f 390//1 162//1 386//1
f 389//1 193//1 81//1
f 389//1 174//1 193//1
f 174//1 10//1 193//1
f 387//1 389//1 81//1
f 387//1 388//1 389//1
f 388//1 62//1 389//1
f 386//1 305//1 49//1
f 386//1 387//1 305//1
f 387//1 81//1 305//1
f 274//1 388//1 162//1
f 274//1 286//1 388//1
f 286//1 62//1 388//1
f 384//1 391//1 160//1
f 384//1 385//1 391//1
f 385//1 161//1 391//1
f 285//1 394//1 61//1
f 285//1 384//1 394//1
f 384//1 160//1 394//1
f 271//1 397//1 159//1
f 271//1 285//1 397//1
f 285//1 61//1 397//1
f 381//1 400//1 157//1
f 381//1 382//1 400//1
f 382//1 158//1 400//1
f 288//1 403//1 64//1
f 288//1 381//1 403//1
f 381//1 157//1 403//1
f 268//1 406//1 156//1
f 268//1 291//1 406//1
f 291//1 67//1 406//1
f 378//1 409//1 154//1
f 378//1 379//1 409//1
f 379//1 155//1 409//1
f 290//1 412//1 66//1
f 290//1 378//1 412//1
f 378//1 154//1 412//1
f 265//1 415//1 153//1
f 265//1 290//1 415//1
f 290//1 66//1 415//1
f 375//1 418//1 151//1
f 375//1 376//1 418//1
f 376//1 152//1 418//1
f 293//1 421//1 69//1
f 293//1 375//1 421//1
f 375//1 151//1 421//1
f 262//1 424//1 150//1
f 262//1 295//1 424//1
f 295//1 71//1 424//1
f 372//1 427//1 148//1
f 372//1 373//1 427//1
f 373//1 149//1 427//1
f 283//1 430//1 59//1
f 283//1 372//1 430//1
f 372//1 148//1 430//1
f 259//1 433//1 147//1
f 259//1 296//1 433//1
f 296//1 72//1 433//1
f 369//1 436//1 145//1
f 369//1 370//1 436//1
f 370//1 146//1 436//1
f 295//1 439//1 71//1
f 295//1 369//1 439//1
f 369//1 145//1 439//1
f 256//1 442//1 144//1
f 256//1 280//1 442//1
f 280//1 56//1 442//1
f 366//1 445//1 142//1
f 366//1 367//1 445//1
f 367//1 143//1 445//1
f 217//1 448//1 105//1
f 217//1 366//1 448//1
f 366//1 142//1 448//1
f 253//1 451//1 141//1
f 253//1 298//1 451//1
f 298//1 74//1 451//1
f 363//1 454//1 139//1
f 363//1 364//1 454//1
f 364//1 140//1 454//1
f 280//1 457//1 56//1
f 280//1 363//1 457//1
f 363//1 139//1 457//1
f 250//1 460//1 138//1
f 250//1 299//1 460//1
f 299//1 75//1 460//1
f 360//1 463//1 136//1
f 360//1 361//1 463//1
f 361//1 137//1 463//1
f 298//1 466//1 74//1
f 298//1 360//1 466//1
f 360//1 136//1 466//1
f 247//1 469//1 135//1
f 247//1 281//1 469//1
f 281//1 57//1 469//1
f 357//1 472//1 133//1
f 357//1 358//1 472//1
f 358//1 134//1 472//1
f 220//1 475//1 108//1
f 220//1 357//1 475//1
f 357//1 133//1 475//1
f 244//1 478//1 132//1
f 244//1 301//1 478//1
f 301//1 77//1 478//1
f 354//1 481//1 130//1
f 354//1 355//1 481//1
f 355//1 131//1 481//1
f 278//1 484//1 54//1
f 278//1 354//1 484//1
f 354//1 130//1 484//1
f 241//1 487//1 129//1
f 241//1 302//1 487//1
f 302//1 78//1 487//1
f 351//1 490//1 127//1
f 351//1 352//1 490//1
f 352//1 128//1 490//1
f 301//1 493//1 77//1
f 301//1 351//1 493//1
f 351//1 127//1 493//1
f 238//1 496//1 126//1
f 238//1 275//1 496//1
f 275//1 51//1 496//1
f 348//1 499//1 124//1
f 348//1 349//1 499//1
f 349//1 125//1 499//1
f 223//1 502//1 111//1
f 223//1 348//1 502//1
f 348//1 124//1 502//1
f 235//1 505//1 123//1
f 235//1 304//1 505//1
f 304//1 80//1 505//1
f 345//1 508//1 121//1
f 345//1 346//1 508//1
f 346//1 122//1 508//1
f 275//1 511//1 51//1
f 275//1 345//1 511//1
f 345//1 121//1 511//1
f 232//1 514//1 120//1
f 232//1 305//1 514//1
f 305//1 81//1 514//1
f 342//1 517//1 118//1
f 342//1 343//1 517//1
f 343//1 119//1 517//1
f 304//1 520//1 80//1
f 304//1 342//1 520//1
f 342//1 118//1 520//1
f 229//1 523//1 117//1
f 229//1 276//1 523//1
f 276//1 52//1 523//1
f 339//1 526//1 115//1
f 339//1 340//1 526//1
f 340//1 116//1 526//1
f 226//1 529//1 114//1
f 226//1 339//1 529//1
f 339//1 115//1 529//1
f 194//1 532//1 82//1
f 194//1 308//1 532//1
f 308//1 84//1 532//1
f 336//1 535//1 112//1
f 336//1 337//1 535//1
f 337//1 113//1 535//1
f 307//1 538//1 83//1
f 307//1 336//1 538//1
f 336//1 112//1 538//1
f 191//1 541//1 79//1
f 191//1 307//1 541//1
f 307//1 83//1 541//1
f 333//1 544//1 109//1
f 333//1 334//1 544//1
f 334//1 110//1 544//1
f 310//1 547//1 86//1
f 310//1 333//1 547//1
f 333//1 109//1 547//1
f 188//1 550//1 76//1
f 188//1 313//1 550//1
f 313//1 89//1 550//1
f 330//1 553//1 106//1
f 330//1 331//1 553//1
f 331//1 107//1 553//1
f 312//1 556//1 88//1
f 312//1 330//1 556//1
f 330//1 106//1 556//1
f 185//1 559//1 73//1
f 185//1 312//1 559//1
f 312//1 88//1 559//1
f 327//1 562//1 103//1
f 327//1 328//1 562//1
f 328//1 104//1 562//1
f 315//1 565//1 91//1
f 315//1 327//1 565//1
f 327//1 103//1 565//1
f 325//1 568//1 101//1
f 325//1 322//1 568//1
f 322//1 98//1 568//1
f 322//1 571//1 98//1
f 322//1 323//1 571//1
f 323//1 99//1 571//1
f 320//1 574//1 96//1
f 320//1 317//1 574//1
f 317//1 93//1 574//1
f 317//1 577//1 93//1
f 317//1 318//1 577//1
f 318//1 94//1 577//1
