# OBJ generated by ONSHAPE BY PTC INC, 1.218 Units = meters
mtllib Shuttlecock_Slanted.mtl
g wing_right
v -0.153 0.047 -0.045 
v -0.153 0.05 -0.045 
v -0.153 0.05 0.045 
v -0.153 0.047 0.045 
v -0.353 0.047 -0.035 
v -0.353 0.05 -0.035 
v -0.353 0.047 0.035 
v -0.353 0.05 0.035 
vn 1 0 0 
vn -0.0499376 -6.11559e-17 -0.998752 
vn -1 0 0 
vn -0.0499376 6.11559e-17 0.998752 
vn 0 -1 6.12323e-17 
vn 0 1 -6.12323e-17 
usemtl 0.647059_0.647059_0.647059_0.000000_0.000000
o mesh0
f 1//1 2//1 3//1 
f 3//1 4//1 1//1 
o mesh1
f 5//2 6//2 2//2 
f 2//2 1//2 5//2 
o mesh2
f 7//3 8//3 6//3 
f 6//3 5//3 7//3 
o mesh3
f 4//4 3//4 8//4 
f 8//4 7//4 4//4 
o mesh4
f 1//5 4//5 7//5 
f 7//5 5//5 1//5 
o mesh5
f 3//6 2//6 6//6 
f 6//6 8//6 3//6 
g Body
v 0.15 0.05 -0.05 
v -0.15 0.05 -0.05 
v -0.15 0.05 0.05 
v 0.15 0.05 0.05 
v -0.15 -0.05 0.05 
v 0.15 -0.05 0.05 
v -0.15 -0.05 -0.05 
v 0.15 -0.05 -0.05 
vn 0 1 -2.77556e-16 
vn 0 0 1 
vn 0 -1 2.77556e-16 
vn 0 0 -1 
vn 1 0 0 
vn -1 0 0 
usemtl 0.615686_0.811765_0.929412_0.000000_0.000000
o mesh6
f 9//7 10//7 11//7 
f 11//7 12//7 9//7 
o mesh7
f 12//8 11//8 13//8 
f 13//8 14//8 12//8 
o mesh8
f 14//9 13//9 15//9 
f 15//9 16//9 14//9 
o mesh9
f 16//10 15//10 10//10 
f 10//10 9//10 16//10 
o mesh10
f 16//11 9//11 12//11 
f 12//11 14//11 16//11 
o mesh11
f 13//12 11//12 10//12 
f 10//12 15//12 13//12 
g wing_up
v -0.153 -0.045 -0.047 
v -0.153 -0.045 -0.05 
v -0.153 0.045 -0.05 
v -0.153 0.045 -0.047 
v -0.353 -0.035 -0.047 
v -0.353 -0.035 -0.05 
v -0.353 0.035 -0.047 
v -0.353 0.035 -0.05 
vn 1 0 0 
vn -0.0499376 -0.998752 0 
vn -1 0 0 
vn -0.0499376 0.998752 0 
vn 0 0 1 
vn 0 0 -1 
usemtl 0.647059_0.647059_0.647059_0.000000_0.000000
o mesh12
f 17//13 18//13 19//13 
f 19//13 20//13 17//13 
o mesh13
f 21//14 22//14 18//14 
f 18//14 17//14 21//14 
o mesh14
f 23//15 24//15 22//15 
f 22//15 21//15 23//15 
o mesh15
f 20//16 19//16 24//16 
f 24//16 23//16 20//16 
o mesh16
f 17//17 20//17 23//17 
f 23//17 21//17 17//17 
o mesh17
f 19//18 18//18 22//18 
f 22//18 24//18 19//18 
g wing_bottom
v -0.153 0.045 0.047 
v -0.153 0.045 0.05 
v -0.153 -0.045 0.05 
v -0.153 -0.045 0.047 
v -0.353 0.035 0.047 
v -0.353 0.035 0.05 
v -0.353 -0.035 0.047 
v -0.353 -0.035 0.05 
vn 1 0 0 
vn -0.0499376 0.998752 -1.22312e-16 
vn -1 0 0 
vn -0.0499376 -0.998752 1.22312e-16 
vn 0 -1.22465e-16 -1 
vn 0 1.22465e-16 1 
o mesh18
f 25//19 26//19 27//19 
f 27//19 28//19 25//19 
o mesh19
f 29//20 30//20 26//20 
f 26//20 25//20 29//20 
o mesh20
f 31//21 32//21 30//21 
f 30//21 29//21 31//21 
o mesh21
f 28//22 27//22 32//22 
f 32//22 31//22 28//22 
o mesh22
f 25//23 28//23 31//23 
f 31//23 29//23 25//23 
o mesh23
f 27//24 26//24 30//24 
f 30//24 32//24 27//24 
g wing_left
v -0.153 -0.047 0.045 
v -0.153 -0.05 0.045 
v -0.153 -0.05 -0.045 
v -0.153 -0.047 -0.045 
v -0.353 -0.047 0.035 
v -0.353 -0.05 0.035 
v -0.353 -0.047 -0.035 
v -0.353 -0.05 -0.035 
vn 1 0 0 
vn -0.0499376 1.83468e-16 0.998752 
vn -1 0 0 
vn -0.0499376 -1.83468e-16 -0.998752 
vn 0 1 -1.83697e-16 
vn 0 -1 1.83697e-16 
o mesh24
f 33//25 34//25 35//25 
f 35//25 36//25 33//25 
o mesh25
f 37//26 38//26 34//26 
f 34//26 33//26 37//26 
o mesh26
f 39//27 40//27 38//27 
f 38//27 37//27 39//27 
o mesh27
f 36//28 35//28 40//28 
f 40//28 39//28 36//28 
o mesh28
f 33//29 36//29 39//29 
f 39//29 37//29 33//29 
o mesh29
f 35//30 34//30 38//30 
f 38//30 40//30 35//30 
